<?xml version="1.0" encoding="UTF-8" standalone="no"?>
<!DOCTYPE svg PUBLIC "-//W3C//DTD SVG 1.1//EN"
 "http://www.w3.org/Graphics/SVG/1.1/DTD/svg11.dtd">
<!-- Generated by graphviz version 5.0.0 (0)
 -->
<!-- Title: di_graph Pages: 1 -->
<svg width="303pt" height="479pt"
 viewBox="0.00 0.00 303.00 479.00" xmlns="http://www.w3.org/2000/svg" xmlns:xlink="http://www.w3.org/1999/xlink">
<g id="graph0" class="graph" transform="scale(1 1) rotate(0) translate(4 475)">
<title>di_graph</title>
<polygon fill="white" stroke="transparent" points="-4,4 -4,-475 299,-475 299,4 -4,4"/>
<!-- 10 -->
<g id="node1" class="node">
<title>10</title>
<ellipse fill="none" stroke="black" cx="141" cy="-366" rx="27" ry="18"/>
<text text-anchor="middle" x="141" y="-362.3" font-family="Times,serif" font-size="14.00">10 e</text>
</g>
<!-- 9 -->
<g id="node2" class="node">
<title>9</title>
<ellipse fill="none" stroke="black" cx="213" cy="-453" rx="27" ry="18"/>
<text text-anchor="middle" x="213" y="-449.3" font-family="Times,serif" font-size="14.00">9 e</text>
</g>
<!-- 9&#45;&gt;10 -->
<g id="edge3" class="edge">
<title>9&#45;&gt;10</title>
<path fill="none" stroke="black" d="M200.13,-436.8C189.07,-423.75 172.96,-404.74 160.35,-389.85"/>
<polygon fill="black" stroke="black" points="162.89,-387.43 153.76,-382.06 157.55,-391.96 162.89,-387.43"/>
<text text-anchor="middle" x="184.5" y="-405.8" font-family="Times,serif" font-size="14.00">e</text>
</g>
<!-- 1 -->
<g id="node7" class="node">
<title>1</title>
<ellipse fill="none" stroke="black" cx="213" cy="-366" rx="27" ry="18"/>
<text text-anchor="middle" x="213" y="-362.3" font-family="Times,serif" font-size="14.00">1 e</text>
</g>
<!-- 9&#45;&gt;1 -->
<g id="edge4" class="edge">
<title>9&#45;&gt;1</title>
<path fill="none" stroke="black" d="M213,-434.8C213,-423.16 213,-407.55 213,-394.24"/>
<polygon fill="black" stroke="black" points="216.5,-394.18 213,-384.18 209.5,-394.18 216.5,-394.18"/>
<text text-anchor="middle" x="216.5" y="-405.8" font-family="Times,serif" font-size="14.00">e</text>
</g>
<!-- 5 -->
<g id="node3" class="node">
<title>5</title>
<ellipse fill="none" stroke="black" cx="171" cy="-192" rx="27" ry="18"/>
<text text-anchor="middle" x="171" y="-188.3" font-family="Times,serif" font-size="14.00">5 e</text>
</g>
<!-- 6 -->
<g id="node4" class="node">
<title>6</title>
<ellipse fill="none" stroke="black" cx="203" cy="-105" rx="27" ry="18"/>
<text text-anchor="middle" x="203" y="-101.3" font-family="Times,serif" font-size="14.00">6 e</text>
</g>
<!-- 8 -->
<g id="node6" class="node">
<title>8</title>
<ellipse fill="none" stroke="black" cx="268" cy="-18" rx="27" ry="18"/>
<text text-anchor="middle" x="268" y="-14.3" font-family="Times,serif" font-size="14.00">8 e</text>
</g>
<!-- 6&#45;&gt;8 -->
<g id="edge10" class="edge">
<title>6&#45;&gt;8</title>
<path fill="none" stroke="black" d="M214.92,-88.41C224.73,-75.59 238.77,-57.22 249.96,-42.6"/>
<polygon fill="black" stroke="black" points="252.86,-44.56 256.15,-34.49 247.3,-40.31 252.86,-44.56"/>
<text text-anchor="middle" x="242.5" y="-57.8" font-family="Times,serif" font-size="14.00">e</text>
</g>
<!-- 6&#45;&gt;1 -->
<g id="edge9" class="edge">
<title>6&#45;&gt;1</title>
<path fill="none" stroke="black" d="M204.13,-123.04C205.01,-136.79 206.22,-156.63 207,-174 209.63,-232.37 211.48,-300.82 212.38,-337.86"/>
<polygon fill="black" stroke="black" points="208.88,-337.96 212.62,-347.87 215.88,-337.79 208.88,-337.96"/>
<text text-anchor="middle" x="212.5" y="-231.8" font-family="Times,serif" font-size="14.00">e</text>
</g>
<!-- 7 -->
<g id="node9" class="node">
<title>7</title>
<ellipse fill="none" stroke="black" cx="196" cy="-18" rx="27" ry="18"/>
<text text-anchor="middle" x="196" y="-14.3" font-family="Times,serif" font-size="14.00">7 e</text>
</g>
<!-- 6&#45;&gt;7 -->
<g id="edge11" class="edge">
<title>6&#45;&gt;7</title>
<path fill="none" stroke="black" d="M201.58,-86.8C200.63,-75.16 199.34,-59.55 198.24,-46.24"/>
<polygon fill="black" stroke="black" points="201.72,-45.85 197.41,-36.18 194.75,-46.43 201.72,-45.85"/>
<text text-anchor="middle" x="202.5" y="-57.8" font-family="Times,serif" font-size="14.00">e</text>
</g>
<!-- 3 -->
<g id="node5" class="node">
<title>3</title>
<ellipse fill="none" stroke="black" cx="27" cy="-192" rx="27" ry="18"/>
<text text-anchor="middle" x="27" y="-188.3" font-family="Times,serif" font-size="14.00">3 e</text>
</g>
<!-- 3&#45;&gt;6 -->
<g id="edge5" class="edge">
<title>3&#45;&gt;6</title>
<path fill="none" stroke="black" d="M48.23,-180.75C79.15,-165.81 136.75,-137.99 172.3,-120.83"/>
<polygon fill="black" stroke="black" points="174.21,-123.79 181.69,-116.29 171.17,-117.49 174.21,-123.79"/>
<text text-anchor="middle" x="128.5" y="-144.8" font-family="Times,serif" font-size="14.00">e</text>
</g>
<!-- 8&#45;&gt;9 -->
<g id="edge2" class="edge">
<title>8&#45;&gt;9</title>
<path fill="none" stroke="black" d="M268,-36.26C268,-53.43 268,-80.54 268,-104 268,-367 268,-367 268,-367 268,-391.92 251.13,-415.31 236.07,-431.22"/>
<polygon fill="black" stroke="black" points="233.49,-428.86 228.91,-438.41 238.45,-433.8 233.49,-428.86"/>
<text text-anchor="middle" x="271.5" y="-231.8" font-family="Times,serif" font-size="14.00">e</text>
</g>
<!-- 2 -->
<g id="node10" class="node">
<title>2</title>
<ellipse fill="none" stroke="black" cx="135" cy="-279" rx="27" ry="18"/>
<text text-anchor="middle" x="135" y="-275.3" font-family="Times,serif" font-size="14.00">2 e</text>
</g>
<!-- 1&#45;&gt;2 -->
<g id="edge1" class="edge">
<title>1&#45;&gt;2</title>
<path fill="none" stroke="black" d="M199.41,-350.19C187.22,-336.91 169.16,-317.23 155.27,-302.08"/>
<polygon fill="black" stroke="black" points="157.77,-299.64 148.43,-294.64 152.61,-304.37 157.77,-299.64"/>
<text text-anchor="middle" x="181.5" y="-318.8" font-family="Times,serif" font-size="14.00">e</text>
</g>
<!-- 4 -->
<g id="node8" class="node">
<title>4</title>
<ellipse fill="none" stroke="black" cx="99" cy="-192" rx="27" ry="18"/>
<text text-anchor="middle" x="99" y="-188.3" font-family="Times,serif" font-size="14.00">4 e</text>
</g>
<!-- 2&#45;&gt;5 -->
<g id="edge7" class="edge">
<title>2&#45;&gt;5</title>
<path fill="none" stroke="black" d="M142.11,-261.21C147.22,-249.14 154.21,-232.64 160.03,-218.89"/>
<polygon fill="black" stroke="black" points="163.35,-220.04 164.02,-209.47 156.9,-217.31 163.35,-220.04"/>
<text text-anchor="middle" x="158.5" y="-231.8" font-family="Times,serif" font-size="14.00">e</text>
</g>
<!-- 2&#45;&gt;3 -->
<g id="edge8" class="edge">
<title>2&#45;&gt;3</title>
<path fill="none" stroke="black" d="M118.12,-264.72C100.29,-250.68 71.99,-228.41 51.66,-212.41"/>
<polygon fill="black" stroke="black" points="53.78,-209.62 43.76,-206.19 49.45,-215.12 53.78,-209.62"/>
<text text-anchor="middle" x="90.5" y="-231.8" font-family="Times,serif" font-size="14.00">e</text>
</g>
<!-- 2&#45;&gt;4 -->
<g id="edge6" class="edge">
<title>2&#45;&gt;4</title>
<path fill="none" stroke="black" d="M127.89,-261.21C122.78,-249.14 115.79,-232.64 109.97,-218.89"/>
<polygon fill="black" stroke="black" points="113.1,-217.31 105.98,-209.47 106.65,-220.04 113.1,-217.31"/>
<text text-anchor="middle" x="122.5" y="-231.8" font-family="Times,serif" font-size="14.00">e</text>
</g>
</g>
</svg>
