<?xml version="1.0" encoding="UTF-8" standalone="no"?>
<!DOCTYPE svg PUBLIC "-//W3C//DTD SVG 1.1//EN"
 "http://www.w3.org/Graphics/SVG/1.1/DTD/svg11.dtd">
<!-- Generated by graphviz version 5.0.0 (0)
 -->
<!-- Title: di_graph Pages: 1 -->
<svg width="189pt" height="500pt"
 viewBox="0.00 0.00 189.00 500.00" xmlns="http://www.w3.org/2000/svg" xmlns:xlink="http://www.w3.org/1999/xlink">
<g id="graph0" class="graph" transform="scale(1 1) rotate(0) translate(4 496)">
<title>di_graph</title>
<polygon fill="white" stroke="transparent" points="-4,4 -4,-496 185,-496 185,4 -4,4"/>
<!-- 6 -->
<g id="node1" class="node">
<title>6</title>
<ellipse fill="none" stroke="green" cx="123" cy="-192" rx="27" ry="18"/>
<text text-anchor="middle" x="123" y="-188.3" font-family="Times,serif" font-size="14.00">6 e</text>
</g>
<!-- 7 -->
<g id="node6" class="node">
<title>7</title>
<ellipse fill="none" stroke="green" cx="123" cy="-105" rx="27" ry="18"/>
<text text-anchor="middle" x="123" y="-101.3" font-family="Times,serif" font-size="14.00">7 e</text>
</g>
<!-- 6&#45;&gt;7 -->
<g id="edge7" class="edge">
<title>6&#45;&gt;7</title>
<path fill="none" stroke="black" d="M123,-173.8C123,-162.16 123,-146.55 123,-133.24"/>
<polygon fill="black" stroke="black" points="126.5,-133.18 123,-123.18 119.5,-133.18 126.5,-133.18"/>
<text text-anchor="middle" x="126.5" y="-144.8" font-family="Times,serif" font-size="14.00">1</text>
</g>
<!-- 8 -->
<g id="node2" class="node">
<title>8</title>
<ellipse fill="none" stroke="green" stroke-width="2" cx="123" cy="-18" rx="27" ry="18"/>
<text text-anchor="middle" x="123" y="-14.3" font-family="Times,serif" font-size="14.00">8 e</text>
</g>
<!-- 5 -->
<g id="node3" class="node">
<title>5</title>
<ellipse fill="none" stroke="black" cx="91" cy="-279" rx="27" ry="18"/>
<text text-anchor="middle" x="91" y="-275.3" font-family="Times,serif" font-size="14.00">5 e</text>
</g>
<!-- 5&#45;&gt;6 -->
<g id="edge6" class="edge">
<title>5&#45;&gt;6</title>
<path fill="none" stroke="black" stroke-dasharray="1,5" d="M97.32,-261.21C101.84,-249.22 108,-232.85 113.15,-219.16"/>
<polygon fill="black" stroke="black" points="116.44,-220.35 116.69,-209.76 109.89,-217.88 116.44,-220.35"/>
<text text-anchor="middle" x="112.5" y="-231.8" font-family="Times,serif" font-size="14.00">1</text>
</g>
<!-- 3 -->
<g id="node4" class="node">
<title>3</title>
<ellipse fill="none" stroke="black" cx="27" cy="-387" rx="27" ry="18"/>
<text text-anchor="middle" x="27" y="-383.3" font-family="Times,serif" font-size="14.00">3 e</text>
</g>
<!-- 3&#45;&gt;5 -->
<g id="edge8" class="edge">
<title>3&#45;&gt;5</title>
<path fill="none" stroke="black" stroke-dasharray="1,5" d="M36.72,-369.9C47.21,-352.52 64.05,-324.64 76.19,-304.53"/>
<polygon fill="black" stroke="black" points="79.23,-306.27 81.4,-295.9 73.23,-302.65 79.23,-306.27"/>
<text text-anchor="middle" x="72.5" y="-329.3" font-family="Times,serif" font-size="14.00">1</text>
</g>
<!-- 1 -->
<g id="node5" class="node">
<title>1</title>
<ellipse fill="none" stroke="green" stroke-width="2" cx="99" cy="-474" rx="27" ry="18"/>
<text text-anchor="middle" x="99" y="-470.3" font-family="Times,serif" font-size="14.00">1 e</text>
</g>
<!-- 1&#45;&gt;3 -->
<g id="edge5" class="edge">
<title>1&#45;&gt;3</title>
<path fill="none" stroke="black" stroke-dasharray="1,5" d="M86.13,-457.8C75.07,-444.75 58.96,-425.74 46.35,-410.85"/>
<polygon fill="black" stroke="black" points="48.89,-408.43 39.76,-403.06 43.55,-412.96 48.89,-408.43"/>
<text text-anchor="middle" x="71.5" y="-426.8" font-family="Times,serif" font-size="14.00">1</text>
</g>
<!-- 2 -->
<g id="node7" class="node">
<title>2</title>
<ellipse fill="none" stroke="black" cx="99" cy="-387" rx="27" ry="18"/>
<text text-anchor="middle" x="99" y="-383.3" font-family="Times,serif" font-size="14.00">2 e</text>
</g>
<!-- 1&#45;&gt;2 -->
<g id="edge4" class="edge">
<title>1&#45;&gt;2</title>
<path fill="none" stroke="black" stroke-dasharray="1,5" d="M99,-455.8C99,-444.16 99,-428.55 99,-415.24"/>
<polygon fill="black" stroke="black" points="102.5,-415.18 99,-405.18 95.5,-415.18 102.5,-415.18"/>
<text text-anchor="middle" x="102.5" y="-426.8" font-family="Times,serif" font-size="14.00">1</text>
</g>
<!-- 4 -->
<g id="node8" class="node">
<title>4</title>
<ellipse fill="none" stroke="green" cx="154" cy="-333" rx="27" ry="18"/>
<text text-anchor="middle" x="154" y="-329.3" font-family="Times,serif" font-size="14.00">4 e</text>
</g>
<!-- 1&#45;&gt;4 -->
<g id="edge3" class="edge">
<title>1&#45;&gt;4</title>
<path fill="none" stroke="black" d="M108.8,-457C116.72,-443.52 127.72,-423.53 135,-405 140.56,-390.85 145.06,-374.49 148.28,-361.04"/>
<polygon fill="black" stroke="black" points="151.76,-361.51 150.59,-350.98 144.94,-359.95 151.76,-361.51"/>
<text text-anchor="middle" x="129.5" y="-426.8" font-family="Times,serif" font-size="14.00">1</text>
</g>
<!-- 7&#45;&gt;8 -->
<g id="edge9" class="edge">
<title>7&#45;&gt;8</title>
<path fill="none" stroke="black" d="M123,-86.8C123,-75.16 123,-59.55 123,-46.24"/>
<polygon fill="black" stroke="black" points="126.5,-46.18 123,-36.18 119.5,-46.18 126.5,-46.18"/>
<text text-anchor="middle" x="126.5" y="-57.8" font-family="Times,serif" font-size="14.00">1</text>
</g>
<!-- 2&#45;&gt;5 -->
<g id="edge1" class="edge">
<title>2&#45;&gt;5</title>
<path fill="none" stroke="black" stroke-dasharray="1,5" d="M97.71,-368.97C96.46,-352.28 94.52,-326.58 93.04,-307.08"/>
<polygon fill="black" stroke="black" points="96.52,-306.7 92.28,-296.99 89.54,-307.22 96.52,-306.7"/>
<text text-anchor="middle" x="100.5" y="-329.3" font-family="Times,serif" font-size="14.00">1</text>
</g>
<!-- 4&#45;&gt;6 -->
<g id="edge2" class="edge">
<title>4&#45;&gt;6</title>
<path fill="none" stroke="black" d="M150.2,-314.96C144.92,-291.3 135.32,-248.26 129.06,-220.15"/>
<polygon fill="black" stroke="black" points="132.43,-219.18 126.83,-210.18 125.59,-220.71 132.43,-219.18"/>
<text text-anchor="middle" x="149.5" y="-275.3" font-family="Times,serif" font-size="14.00">1</text>
</g>
</g>
</svg>
