<?xml version="1.0" encoding="UTF-8" standalone="no"?>
<!DOCTYPE svg PUBLIC "-//W3C//DTD SVG 1.1//EN"
 "http://www.w3.org/Graphics/SVG/1.1/DTD/svg11.dtd">
<!-- Generated by graphviz version 5.0.0 (0)
 -->
<!-- Title: di_graph Pages: 1 -->
<svg width="188pt" height="500pt"
 viewBox="0.00 0.00 188.00 500.00" xmlns="http://www.w3.org/2000/svg" xmlns:xlink="http://www.w3.org/1999/xlink">
<g id="graph0" class="graph" transform="scale(1 1) rotate(0) translate(4 496)">
<title>di_graph</title>
<polygon fill="white" stroke="transparent" points="-4,4 -4,-496 184,-496 184,4 -4,4"/>
<!-- 4 -->
<g id="node1" class="node">
<title>4</title>
<ellipse fill="none" stroke="black" cx="27" cy="-333" rx="27" ry="18"/>
<text text-anchor="middle" x="27" y="-329.3" font-family="Times,serif" font-size="14.00">4 </text>
</g>
<!-- 6 -->
<g id="node8" class="node">
<title>6</title>
<ellipse fill="none" stroke="black" cx="44" cy="-192" rx="27" ry="18"/>
<text text-anchor="middle" x="44" y="-188.3" font-family="Times,serif" font-size="14.00">6 </text>
</g>
<!-- 4&#45;&gt;6 -->
<g id="edge8" class="edge">
<title>4&#45;&gt;6</title>
<path fill="none" stroke="black" d="M29.08,-314.96C31.98,-291.3 37.24,-248.26 40.68,-220.15"/>
<polygon fill="black" stroke="black" points="44.16,-220.53 41.9,-210.18 37.21,-219.68 44.16,-220.53"/>
<text text-anchor="middle" x="38.5" y="-275.3" font-family="Times,serif" font-size="14.00">1</text>
</g>
<!-- 8 -->
<g id="node2" class="node">
<title>8</title>
<ellipse fill="none" stroke="black" cx="44" cy="-18" rx="27" ry="18"/>
<text text-anchor="middle" x="44" y="-14.3" font-family="Times,serif" font-size="14.00">8 </text>
</g>
<!-- 3 -->
<g id="node3" class="node">
<title>3</title>
<ellipse fill="none" stroke="black" cx="81" cy="-387" rx="27" ry="18"/>
<text text-anchor="middle" x="81" y="-383.3" font-family="Times,serif" font-size="14.00">3 </text>
</g>
<!-- 5 -->
<g id="node4" class="node">
<title>5</title>
<ellipse fill="none" stroke="black" cx="81" cy="-279" rx="27" ry="18"/>
<text text-anchor="middle" x="81" y="-275.3" font-family="Times,serif" font-size="14.00">5 </text>
</g>
<!-- 3&#45;&gt;5 -->
<g id="edge4" class="edge">
<title>3&#45;&gt;5</title>
<path fill="none" stroke="black" d="M81,-368.97C81,-352.38 81,-326.88 81,-307.43"/>
<polygon fill="black" stroke="black" points="84.5,-307.34 81,-297.34 77.5,-307.34 84.5,-307.34"/>
<text text-anchor="middle" x="84.5" y="-329.3" font-family="Times,serif" font-size="14.00">1</text>
</g>
<!-- 5&#45;&gt;6 -->
<g id="edge5" class="edge">
<title>5&#45;&gt;6</title>
<path fill="none" stroke="black" d="M73.87,-261.61C68.63,-249.58 61.4,-232.98 55.37,-219.13"/>
<polygon fill="black" stroke="black" points="58.44,-217.4 51.24,-209.63 52.02,-220.19 58.44,-217.4"/>
<text text-anchor="middle" x="67.5" y="-231.8" font-family="Times,serif" font-size="14.00">1</text>
</g>
<!-- 7 -->
<g id="node5" class="node">
<title>7</title>
<ellipse fill="none" stroke="black" cx="44" cy="-105" rx="27" ry="18"/>
<text text-anchor="middle" x="44" y="-101.3" font-family="Times,serif" font-size="14.00">7 </text>
</g>
<!-- 7&#45;&gt;8 -->
<g id="edge9" class="edge">
<title>7&#45;&gt;8</title>
<path fill="none" stroke="black" d="M44,-86.8C44,-75.16 44,-59.55 44,-46.24"/>
<polygon fill="black" stroke="black" points="47.5,-46.18 44,-36.18 40.5,-46.18 47.5,-46.18"/>
<text text-anchor="middle" x="47.5" y="-57.8" font-family="Times,serif" font-size="14.00">1</text>
</g>
<!-- 2 -->
<g id="node6" class="node">
<title>2</title>
<ellipse fill="none" stroke="black" cx="153" cy="-387" rx="27" ry="18"/>
<text text-anchor="middle" x="153" y="-383.3" font-family="Times,serif" font-size="14.00">2 </text>
</g>
<!-- 2&#45;&gt;5 -->
<g id="edge7" class="edge">
<title>2&#45;&gt;5</title>
<path fill="none" stroke="black" d="M142.38,-370.36C130.52,-352.9 111.19,-324.44 97.39,-304.13"/>
<polygon fill="black" stroke="black" points="100.18,-302.01 91.67,-295.7 94.39,-305.94 100.18,-302.01"/>
<text text-anchor="middle" x="130.5" y="-329.3" font-family="Times,serif" font-size="14.00">1</text>
</g>
<!-- 1 -->
<g id="node7" class="node">
<title>1</title>
<ellipse fill="none" stroke="black" cx="81" cy="-474" rx="27" ry="18"/>
<text text-anchor="middle" x="81" y="-470.3" font-family="Times,serif" font-size="14.00">1 </text>
</g>
<!-- 1&#45;&gt;4 -->
<g id="edge2" class="edge">
<title>1&#45;&gt;4</title>
<path fill="none" stroke="black" d="M71.14,-457.03C63.17,-443.56 52.15,-423.57 45,-405 39.56,-390.86 35.28,-374.5 32.26,-361.05"/>
<polygon fill="black" stroke="black" points="35.63,-360.04 30.12,-350.99 28.78,-361.5 35.63,-360.04"/>
<text text-anchor="middle" x="63.5" y="-426.8" font-family="Times,serif" font-size="14.00">1</text>
</g>
<!-- 1&#45;&gt;3 -->
<g id="edge3" class="edge">
<title>1&#45;&gt;3</title>
<path fill="none" stroke="black" d="M81,-455.8C81,-444.16 81,-428.55 81,-415.24"/>
<polygon fill="black" stroke="black" points="84.5,-415.18 81,-405.18 77.5,-415.18 84.5,-415.18"/>
<text text-anchor="middle" x="84.5" y="-426.8" font-family="Times,serif" font-size="14.00">1</text>
</g>
<!-- 1&#45;&gt;2 -->
<g id="edge1" class="edge">
<title>1&#45;&gt;2</title>
<path fill="none" stroke="black" d="M93.87,-457.8C104.93,-444.75 121.04,-425.74 133.65,-410.85"/>
<polygon fill="black" stroke="black" points="136.45,-412.96 140.24,-403.06 131.11,-408.43 136.45,-412.96"/>
<text text-anchor="middle" x="124.5" y="-426.8" font-family="Times,serif" font-size="14.00">1</text>
</g>
<!-- 6&#45;&gt;7 -->
<g id="edge6" class="edge">
<title>6&#45;&gt;7</title>
<path fill="none" stroke="black" d="M44,-173.8C44,-162.16 44,-146.55 44,-133.24"/>
<polygon fill="black" stroke="black" points="47.5,-133.18 44,-123.18 40.5,-133.18 47.5,-133.18"/>
<text text-anchor="middle" x="47.5" y="-144.8" font-family="Times,serif" font-size="14.00">1</text>
</g>
</g>
</svg>
