<?xml version="1.0" encoding="UTF-8" standalone="no"?>
<!DOCTYPE svg PUBLIC "-//W3C//DTD SVG 1.1//EN"
 "http://www.w3.org/Graphics/SVG/1.1/DTD/svg11.dtd">
<!-- Generated by graphviz version 5.0.0 (0)
 -->
<!-- Title: di_graph Pages: 1 -->
<svg width="206pt" height="392pt"
 viewBox="0.00 0.00 206.00 392.00" xmlns="http://www.w3.org/2000/svg" xmlns:xlink="http://www.w3.org/1999/xlink">
<g id="graph0" class="graph" transform="scale(1 1) rotate(0) translate(4 388)">
<title>di_graph</title>
<polygon fill="white" stroke="transparent" points="-4,4 -4,-388 202,-388 202,4 -4,4"/>
<!-- 2 -->
<g id="node1" class="node">
<title>2</title>
<ellipse fill="none" stroke="black" cx="27" cy="-279" rx="27" ry="18"/>
<text text-anchor="middle" x="27" y="-275.3" font-family="Times,serif" font-size="14.00">2 x</text>
</g>
<!-- 5 -->
<g id="node8" class="node">
<title>5</title>
<ellipse fill="none" stroke="green" cx="99" cy="-192" rx="27" ry="18"/>
<text text-anchor="middle" x="99" y="-188.3" font-family="Times,serif" font-size="14.00">5 x</text>
</g>
<!-- 2&#45;&gt;5 -->
<g id="edge7" class="edge">
<title>2&#45;&gt;5</title>
<path fill="none" stroke="black" stroke-dasharray="1,5" d="M39.87,-262.8C50.93,-249.75 67.04,-230.74 79.65,-215.85"/>
<polygon fill="black" stroke="black" points="82.45,-217.96 86.24,-208.06 77.11,-213.43 82.45,-217.96"/>
<text text-anchor="middle" x="71.5" y="-231.8" font-family="Times,serif" font-size="14.00">2</text>
</g>
<!-- 4 -->
<g id="node2" class="node">
<title>4</title>
<ellipse fill="none" stroke="black" cx="99" cy="-279" rx="27" ry="18"/>
<text text-anchor="middle" x="99" y="-275.3" font-family="Times,serif" font-size="14.00">4 x</text>
</g>
<!-- 4&#45;&gt;5 -->
<g id="edge6" class="edge">
<title>4&#45;&gt;5</title>
<path fill="none" stroke="black" stroke-dasharray="1,5" d="M99,-260.8C99,-249.16 99,-233.55 99,-220.24"/>
<polygon fill="black" stroke="black" points="102.5,-220.18 99,-210.18 95.5,-220.18 102.5,-220.18"/>
<text text-anchor="middle" x="102.5" y="-231.8" font-family="Times,serif" font-size="14.00">2</text>
</g>
<!-- 8 -->
<g id="node3" class="node">
<title>8</title>
<ellipse fill="none" stroke="green" stroke-width="2" cx="63" cy="-18" rx="27" ry="18"/>
<text text-anchor="middle" x="63" y="-14.3" font-family="Times,serif" font-size="14.00">8 x</text>
</g>
<!-- 3 -->
<g id="node4" class="node">
<title>3</title>
<ellipse fill="none" stroke="green" cx="171" cy="-279" rx="27" ry="18"/>
<text text-anchor="middle" x="171" y="-275.3" font-family="Times,serif" font-size="14.00">3 x</text>
</g>
<!-- 3&#45;&gt;5 -->
<g id="edge5" class="edge">
<title>3&#45;&gt;5</title>
<path fill="none" stroke="black" d="M158.13,-262.8C147.07,-249.75 130.96,-230.74 118.35,-215.85"/>
<polygon fill="black" stroke="black" points="120.89,-213.43 111.76,-208.06 115.55,-217.96 120.89,-213.43"/>
<text text-anchor="middle" x="142.5" y="-231.8" font-family="Times,serif" font-size="14.00">2</text>
</g>
<!-- 7 -->
<g id="node5" class="node">
<title>7</title>
<ellipse fill="none" stroke="black" cx="135" cy="-18" rx="27" ry="18"/>
<text text-anchor="middle" x="135" y="-14.3" font-family="Times,serif" font-size="14.00">7 x</text>
</g>
<!-- 1 -->
<g id="node6" class="node">
<title>1</title>
<ellipse fill="none" stroke="green" stroke-width="2" cx="99" cy="-366" rx="27" ry="18"/>
<text text-anchor="middle" x="99" y="-362.3" font-family="Times,serif" font-size="14.00">1 x</text>
</g>
<!-- 1&#45;&gt;2 -->
<g id="edge3" class="edge">
<title>1&#45;&gt;2</title>
<path fill="none" stroke="black" stroke-dasharray="1,5" d="M86.13,-349.8C75.07,-336.75 58.96,-317.74 46.35,-302.85"/>
<polygon fill="black" stroke="black" points="48.89,-300.43 39.76,-295.06 43.55,-304.96 48.89,-300.43"/>
<text text-anchor="middle" x="71.5" y="-318.8" font-family="Times,serif" font-size="14.00">3</text>
</g>
<!-- 1&#45;&gt;4 -->
<g id="edge2" class="edge">
<title>1&#45;&gt;4</title>
<path fill="none" stroke="black" stroke-dasharray="1,5" d="M99,-347.8C99,-336.16 99,-320.55 99,-307.24"/>
<polygon fill="black" stroke="black" points="102.5,-307.18 99,-297.18 95.5,-307.18 102.5,-307.18"/>
<text text-anchor="middle" x="102.5" y="-318.8" font-family="Times,serif" font-size="14.00">2</text>
</g>
<!-- 1&#45;&gt;3 -->
<g id="edge1" class="edge">
<title>1&#45;&gt;3</title>
<path fill="none" stroke="black" d="M111.87,-349.8C122.93,-336.75 139.04,-317.74 151.65,-302.85"/>
<polygon fill="black" stroke="black" points="154.45,-304.96 158.24,-295.06 149.11,-300.43 154.45,-304.96"/>
<text text-anchor="middle" x="142.5" y="-318.8" font-family="Times,serif" font-size="14.00">1</text>
</g>
<!-- 6 -->
<g id="node7" class="node">
<title>6</title>
<ellipse fill="none" stroke="green" cx="99" cy="-105" rx="27" ry="18"/>
<text text-anchor="middle" x="99" y="-101.3" font-family="Times,serif" font-size="14.00">6 x</text>
</g>
<!-- 6&#45;&gt;8 -->
<g id="edge9" class="edge">
<title>6&#45;&gt;8</title>
<path fill="none" stroke="black" d="M91.89,-87.21C86.78,-75.14 79.79,-58.64 73.97,-44.89"/>
<polygon fill="black" stroke="black" points="77.1,-43.31 69.98,-35.47 70.65,-46.04 77.1,-43.31"/>
<text text-anchor="middle" x="87.5" y="-57.8" font-family="Times,serif" font-size="14.00">3</text>
</g>
<!-- 6&#45;&gt;7 -->
<g id="edge8" class="edge">
<title>6&#45;&gt;7</title>
<path fill="none" stroke="black" stroke-dasharray="1,5" d="M106.11,-87.21C111.22,-75.14 118.21,-58.64 124.03,-44.89"/>
<polygon fill="black" stroke="black" points="127.35,-46.04 128.02,-35.47 120.9,-43.31 127.35,-46.04"/>
<text text-anchor="middle" x="122.5" y="-57.8" font-family="Times,serif" font-size="14.00">2</text>
</g>
<!-- 5&#45;&gt;6 -->
<g id="edge4" class="edge">
<title>5&#45;&gt;6</title>
<path fill="none" stroke="black" d="M99,-173.8C99,-162.16 99,-146.55 99,-133.24"/>
<polygon fill="black" stroke="black" points="102.5,-133.18 99,-123.18 95.5,-133.18 102.5,-133.18"/>
<text text-anchor="middle" x="102.5" y="-144.8" font-family="Times,serif" font-size="14.00">1</text>
</g>
</g>
</svg>
