<?xml version="1.0" encoding="UTF-8" standalone="no"?>
<!DOCTYPE svg PUBLIC "-//W3C//DTD SVG 1.1//EN"
 "http://www.w3.org/Graphics/SVG/1.1/DTD/svg11.dtd">
<!-- Generated by graphviz version 2.49.3 (20211023.0002)
 -->
<!-- Title: di_graph Pages: 1 -->
<svg width="206pt" height="476pt"
 viewBox="0.00 0.00 206.00 476.00" xmlns="http://www.w3.org/2000/svg" xmlns:xlink="http://www.w3.org/1999/xlink">
<g id="graph0" class="graph" transform="scale(1 1) rotate(0) translate(4 472)">
<title>di_graph</title>
<polygon fill="white" stroke="transparent" points="-4,4 -4,-472 202,-472 202,4 -4,4"/>
<!-- 3 -->
<g id="node1" class="node">
<title>3</title>
<ellipse fill="none" stroke="black" cx="27" cy="-378" rx="27" ry="18"/>
<text text-anchor="middle" x="27" y="-374.3" font-family="Times New Roman,serif" font-size="14.00">3</text>
</g>
<!-- 6 -->
<g id="node4" class="node">
<title>6</title>
<ellipse fill="none" stroke="black" cx="107" cy="-234" rx="27" ry="18"/>
<text text-anchor="middle" x="107" y="-230.3" font-family="Times New Roman,serif" font-size="14.00">6</text>
</g>
<!-- 3&#45;&gt;6 -->
<g id="edge5" class="edge">
<title>3&#45;&gt;6</title>
<path fill="none" stroke="black" d="M26.94,-359.75C27.61,-340.89 30.88,-310.39 44,-288 52.45,-273.57 66.34,-261.26 78.93,-252.15"/>
<polygon fill="black" stroke="black" points="81.09,-254.91 87.35,-246.36 77.13,-249.14 81.09,-254.91"/>
</g>
<!-- 5 -->
<g id="node6" class="node">
<title>5</title>
<ellipse fill="none" stroke="black" cx="80" cy="-306" rx="27" ry="18"/>
<text text-anchor="middle" x="80" y="-302.3" font-family="Times New Roman,serif" font-size="14.00">5</text>
</g>
<!-- 3&#45;&gt;5 -->
<g id="edge4" class="edge">
<title>3&#45;&gt;5</title>
<path fill="none" stroke="black" d="M38.76,-361.46C45.62,-352.4 54.42,-340.79 62.12,-330.61"/>
<polygon fill="black" stroke="black" points="65.02,-332.58 68.27,-322.49 59.44,-328.35 65.02,-332.58"/>
</g>
<!-- 8 -->
<g id="node2" class="node">
<title>8</title>
<ellipse fill="none" stroke="black" cx="71" cy="-162" rx="27" ry="18"/>
<text text-anchor="middle" x="71" y="-158.3" font-family="Times New Roman,serif" font-size="14.00">8</text>
</g>
<!-- 9 -->
<g id="node8" class="node">
<title>9</title>
<ellipse fill="none" stroke="black" cx="107" cy="-90" rx="27" ry="18"/>
<text text-anchor="middle" x="107" y="-86.3" font-family="Times New Roman,serif" font-size="14.00">9</text>
</g>
<!-- 8&#45;&gt;9 -->
<g id="edge9" class="edge">
<title>8&#45;&gt;9</title>
<path fill="none" stroke="black" d="M79.35,-144.76C83.71,-136.28 89.15,-125.71 94.04,-116.2"/>
<polygon fill="black" stroke="black" points="97.23,-117.64 98.7,-107.15 91.01,-114.44 97.23,-117.64"/>
</g>
<!-- 10 -->
<g id="node3" class="node">
<title>10</title>
<ellipse fill="none" stroke="black" cx="107" cy="-18" rx="27" ry="18"/>
<text text-anchor="middle" x="107" y="-14.3" font-family="Times New Roman,serif" font-size="14.00">10</text>
</g>
<!-- 6&#45;&gt;8 -->
<g id="edge12" class="edge">
<title>6&#45;&gt;8</title>
<path fill="none" stroke="black" d="M98.65,-216.76C94.29,-208.28 88.85,-197.71 83.96,-188.2"/>
<polygon fill="black" stroke="black" points="86.99,-186.44 79.3,-179.15 80.77,-189.64 86.99,-186.44"/>
</g>
<!-- 7 -->
<g id="node5" class="node">
<title>7</title>
<ellipse fill="none" stroke="black" cx="143" cy="-162" rx="27" ry="18"/>
<text text-anchor="middle" x="143" y="-158.3" font-family="Times New Roman,serif" font-size="14.00">7</text>
</g>
<!-- 6&#45;&gt;7 -->
<g id="edge13" class="edge">
<title>6&#45;&gt;7</title>
<path fill="none" stroke="black" d="M115.35,-216.76C119.71,-208.28 125.15,-197.71 130.04,-188.2"/>
<polygon fill="black" stroke="black" points="133.23,-189.64 134.7,-179.15 127.01,-186.44 133.23,-189.64"/>
</g>
<!-- 7&#45;&gt;9 -->
<g id="edge11" class="edge">
<title>7&#45;&gt;9</title>
<path fill="none" stroke="black" d="M134.65,-144.76C130.29,-136.28 124.85,-125.71 119.96,-116.2"/>
<polygon fill="black" stroke="black" points="122.99,-114.44 115.3,-107.15 116.77,-117.64 122.99,-114.44"/>
</g>
<!-- 5&#45;&gt;6 -->
<g id="edge8" class="edge">
<title>5&#45;&gt;6</title>
<path fill="none" stroke="black" d="M86.4,-288.41C89.51,-280.34 93.33,-270.43 96.83,-261.35"/>
<polygon fill="black" stroke="black" points="100.13,-262.55 100.46,-251.96 93.6,-260.03 100.13,-262.55"/>
</g>
<!-- 1 -->
<g id="node7" class="node">
<title>1</title>
<ellipse fill="none" stroke="black" cx="99" cy="-450" rx="27" ry="18"/>
<text text-anchor="middle" x="99" y="-446.3" font-family="Times New Roman,serif" font-size="14.00">1</text>
</g>
<!-- 1&#45;&gt;3 -->
<g id="edge3" class="edge">
<title>1&#45;&gt;3</title>
<path fill="none" stroke="black" d="M84.43,-434.83C74.25,-424.94 60.48,-411.55 48.97,-400.36"/>
<polygon fill="black" stroke="black" points="51.41,-397.85 41.8,-393.38 46.53,-402.87 51.41,-397.85"/>
</g>
<!-- 4 -->
<g id="node9" class="node">
<title>4</title>
<ellipse fill="none" stroke="black" cx="99" cy="-378" rx="27" ry="18"/>
<text text-anchor="middle" x="99" y="-374.3" font-family="Times New Roman,serif" font-size="14.00">4</text>
</g>
<!-- 1&#45;&gt;4 -->
<g id="edge1" class="edge">
<title>1&#45;&gt;4</title>
<path fill="none" stroke="black" d="M99,-431.7C99,-423.98 99,-414.71 99,-406.11"/>
<polygon fill="black" stroke="black" points="102.5,-406.1 99,-396.1 95.5,-406.1 102.5,-406.1"/>
</g>
<!-- 2 -->
<g id="node10" class="node">
<title>2</title>
<ellipse fill="none" stroke="black" cx="171" cy="-378" rx="27" ry="18"/>
<text text-anchor="middle" x="171" y="-374.3" font-family="Times New Roman,serif" font-size="14.00">2</text>
</g>
<!-- 1&#45;&gt;2 -->
<g id="edge2" class="edge">
<title>1&#45;&gt;2</title>
<path fill="none" stroke="black" d="M113.57,-434.83C123.75,-424.94 137.52,-411.55 149.03,-400.36"/>
<polygon fill="black" stroke="black" points="151.47,-402.87 156.2,-393.38 146.59,-397.85 151.47,-402.87"/>
</g>
<!-- 9&#45;&gt;10 -->
<g id="edge10" class="edge">
<title>9&#45;&gt;10</title>
<path fill="none" stroke="black" d="M107,-71.7C107,-63.98 107,-54.71 107,-46.11"/>
<polygon fill="black" stroke="black" points="110.5,-46.1 107,-36.1 103.5,-46.1 110.5,-46.1"/>
</g>
<!-- 4&#45;&gt;6 -->
<g id="edge7" class="edge">
<title>4&#45;&gt;6</title>
<path fill="none" stroke="black" d="M105.89,-360.14C109.7,-349.88 114.06,-336.41 116,-324 119.24,-303.29 116.56,-279.67 113.3,-261.98"/>
<polygon fill="black" stroke="black" points="116.66,-260.91 111.25,-251.8 109.8,-262.3 116.66,-260.91"/>
</g>
<!-- 4&#45;&gt;5 -->
<g id="edge6" class="edge">
<title>4&#45;&gt;5</title>
<path fill="none" stroke="black" d="M94.4,-360.05C92.25,-352.14 89.65,-342.54 87.24,-333.69"/>
<polygon fill="black" stroke="black" points="90.55,-332.52 84.56,-323.79 83.8,-334.36 90.55,-332.52"/>
</g>
<!-- 2&#45;&gt;6 -->
<g id="edge15" class="edge">
<title>2&#45;&gt;6</title>
<path fill="none" stroke="black" d="M163.53,-360.43C152.5,-335.96 131.75,-289.91 118.69,-260.94"/>
<polygon fill="black" stroke="black" points="121.72,-259.14 114.42,-251.46 115.34,-262.02 121.72,-259.14"/>
</g>
<!-- 2&#45;&gt;5 -->
<g id="edge14" class="edge">
<title>2&#45;&gt;5</title>
<path fill="none" stroke="black" d="M153.88,-363.83C140.16,-353.27 120.69,-338.3 105.18,-326.37"/>
<polygon fill="black" stroke="black" points="107.1,-323.43 97.04,-320.11 102.83,-328.98 107.1,-323.43"/>
</g>
</g>
</svg>
