<?xml version="1.0" encoding="UTF-8" standalone="no"?>
<!DOCTYPE svg PUBLIC "-//W3C//DTD SVG 1.1//EN"
 "http://www.w3.org/Graphics/SVG/1.1/DTD/svg11.dtd">
<!-- Generated by graphviz version 2.49.3 (20211023.0002)
 -->
<!-- Title: di_graph Pages: 1 -->
<svg width="255pt" height="566pt"
 viewBox="0.00 0.00 255.00 566.00" xmlns="http://www.w3.org/2000/svg" xmlns:xlink="http://www.w3.org/1999/xlink">
<g id="graph0" class="graph" transform="scale(1 1) rotate(0) translate(4 562)">
<title>di_graph</title>
<polygon fill="white" stroke="transparent" points="-4,4 -4,-562 251,-562 251,4 -4,4"/>
<!-- 1 -->
<g id="node1" class="node">
<title>1</title>
<ellipse fill="none" stroke="green" stroke-width="2" cx="99" cy="-540" rx="27" ry="18"/>
<text text-anchor="middle" x="99" y="-536.3" font-family="Times New Roman,serif" font-size="14.00">1 </text>
</g>
<!-- 3 -->
<g id="node6" class="node">
<title>3</title>
<ellipse fill="none" stroke="black" cx="27" cy="-453" rx="27" ry="18"/>
<text text-anchor="middle" x="27" y="-449.3" font-family="Times New Roman,serif" font-size="14.00">3 </text>
</g>
<!-- 1&#45;&gt;3 -->
<g id="edge2" class="edge">
<title>1&#45;&gt;3</title>
<path fill="none" stroke="black" stroke-dasharray="1,5" d="M86.13,-523.8C75.07,-510.75 58.96,-491.74 46.35,-476.85"/>
<polygon fill="black" stroke="black" points="48.89,-474.43 39.76,-469.06 43.55,-478.96 48.89,-474.43"/>
<text text-anchor="middle" x="71.5" y="-492.8" font-family="Times New Roman,serif" font-size="14.00">1</text>
</g>
<!-- 2 -->
<g id="node7" class="node">
<title>2</title>
<ellipse fill="none" stroke="green" cx="99" cy="-453" rx="27" ry="18"/>
<text text-anchor="middle" x="99" y="-449.3" font-family="Times New Roman,serif" font-size="14.00">2 </text>
</g>
<!-- 1&#45;&gt;2 -->
<g id="edge1" class="edge">
<title>1&#45;&gt;2</title>
<path fill="none" stroke="black" d="M99,-521.8C99,-510.16 99,-494.55 99,-481.24"/>
<polygon fill="black" stroke="black" points="102.5,-481.18 99,-471.18 95.5,-481.18 102.5,-481.18"/>
<text text-anchor="middle" x="102.5" y="-492.8" font-family="Times New Roman,serif" font-size="14.00">1</text>
</g>
<!-- 5 -->
<g id="node2" class="node">
<title>5</title>
<ellipse fill="none" stroke="black" cx="27" cy="-366" rx="27" ry="18"/>
<text text-anchor="middle" x="27" y="-362.3" font-family="Times New Roman,serif" font-size="14.00">5 </text>
</g>
<!-- 6 -->
<g id="node5" class="node">
<title>6</title>
<ellipse fill="none" stroke="green" cx="105" cy="-279" rx="27" ry="18"/>
<text text-anchor="middle" x="105" y="-275.3" font-family="Times New Roman,serif" font-size="14.00">6 </text>
</g>
<!-- 5&#45;&gt;6 -->
<g id="edge5" class="edge">
<title>5&#45;&gt;6</title>
<path fill="none" stroke="black" stroke-dasharray="1,5" d="M40.59,-350.19C52.78,-336.91 70.84,-317.23 84.73,-302.08"/>
<polygon fill="black" stroke="black" points="87.39,-304.37 91.57,-294.64 82.23,-299.64 87.39,-304.37"/>
<text text-anchor="middle" x="73.5" y="-318.8" font-family="Times New Roman,serif" font-size="14.00">1</text>
</g>
<!-- 11 -->
<g id="node9" class="node">
<title>11</title>
<ellipse fill="none" stroke="green" stroke-width="2" cx="112" cy="-18" rx="27" ry="18"/>
<text text-anchor="middle" x="112" y="-14.3" font-family="Times New Roman,serif" font-size="14.00">11 </text>
</g>
<!-- 5&#45;&gt;11 -->
<g id="edge6" class="edge">
<title>5&#45;&gt;11</title>
<path fill="none" stroke="black" stroke-dasharray="1,5" d="M25.07,-347.77C23.31,-330.61 21,-303.52 21,-280 21,-280 21,-280 21,-104 21,-70.69 53.96,-46.69 80.21,-32.85"/>
<polygon fill="black" stroke="black" points="82.12,-35.81 89.51,-28.22 78.99,-29.55 82.12,-35.81"/>
<text text-anchor="middle" x="24.5" y="-188.3" font-family="Times New Roman,serif" font-size="14.00">4</text>
</g>
<!-- 10 -->
<g id="node3" class="node">
<title>10</title>
<ellipse fill="none" stroke="black" cx="220" cy="-105" rx="27" ry="18"/>
<text text-anchor="middle" x="220" y="-101.3" font-family="Times New Roman,serif" font-size="14.00">10 </text>
</g>
<!-- 10&#45;&gt;11 -->
<g id="edge7" class="edge">
<title>10&#45;&gt;11</title>
<path fill="none" stroke="black" stroke-dasharray="1,5" d="M203.12,-90.72C185.29,-76.68 156.99,-54.41 136.66,-38.41"/>
<polygon fill="black" stroke="black" points="138.78,-35.62 128.76,-32.19 134.45,-41.12 138.78,-35.62"/>
<text text-anchor="middle" x="175.5" y="-57.8" font-family="Times New Roman,serif" font-size="14.00">1</text>
</g>
<!-- 9 -->
<g id="node4" class="node">
<title>9</title>
<ellipse fill="none" stroke="black" cx="76" cy="-105" rx="27" ry="18"/>
<text text-anchor="middle" x="76" y="-101.3" font-family="Times New Roman,serif" font-size="14.00">9 </text>
</g>
<!-- 9&#45;&gt;11 -->
<g id="edge4" class="edge">
<title>9&#45;&gt;11</title>
<path fill="none" stroke="black" stroke-dasharray="1,5" d="M83.11,-87.21C88.22,-75.14 95.21,-58.64 101.03,-44.89"/>
<polygon fill="black" stroke="black" points="104.35,-46.04 105.02,-35.47 97.9,-43.31 104.35,-46.04"/>
<text text-anchor="middle" x="99.5" y="-57.8" font-family="Times New Roman,serif" font-size="14.00">1</text>
</g>
<!-- 6&#45;&gt;1 -->
<g id="edge10" class="edge">
<title>6&#45;&gt;1</title>
<path fill="none" stroke="black" stroke-dasharray="1,5" d="M114.41,-296.12C121.65,-309.51 131.06,-329.31 135,-348 146.28,-401.49 148.18,-417.95 135,-471 131.14,-486.54 123,-502.44 115.43,-514.96"/>
<polygon fill="black" stroke="black" points="112.47,-513.09 110.1,-523.42 118.39,-516.83 112.47,-513.09"/>
<text text-anchor="middle" x="147.5" y="-405.8" font-family="Times New Roman,serif" font-size="14.00">1</text>
</g>
<!-- 7 -->
<g id="node11" class="node">
<title>7</title>
<ellipse fill="none" stroke="green" cx="129" cy="-192" rx="27" ry="18"/>
<text text-anchor="middle" x="129" y="-188.3" font-family="Times New Roman,serif" font-size="14.00">7 </text>
</g>
<!-- 6&#45;&gt;7 -->
<g id="edge9" class="edge">
<title>6&#45;&gt;7</title>
<path fill="none" stroke="black" d="M109.74,-261.21C113.09,-249.33 117.66,-233.17 121.5,-219.56"/>
<polygon fill="black" stroke="black" points="124.92,-220.33 124.27,-209.76 118.18,-218.43 124.92,-220.33"/>
<text text-anchor="middle" x="121.5" y="-231.8" font-family="Times New Roman,serif" font-size="14.00">1</text>
</g>
<!-- 3&#45;&gt;5 -->
<g id="edge11" class="edge">
<title>3&#45;&gt;5</title>
<path fill="none" stroke="black" stroke-dasharray="1,5" d="M27,-434.8C27,-423.16 27,-407.55 27,-394.24"/>
<polygon fill="black" stroke="black" points="30.5,-394.18 27,-384.18 23.5,-394.18 30.5,-394.18"/>
<text text-anchor="middle" x="30.5" y="-405.8" font-family="Times New Roman,serif" font-size="14.00">3</text>
</g>
<!-- 4 -->
<g id="node8" class="node">
<title>4</title>
<ellipse fill="none" stroke="green" cx="99" cy="-366" rx="27" ry="18"/>
<text text-anchor="middle" x="99" y="-362.3" font-family="Times New Roman,serif" font-size="14.00">4 </text>
</g>
<!-- 2&#45;&gt;4 -->
<g id="edge8" class="edge">
<title>2&#45;&gt;4</title>
<path fill="none" stroke="black" d="M99,-434.8C99,-423.16 99,-407.55 99,-394.24"/>
<polygon fill="black" stroke="black" points="102.5,-394.18 99,-384.18 95.5,-394.18 102.5,-394.18"/>
<text text-anchor="middle" x="102.5" y="-405.8" font-family="Times New Roman,serif" font-size="14.00">2</text>
</g>
<!-- 4&#45;&gt;6 -->
<g id="edge3" class="edge">
<title>4&#45;&gt;6</title>
<path fill="none" stroke="black" d="M100.21,-347.8C101.04,-336.16 102.14,-320.55 103.08,-307.24"/>
<polygon fill="black" stroke="black" points="106.57,-307.4 103.79,-297.18 99.59,-306.9 106.57,-307.4"/>
<text text-anchor="middle" x="105.5" y="-318.8" font-family="Times New Roman,serif" font-size="14.00">1</text>
</g>
<!-- 8 -->
<g id="node10" class="node">
<title>8</title>
<ellipse fill="none" stroke="green" cx="148" cy="-105" rx="27" ry="18"/>
<text text-anchor="middle" x="148" y="-101.3" font-family="Times New Roman,serif" font-size="14.00">8 </text>
</g>
<!-- 8&#45;&gt;11 -->
<g id="edge15" class="edge">
<title>8&#45;&gt;11</title>
<path fill="none" stroke="black" d="M140.89,-87.21C135.78,-75.14 128.79,-58.64 122.97,-44.89"/>
<polygon fill="black" stroke="black" points="126.1,-43.31 118.98,-35.47 119.65,-46.04 126.1,-43.31"/>
<text text-anchor="middle" x="135.5" y="-57.8" font-family="Times New Roman,serif" font-size="14.00">1</text>
</g>
<!-- 7&#45;&gt;10 -->
<g id="edge14" class="edge">
<title>7&#45;&gt;10</title>
<path fill="none" stroke="black" stroke-dasharray="1,5" d="M144.03,-176.96C158.52,-163.43 180.64,-142.77 197.28,-127.22"/>
<polygon fill="black" stroke="black" points="200.03,-129.44 204.95,-120.06 195.25,-124.33 200.03,-129.44"/>
<text text-anchor="middle" x="182.5" y="-144.8" font-family="Times New Roman,serif" font-size="14.00">3</text>
</g>
<!-- 7&#45;&gt;9 -->
<g id="edge12" class="edge">
<title>7&#45;&gt;9</title>
<path fill="none" stroke="black" stroke-dasharray="1,5" d="M119.03,-175.01C111.26,-162.55 100.33,-145.01 91.43,-130.74"/>
<polygon fill="black" stroke="black" points="94.19,-128.55 85.92,-121.92 88.25,-132.25 94.19,-128.55"/>
<text text-anchor="middle" x="108.5" y="-144.8" font-family="Times New Roman,serif" font-size="14.00">2</text>
</g>
<!-- 7&#45;&gt;8 -->
<g id="edge13" class="edge">
<title>7&#45;&gt;8</title>
<path fill="none" stroke="black" d="M132.84,-173.8C135.46,-162.09 138.98,-146.34 141.97,-132.97"/>
<polygon fill="black" stroke="black" points="145.46,-133.41 144.23,-122.89 138.63,-131.88 145.46,-133.41"/>
<text text-anchor="middle" x="142.5" y="-144.8" font-family="Times New Roman,serif" font-size="14.00">1</text>
</g>
</g>
</svg>
