<?xml version="1.0" encoding="UTF-8" standalone="no"?>
<!DOCTYPE svg PUBLIC "-//W3C//DTD SVG 1.1//EN"
 "http://www.w3.org/Graphics/SVG/1.1/DTD/svg11.dtd">
<!-- Generated by graphviz version 5.0.0 (0)
 -->
<!-- Title: di_graph Pages: 1 -->
<svg width="285pt" height="581pt"
 viewBox="0.00 0.00 285.00 581.00" xmlns="http://www.w3.org/2000/svg" xmlns:xlink="http://www.w3.org/1999/xlink">
<g id="graph0" class="graph" transform="scale(1 1) rotate(0) translate(4 577)">
<title>di_graph</title>
<polygon fill="white" stroke="transparent" points="-4,4 -4,-577 281,-577 281,4 -4,4"/>
<!-- 2 -->
<g id="node1" class="node">
<title>2</title>
<ellipse fill="none" stroke="black" cx="236" cy="-540" rx="27" ry="18"/>
<text text-anchor="middle" x="236" y="-536.3" font-family="Times,serif" font-size="14.00">2 b</text>
<text text-anchor="middle" x="205.5" y="-561.8" font-family="Times,serif" font-size="14.00">1</text>
</g>
<!-- 4 -->
<g id="node2" class="node">
<title>4</title>
<ellipse fill="none" stroke="black" cx="195" cy="-453" rx="27" ry="18"/>
<text text-anchor="middle" x="195" y="-449.3" font-family="Times,serif" font-size="14.00">4 d</text>
<text text-anchor="middle" x="164.5" y="-474.8" font-family="Times,serif" font-size="14.00">3</text>
</g>
<!-- 2&#45;&gt;4 -->
<g id="edge14" class="edge">
<title>2&#45;&gt;4</title>
<path fill="none" stroke="black" d="M228.09,-522.61C222.2,-510.38 214.03,-493.44 207.28,-479.46"/>
<polygon fill="black" stroke="black" points="210.38,-477.82 202.88,-470.34 204.07,-480.87 210.38,-477.82"/>
<text text-anchor="middle" x="221.5" y="-492.8" font-family="Times,serif" font-size="14.00">2</text>
</g>
<!-- 6 -->
<g id="node8" class="node">
<title>6</title>
<ellipse fill="none" stroke="black" cx="195" cy="-366" rx="27" ry="18"/>
<text text-anchor="middle" x="195" y="-362.3" font-family="Times,serif" font-size="14.00">6 f</text>
<text text-anchor="middle" x="164.5" y="-387.8" font-family="Times,serif" font-size="14.00">4</text>
</g>
<!-- 4&#45;&gt;6 -->
<g id="edge7" class="edge">
<title>4&#45;&gt;6</title>
<path fill="none" stroke="black" d="M195,-434.8C195,-423.16 195,-407.55 195,-394.24"/>
<polygon fill="black" stroke="black" points="198.5,-394.18 195,-384.18 191.5,-394.18 198.5,-394.18"/>
<text text-anchor="middle" x="198.5" y="-405.8" font-family="Times,serif" font-size="14.00">1</text>
</g>
<!-- 9 -->
<g id="node3" class="node">
<title>9</title>
<ellipse fill="none" stroke="black" cx="34" cy="-105" rx="27" ry="18"/>
<text text-anchor="middle" x="34" y="-101.3" font-family="Times,serif" font-size="14.00">9 y</text>
<text text-anchor="middle" x="3.5" y="-126.8" font-family="Times,serif" font-size="14.00">7</text>
</g>
<!-- 11 -->
<g id="node10" class="node">
<title>11</title>
<ellipse fill="none" stroke="black" cx="142" cy="-18" rx="27" ry="18"/>
<text text-anchor="middle" x="142" y="-14.3" font-family="Times,serif" font-size="14.00">11 i</text>
<text text-anchor="middle" x="111.5" y="-39.8" font-family="Times,serif" font-size="14.00">7</text>
</g>
<!-- 9&#45;&gt;11 -->
<g id="edge1" class="edge">
<title>9&#45;&gt;11</title>
<path fill="none" stroke="black" d="M50.88,-90.72C68.71,-76.68 97.01,-54.41 117.34,-38.41"/>
<polygon fill="black" stroke="black" points="119.55,-41.12 125.24,-32.19 115.22,-35.62 119.55,-41.12"/>
<text text-anchor="middle" x="98.5" y="-57.8" font-family="Times,serif" font-size="14.00">1</text>
</g>
<!-- 3 -->
<g id="node4" class="node">
<title>3</title>
<ellipse fill="none" stroke="black" cx="250" cy="-192" rx="27" ry="18"/>
<text text-anchor="middle" x="250" y="-188.3" font-family="Times,serif" font-size="14.00">3 c</text>
<text text-anchor="middle" x="219.5" y="-213.8" font-family="Times,serif" font-size="14.00">1</text>
</g>
<!-- 5 -->
<g id="node7" class="node">
<title>5</title>
<ellipse fill="none" stroke="black" cx="250" cy="-105" rx="27" ry="18"/>
<text text-anchor="middle" x="250" y="-101.3" font-family="Times,serif" font-size="14.00">5 e</text>
<text text-anchor="middle" x="219.5" y="-126.8" font-family="Times,serif" font-size="14.00">4</text>
</g>
<!-- 3&#45;&gt;5 -->
<g id="edge13" class="edge">
<title>3&#45;&gt;5</title>
<path fill="none" stroke="black" d="M250,-173.8C250,-162.16 250,-146.55 250,-133.24"/>
<polygon fill="black" stroke="black" points="253.5,-133.18 250,-123.18 246.5,-133.18 253.5,-133.18"/>
<text text-anchor="middle" x="253.5" y="-144.8" font-family="Times,serif" font-size="14.00">3</text>
</g>
<!-- 8 -->
<g id="node5" class="node">
<title>8</title>
<ellipse fill="none" stroke="black" cx="106" cy="-105" rx="27" ry="18"/>
<text text-anchor="middle" x="106" y="-101.3" font-family="Times,serif" font-size="14.00">8 h</text>
<text text-anchor="middle" x="75.5" y="-126.8" font-family="Times,serif" font-size="14.00">6</text>
</g>
<!-- 8&#45;&gt;11 -->
<g id="edge10" class="edge">
<title>8&#45;&gt;11</title>
<path fill="none" stroke="black" d="M113.11,-87.21C118.22,-75.14 125.21,-58.64 131.03,-44.89"/>
<polygon fill="black" stroke="black" points="134.35,-46.04 135.02,-35.47 127.9,-43.31 134.35,-46.04"/>
<text text-anchor="middle" x="130.5" y="-57.8" font-family="Times,serif" font-size="14.00">1</text>
</g>
<!-- 10 -->
<g id="node6" class="node">
<title>10</title>
<ellipse fill="none" stroke="black" cx="178" cy="-105" rx="27" ry="18"/>
<text text-anchor="middle" x="178" y="-101.3" font-family="Times,serif" font-size="14.00">10 u</text>
<text text-anchor="middle" x="147.5" y="-126.8" font-family="Times,serif" font-size="14.00">8</text>
</g>
<!-- 10&#45;&gt;11 -->
<g id="edge15" class="edge">
<title>10&#45;&gt;11</title>
<path fill="none" stroke="black" d="M170.89,-87.21C165.78,-75.14 158.79,-58.64 152.97,-44.89"/>
<polygon fill="black" stroke="black" points="156.1,-43.31 148.98,-35.47 149.65,-46.04 156.1,-43.31"/>
<text text-anchor="middle" x="166.5" y="-57.8" font-family="Times,serif" font-size="14.00">1</text>
</g>
<!-- 5&#45;&gt;6 -->
<g id="edge9" class="edge">
<title>5&#45;&gt;6</title>
<path fill="none" stroke="black" d="M239.4,-121.72C231,-135.04 219.75,-154.95 214,-174 196.96,-230.48 194.4,-300.18 194.44,-337.81"/>
<polygon fill="black" stroke="black" points="190.95,-338 194.52,-347.97 197.95,-337.94 190.95,-338"/>
<text text-anchor="middle" x="205.5" y="-231.8" font-family="Times,serif" font-size="14.00">1</text>
</g>
<!-- 5&#45;&gt;11 -->
<g id="edge8" class="edge">
<title>5&#45;&gt;11</title>
<path fill="none" stroke="black" d="M233.12,-90.72C215.29,-76.68 186.99,-54.41 166.66,-38.41"/>
<polygon fill="black" stroke="black" points="168.78,-35.62 158.76,-32.19 164.45,-41.12 168.78,-35.62"/>
<text text-anchor="middle" x="206.5" y="-57.8" font-family="Times,serif" font-size="14.00">4</text>
</g>
<!-- 1 -->
<g id="node9" class="node">
<title>1</title>
<ellipse fill="none" stroke="red" cx="250" cy="-279" rx="27" ry="18"/>
<text text-anchor="middle" x="250" y="-275.3" font-family="Times,serif" font-size="14.00">1 a</text>
<text text-anchor="middle" x="211" y="-300.8" font-family="Times,serif" font-size="14.00">zero</text>
</g>
<!-- 6&#45;&gt;1 -->
<g id="edge5" class="edge">
<title>6&#45;&gt;1</title>
<path fill="none" stroke="black" d="M205.35,-349.01C213.49,-336.43 224.97,-318.68 234.26,-304.33"/>
<polygon fill="black" stroke="black" points="237.21,-306.21 239.7,-295.92 231.33,-302.41 237.21,-306.21"/>
<text text-anchor="middle" x="229.5" y="-318.8" font-family="Times,serif" font-size="14.00">1</text>
</g>
<!-- 7 -->
<g id="node11" class="node">
<title>7</title>
<ellipse fill="none" stroke="black" cx="132" cy="-192" rx="27" ry="18"/>
<text text-anchor="middle" x="132" y="-188.3" font-family="Times,serif" font-size="14.00">7 g</text>
<text text-anchor="middle" x="101.5" y="-213.8" font-family="Times,serif" font-size="14.00">5</text>
</g>
<!-- 6&#45;&gt;7 -->
<g id="edge6" class="edge">
<title>6&#45;&gt;7</title>
<path fill="none" stroke="black" d="M188.18,-348.31C185.86,-342.53 183.27,-336 181,-330 166.56,-291.88 150.86,-247.37 141.22,-219.69"/>
<polygon fill="black" stroke="black" points="144.42,-218.25 137.83,-209.95 137.81,-220.54 144.42,-218.25"/>
<text text-anchor="middle" x="172.5" y="-275.3" font-family="Times,serif" font-size="14.00">1</text>
</g>
<!-- 1&#45;&gt;2 -->
<g id="edge11" class="edge">
<title>1&#45;&gt;2</title>
<path fill="none" stroke="black" d="M249.08,-297.06C246.7,-341.03 240.35,-458.54 237.46,-511.93"/>
<polygon fill="black" stroke="black" points="233.96,-511.83 236.92,-522.01 240.95,-512.21 233.96,-511.83"/>
<text text-anchor="middle" x="246.5" y="-405.8" font-family="Times,serif" font-size="14.00">1</text>
</g>
<!-- 1&#45;&gt;3 -->
<g id="edge12" class="edge">
<title>1&#45;&gt;3</title>
<path fill="none" stroke="black" d="M250,-260.8C250,-249.16 250,-233.55 250,-220.24"/>
<polygon fill="black" stroke="black" points="253.5,-220.18 250,-210.18 246.5,-220.18 253.5,-220.18"/>
<text text-anchor="middle" x="253.5" y="-231.8" font-family="Times,serif" font-size="14.00">1</text>
</g>
<!-- 7&#45;&gt;9 -->
<g id="edge4" class="edge">
<title>7&#45;&gt;9</title>
<path fill="none" stroke="black" d="M116.25,-177.34C100.49,-163.67 76.03,-142.45 57.87,-126.71"/>
<polygon fill="black" stroke="black" points="59.88,-123.81 50.03,-119.91 55.29,-129.1 59.88,-123.81"/>
<text text-anchor="middle" x="92.5" y="-144.8" font-family="Times,serif" font-size="14.00">2</text>
</g>
<!-- 7&#45;&gt;8 -->
<g id="edge3" class="edge">
<title>7&#45;&gt;8</title>
<path fill="none" stroke="black" d="M126.86,-174.21C123.23,-162.33 118.29,-146.17 114.12,-132.56"/>
<polygon fill="black" stroke="black" points="117.4,-131.3 111.13,-122.76 110.7,-133.34 117.4,-131.3"/>
<text text-anchor="middle" x="124.5" y="-144.8" font-family="Times,serif" font-size="14.00">1</text>
</g>
<!-- 7&#45;&gt;10 -->
<g id="edge2" class="edge">
<title>7&#45;&gt;10</title>
<path fill="none" stroke="black" d="M140.87,-174.61C147.53,-162.3 156.77,-145.23 164.37,-131.19"/>
<polygon fill="black" stroke="black" points="167.63,-132.51 169.31,-122.05 161.48,-129.18 167.63,-132.51"/>
<text text-anchor="middle" x="161.5" y="-144.8" font-family="Times,serif" font-size="14.00">3</text>
</g>
</g>
</svg>
