<?xml version="1.0" encoding="UTF-8" standalone="no"?>
<!DOCTYPE svg PUBLIC "-//W3C//DTD SVG 1.1//EN"
 "http://www.w3.org/Graphics/SVG/1.1/DTD/svg11.dtd">
<!-- Generated by graphviz version 5.0.0 (0)
 -->
<!-- Title: di_graph Pages: 1 -->
<svg width="416pt" height="407pt"
 viewBox="0.00 0.00 416.00 407.00" xmlns="http://www.w3.org/2000/svg" xmlns:xlink="http://www.w3.org/1999/xlink">
<g id="graph0" class="graph" transform="scale(1 1) rotate(0) translate(4 403)">
<title>di_graph</title>
<polygon fill="white" stroke="transparent" points="-4,4 -4,-403 412,-403 412,4 -4,4"/>
<!-- 10 -->
<g id="node1" class="node">
<title>10</title>
<ellipse fill="none" stroke="black" cx="199" cy="-105" rx="27" ry="18"/>
<text text-anchor="middle" x="199" y="-101.3" font-family="Times,serif" font-size="14.00">10 u</text>
<text text-anchor="middle" x="168.5" y="-126.8" font-family="Times,serif" font-size="14.00">8</text>
</g>
<!-- 11 -->
<g id="node9" class="node">
<title>11</title>
<ellipse fill="none" stroke="black" cx="86" cy="-18" rx="27" ry="18"/>
<text text-anchor="middle" x="86" y="-14.3" font-family="Times,serif" font-size="14.00">11 i</text>
<text text-anchor="middle" x="55.5" y="-39.8" font-family="Times,serif" font-size="14.00">7</text>
</g>
<!-- 10&#45;&gt;11 -->
<g id="edge1" class="edge">
<title>10&#45;&gt;11</title>
<path fill="none" stroke="black" d="M181.84,-91.09C163.09,-76.99 132.86,-54.25 111.37,-38.09"/>
<polygon fill="black" stroke="black" points="113.42,-35.25 103.32,-32.03 109.21,-40.84 113.42,-35.25"/>
<text text-anchor="middle" x="152.5" y="-57.8" font-family="Times,serif" font-size="14.00">1</text>
</g>
<!-- 5 -->
<g id="node2" class="node">
<title>5</title>
<ellipse fill="none" stroke="black" cx="254" cy="-366" rx="27" ry="18"/>
<text text-anchor="middle" x="254" y="-362.3" font-family="Times,serif" font-size="14.00">5 e</text>
<text text-anchor="middle" x="223.5" y="-387.8" font-family="Times,serif" font-size="14.00">4</text>
</g>
<!-- 6 -->
<g id="node4" class="node">
<title>6</title>
<ellipse fill="none" stroke="black" cx="254" cy="-279" rx="27" ry="18"/>
<text text-anchor="middle" x="254" y="-275.3" font-family="Times,serif" font-size="14.00">6 f</text>
<text text-anchor="middle" x="223.5" y="-300.8" font-family="Times,serif" font-size="14.00">4</text>
</g>
<!-- 5&#45;&gt;6 -->
<g id="edge2" class="edge">
<title>5&#45;&gt;6</title>
<path fill="none" stroke="black" d="M254,-347.8C254,-336.16 254,-320.55 254,-307.24"/>
<polygon fill="black" stroke="black" points="257.5,-307.18 254,-297.18 250.5,-307.18 257.5,-307.18"/>
<text text-anchor="middle" x="257.5" y="-318.8" font-family="Times,serif" font-size="14.00">1</text>
</g>
<!-- 5&#45;&gt;11 -->
<g id="edge3" class="edge">
<title>5&#45;&gt;11</title>
<path fill="none" stroke="black" d="M227.3,-361.84C162.08,-353.37 0,-327.55 0,-280 0,-280 0,-280 0,-104 0,-71.98 30.52,-47.95 55.2,-33.74"/>
<polygon fill="black" stroke="black" points="57.19,-36.65 64.3,-28.79 53.84,-30.5 57.19,-36.65"/>
<text text-anchor="middle" x="3.5" y="-188.3" font-family="Times,serif" font-size="14.00">4</text>
</g>
<!-- 2 -->
<g id="node3" class="node">
<title>2</title>
<ellipse fill="none" stroke="black" cx="309" cy="-105" rx="27" ry="18"/>
<text text-anchor="middle" x="309" y="-101.3" font-family="Times,serif" font-size="14.00">2 b</text>
<text text-anchor="middle" x="278.5" y="-126.8" font-family="Times,serif" font-size="14.00">1</text>
</g>
<!-- 4 -->
<g id="node8" class="node">
<title>4</title>
<ellipse fill="none" stroke="black" cx="276" cy="-18" rx="27" ry="18"/>
<text text-anchor="middle" x="276" y="-14.3" font-family="Times,serif" font-size="14.00">4 d</text>
<text text-anchor="middle" x="245.5" y="-39.8" font-family="Times,serif" font-size="14.00">3</text>
</g>
<!-- 2&#45;&gt;4 -->
<g id="edge12" class="edge">
<title>2&#45;&gt;4</title>
<path fill="none" stroke="black" d="M302.48,-87.21C297.82,-75.22 291.47,-58.85 286.16,-45.16"/>
<polygon fill="black" stroke="black" points="289.39,-43.81 282.51,-35.76 282.86,-46.35 289.39,-43.81"/>
<text text-anchor="middle" x="297.5" y="-57.8" font-family="Times,serif" font-size="14.00">2</text>
</g>
<!-- 1 -->
<g id="node5" class="node">
<title>1</title>
<ellipse fill="none" stroke="red" cx="309" cy="-192" rx="27" ry="18"/>
<text text-anchor="middle" x="309" y="-188.3" font-family="Times,serif" font-size="14.00">1 a</text>
<text text-anchor="middle" x="270" y="-213.8" font-family="Times,serif" font-size="14.00">zero</text>
</g>
<!-- 6&#45;&gt;1 -->
<g id="edge11" class="edge">
<title>6&#45;&gt;1</title>
<path fill="none" stroke="black" d="M264.35,-262.01C272.49,-249.43 283.97,-231.68 293.26,-217.33"/>
<polygon fill="black" stroke="black" points="296.21,-219.21 298.7,-208.92 290.33,-215.41 296.21,-219.21"/>
<text text-anchor="middle" x="287.5" y="-231.8" font-family="Times,serif" font-size="14.00">1</text>
</g>
<!-- 7 -->
<g id="node6" class="node">
<title>7</title>
<ellipse fill="none" stroke="black" cx="163" cy="-192" rx="27" ry="18"/>
<text text-anchor="middle" x="163" y="-188.3" font-family="Times,serif" font-size="14.00">7 g</text>
<text text-anchor="middle" x="132.5" y="-213.8" font-family="Times,serif" font-size="14.00">5</text>
</g>
<!-- 6&#45;&gt;7 -->
<g id="edge10" class="edge">
<title>6&#45;&gt;7</title>
<path fill="none" stroke="black" d="M238.97,-263.96C224.48,-250.43 202.36,-229.77 185.72,-214.22"/>
<polygon fill="black" stroke="black" points="187.75,-211.33 178.05,-207.06 182.97,-216.44 187.75,-211.33"/>
<text text-anchor="middle" x="216.5" y="-231.8" font-family="Times,serif" font-size="14.00">1</text>
</g>
<!-- 1&#45;&gt;2 -->
<g id="edge8" class="edge">
<title>1&#45;&gt;2</title>
<path fill="none" stroke="black" d="M309,-173.8C309,-162.16 309,-146.55 309,-133.24"/>
<polygon fill="black" stroke="black" points="312.5,-133.18 309,-123.18 305.5,-133.18 312.5,-133.18"/>
<text text-anchor="middle" x="312.5" y="-144.8" font-family="Times,serif" font-size="14.00">1</text>
</g>
<!-- 3 -->
<g id="node10" class="node">
<title>3</title>
<ellipse fill="none" stroke="black" cx="381" cy="-105" rx="27" ry="18"/>
<text text-anchor="middle" x="381" y="-101.3" font-family="Times,serif" font-size="14.00">3 c</text>
<text text-anchor="middle" x="350.5" y="-126.8" font-family="Times,serif" font-size="14.00">1</text>
</g>
<!-- 1&#45;&gt;3 -->
<g id="edge9" class="edge">
<title>1&#45;&gt;3</title>
<path fill="none" stroke="black" d="M321.83,-175.65C330.12,-165.74 341.17,-152.58 351,-141 354.41,-136.98 358.05,-132.72 361.57,-128.6"/>
<polygon fill="black" stroke="black" points="364.27,-130.83 368.12,-120.96 358.95,-126.27 364.27,-130.83"/>
<text text-anchor="middle" x="354.5" y="-144.8" font-family="Times,serif" font-size="14.00">1</text>
</g>
<!-- 7&#45;&gt;10 -->
<g id="edge5" class="edge">
<title>7&#45;&gt;10</title>
<path fill="none" stroke="black" d="M170.11,-174.21C175.22,-162.14 182.21,-145.64 188.03,-131.89"/>
<polygon fill="black" stroke="black" points="191.35,-133.04 192.02,-122.47 184.9,-130.31 191.35,-133.04"/>
<text text-anchor="middle" x="186.5" y="-144.8" font-family="Times,serif" font-size="14.00">3</text>
</g>
<!-- 8 -->
<g id="node7" class="node">
<title>8</title>
<ellipse fill="none" stroke="black" cx="55" cy="-105" rx="27" ry="18"/>
<text text-anchor="middle" x="55" y="-101.3" font-family="Times,serif" font-size="14.00">8 h</text>
<text text-anchor="middle" x="24.5" y="-126.8" font-family="Times,serif" font-size="14.00">6</text>
</g>
<!-- 7&#45;&gt;8 -->
<g id="edge6" class="edge">
<title>7&#45;&gt;8</title>
<path fill="none" stroke="black" d="M146.12,-177.72C128.29,-163.68 99.99,-141.41 79.66,-125.41"/>
<polygon fill="black" stroke="black" points="81.78,-122.62 71.76,-119.19 77.45,-128.12 81.78,-122.62"/>
<text text-anchor="middle" x="118.5" y="-144.8" font-family="Times,serif" font-size="14.00">1</text>
</g>
<!-- 9 -->
<g id="node11" class="node">
<title>9</title>
<ellipse fill="none" stroke="black" cx="127" cy="-105" rx="27" ry="18"/>
<text text-anchor="middle" x="127" y="-101.3" font-family="Times,serif" font-size="14.00">9 y</text>
<text text-anchor="middle" x="96.5" y="-126.8" font-family="Times,serif" font-size="14.00">7</text>
</g>
<!-- 7&#45;&gt;9 -->
<g id="edge4" class="edge">
<title>7&#45;&gt;9</title>
<path fill="none" stroke="black" d="M155.89,-174.21C150.78,-162.14 143.79,-145.64 137.97,-131.89"/>
<polygon fill="black" stroke="black" points="141.1,-130.31 133.98,-122.47 134.65,-133.04 141.1,-130.31"/>
<text text-anchor="middle" x="150.5" y="-144.8" font-family="Times,serif" font-size="14.00">2</text>
</g>
<!-- 8&#45;&gt;11 -->
<g id="edge15" class="edge">
<title>8&#45;&gt;11</title>
<path fill="none" stroke="black" d="M61.12,-87.21C65.5,-75.22 71.47,-58.85 76.46,-45.16"/>
<polygon fill="black" stroke="black" points="79.75,-46.35 79.89,-35.76 73.17,-43.95 79.75,-46.35"/>
<text text-anchor="middle" x="76.5" y="-57.8" font-family="Times,serif" font-size="14.00">1</text>
</g>
<!-- 4&#45;&gt;6 -->
<g id="edge14" class="edge">
<title>4&#45;&gt;6</title>
<path fill="none" stroke="black" d="M274.55,-36.06C270.82,-80.03 260.83,-197.54 256.3,-250.93"/>
<polygon fill="black" stroke="black" points="252.8,-250.75 255.44,-261.01 259.78,-251.34 252.8,-250.75"/>
<text text-anchor="middle" x="268.5" y="-144.8" font-family="Times,serif" font-size="14.00">1</text>
</g>
<!-- 3&#45;&gt;5 -->
<g id="edge7" class="edge">
<title>3&#45;&gt;5</title>
<path fill="none" stroke="black" d="M376.25,-122.97C370.15,-143.89 358.68,-180.33 345,-210 322.74,-258.28 289.8,-310.95 270.26,-340.78"/>
<polygon fill="black" stroke="black" points="267.24,-339 264.65,-349.28 273.08,-342.86 267.24,-339"/>
<text text-anchor="middle" x="339.5" y="-231.8" font-family="Times,serif" font-size="14.00">3</text>
</g>
<!-- 9&#45;&gt;11 -->
<g id="edge13" class="edge">
<title>9&#45;&gt;11</title>
<path fill="none" stroke="black" d="M119.09,-87.61C113.2,-75.38 105.03,-58.44 98.28,-44.46"/>
<polygon fill="black" stroke="black" points="101.38,-42.82 93.88,-35.34 95.07,-45.87 101.38,-42.82"/>
<text text-anchor="middle" x="111.5" y="-57.8" font-family="Times,serif" font-size="14.00">1</text>
</g>
</g>
</svg>
