<?xml version="1.0" encoding="UTF-8" standalone="no"?>
<!DOCTYPE svg PUBLIC "-//W3C//DTD SVG 1.1//EN"
 "http://www.w3.org/Graphics/SVG/1.1/DTD/svg11.dtd">
<!-- Generated by graphviz version 5.0.0 (0)
 -->
<!-- Title: di_graph Pages: 1 -->
<svg width="206pt" height="566pt"
 viewBox="0.00 0.00 206.00 566.00" xmlns="http://www.w3.org/2000/svg" xmlns:xlink="http://www.w3.org/1999/xlink">
<g id="graph0" class="graph" transform="scale(1 1) rotate(0) translate(4 562)">
<title>di_graph</title>
<polygon fill="white" stroke="transparent" points="-4,4 -4,-562 202,-562 202,4 -4,4"/>
<!-- 7 -->
<g id="node1" class="node">
<title>7</title>
<ellipse fill="none" stroke="black" cx="54" cy="-192" rx="27" ry="18"/>
<text text-anchor="middle" x="54" y="-188.3" font-family="Times,serif" font-size="14.00">7 e</text>
</g>
<!-- 9 -->
<g id="node5" class="node">
<title>9</title>
<ellipse fill="none" stroke="black" cx="90" cy="-105" rx="27" ry="18"/>
<text text-anchor="middle" x="90" y="-101.3" font-family="Times,serif" font-size="14.00">9 e</text>
</g>
<!-- 7&#45;&gt;9 -->
<g id="edge8" class="edge">
<title>7&#45;&gt;9</title>
<path fill="none" stroke="black" d="M61.11,-174.21C66.22,-162.14 73.21,-145.64 79.03,-131.89"/>
<polygon fill="black" stroke="black" points="82.35,-133.04 83.02,-122.47 75.9,-130.31 82.35,-133.04"/>
<text text-anchor="middle" x="78.5" y="-144.8" font-family="Times,serif" font-size="14.00">e</text>
</g>
<!-- 2 -->
<g id="node2" class="node">
<title>2</title>
<ellipse fill="none" stroke="black" cx="27" cy="-453" rx="27" ry="18"/>
<text text-anchor="middle" x="27" y="-449.3" font-family="Times,serif" font-size="14.00">2 e</text>
</g>
<!-- 5 -->
<g id="node3" class="node">
<title>5</title>
<ellipse fill="none" stroke="black" cx="121" cy="-366" rx="27" ry="18"/>
<text text-anchor="middle" x="121" y="-362.3" font-family="Times,serif" font-size="14.00">5 e</text>
</g>
<!-- 2&#45;&gt;5 -->
<g id="edge15" class="edge">
<title>2&#45;&gt;5</title>
<path fill="none" stroke="black" d="M42.52,-437.96C57.63,-424.31 80.76,-403.39 98,-387.8"/>
<polygon fill="black" stroke="black" points="100.38,-390.36 105.45,-381.06 95.69,-385.17 100.38,-390.36"/>
<text text-anchor="middle" x="83.5" y="-405.8" font-family="Times,serif" font-size="14.00">e</text>
</g>
<!-- 6 -->
<g id="node10" class="node">
<title>6</title>
<ellipse fill="none" stroke="black" cx="90" cy="-279" rx="27" ry="18"/>
<text text-anchor="middle" x="90" y="-275.3" font-family="Times,serif" font-size="14.00">6 e</text>
</g>
<!-- 2&#45;&gt;6 -->
<g id="edge14" class="edge">
<title>2&#45;&gt;6</title>
<path fill="none" stroke="black" d="M32.83,-435.05C41.82,-409.1 59.72,-357.99 76,-315 77.1,-312.09 78.27,-309.06 79.46,-306.05"/>
<polygon fill="black" stroke="black" points="82.74,-307.27 83.18,-296.69 76.23,-304.69 82.74,-307.27"/>
<text text-anchor="middle" x="67.5" y="-362.3" font-family="Times,serif" font-size="14.00">e</text>
</g>
<!-- 5&#45;&gt;6 -->
<g id="edge6" class="edge">
<title>5&#45;&gt;6</title>
<path fill="none" stroke="black" d="M114.88,-348.21C110.5,-336.22 104.53,-319.85 99.54,-306.16"/>
<polygon fill="black" stroke="black" points="102.83,-304.95 96.11,-296.76 96.25,-307.35 102.83,-304.95"/>
<text text-anchor="middle" x="110.5" y="-318.8" font-family="Times,serif" font-size="14.00">e</text>
</g>
<!-- 1 -->
<g id="node4" class="node">
<title>1</title>
<ellipse fill="none" stroke="black" cx="99" cy="-540" rx="27" ry="18"/>
<text text-anchor="middle" x="99" y="-536.3" font-family="Times,serif" font-size="14.00">1 e</text>
</g>
<!-- 1&#45;&gt;2 -->
<g id="edge3" class="edge">
<title>1&#45;&gt;2</title>
<path fill="none" stroke="black" d="M86.13,-523.8C75.07,-510.75 58.96,-491.74 46.35,-476.85"/>
<polygon fill="black" stroke="black" points="48.89,-474.43 39.76,-469.06 43.55,-478.96 48.89,-474.43"/>
<text text-anchor="middle" x="71.5" y="-492.8" font-family="Times,serif" font-size="14.00">e</text>
</g>
<!-- 4 -->
<g id="node6" class="node">
<title>4</title>
<ellipse fill="none" stroke="black" cx="99" cy="-453" rx="27" ry="18"/>
<text text-anchor="middle" x="99" y="-449.3" font-family="Times,serif" font-size="14.00">4 e</text>
</g>
<!-- 1&#45;&gt;4 -->
<g id="edge5" class="edge">
<title>1&#45;&gt;4</title>
<path fill="none" stroke="black" d="M99,-521.8C99,-510.16 99,-494.55 99,-481.24"/>
<polygon fill="black" stroke="black" points="102.5,-481.18 99,-471.18 95.5,-481.18 102.5,-481.18"/>
<text text-anchor="middle" x="102.5" y="-492.8" font-family="Times,serif" font-size="14.00">e</text>
</g>
<!-- 3 -->
<g id="node8" class="node">
<title>3</title>
<ellipse fill="none" stroke="black" cx="171" cy="-453" rx="27" ry="18"/>
<text text-anchor="middle" x="171" y="-449.3" font-family="Times,serif" font-size="14.00">3 e</text>
</g>
<!-- 1&#45;&gt;3 -->
<g id="edge4" class="edge">
<title>1&#45;&gt;3</title>
<path fill="none" stroke="black" d="M111.87,-523.8C122.93,-510.75 139.04,-491.74 151.65,-476.85"/>
<polygon fill="black" stroke="black" points="154.45,-478.96 158.24,-469.06 149.11,-474.43 154.45,-478.96"/>
<text text-anchor="middle" x="142.5" y="-492.8" font-family="Times,serif" font-size="14.00">e</text>
</g>
<!-- 10 -->
<g id="node9" class="node">
<title>10</title>
<ellipse fill="none" stroke="black" cx="90" cy="-18" rx="27" ry="18"/>
<text text-anchor="middle" x="90" y="-14.3" font-family="Times,serif" font-size="14.00">10 e</text>
</g>
<!-- 9&#45;&gt;10 -->
<g id="edge7" class="edge">
<title>9&#45;&gt;10</title>
<path fill="none" stroke="black" d="M90,-86.8C90,-75.16 90,-59.55 90,-46.24"/>
<polygon fill="black" stroke="black" points="93.5,-46.18 90,-36.18 86.5,-46.18 93.5,-46.18"/>
<text text-anchor="middle" x="93.5" y="-57.8" font-family="Times,serif" font-size="14.00">e</text>
</g>
<!-- 4&#45;&gt;5 -->
<g id="edge13" class="edge">
<title>4&#45;&gt;5</title>
<path fill="none" stroke="black" d="M103.35,-435.21C106.4,-423.41 110.55,-407.38 114.06,-393.82"/>
<polygon fill="black" stroke="black" points="117.47,-394.61 116.59,-384.05 110.69,-392.85 117.47,-394.61"/>
<text text-anchor="middle" x="114.5" y="-405.8" font-family="Times,serif" font-size="14.00">e</text>
</g>
<!-- 4&#45;&gt;6 -->
<g id="edge12" class="edge">
<title>4&#45;&gt;6</title>
<path fill="none" stroke="black" d="M92.29,-435.28C87.23,-421.72 80.71,-401.96 78,-384 74.06,-357.86 78.47,-327.86 83.01,-306.82"/>
<polygon fill="black" stroke="black" points="86.44,-307.51 85.29,-296.98 79.62,-305.93 86.44,-307.51"/>
<text text-anchor="middle" x="81.5" y="-362.3" font-family="Times,serif" font-size="14.00">e</text>
</g>
<!-- 8 -->
<g id="node7" class="node">
<title>8</title>
<ellipse fill="none" stroke="black" cx="126" cy="-192" rx="27" ry="18"/>
<text text-anchor="middle" x="126" y="-188.3" font-family="Times,serif" font-size="14.00">8 e</text>
</g>
<!-- 8&#45;&gt;9 -->
<g id="edge11" class="edge">
<title>8&#45;&gt;9</title>
<path fill="none" stroke="black" d="M118.89,-174.21C113.78,-162.14 106.79,-145.64 100.97,-131.89"/>
<polygon fill="black" stroke="black" points="104.1,-130.31 96.98,-122.47 97.65,-133.04 104.1,-130.31"/>
<text text-anchor="middle" x="113.5" y="-144.8" font-family="Times,serif" font-size="14.00">e</text>
</g>
<!-- 3&#45;&gt;5 -->
<g id="edge2" class="edge">
<title>3&#45;&gt;5</title>
<path fill="none" stroke="black" d="M161.6,-436.01C154.26,-423.55 143.95,-406.01 135.55,-391.74"/>
<polygon fill="black" stroke="black" points="138.45,-389.76 130.36,-382.92 132.42,-393.31 138.45,-389.76"/>
<text text-anchor="middle" x="151.5" y="-405.8" font-family="Times,serif" font-size="14.00">e</text>
</g>
<!-- 3&#45;&gt;6 -->
<g id="edge1" class="edge">
<title>3&#45;&gt;6</title>
<path fill="none" stroke="black" d="M171.92,-434.84C172.37,-413.41 170.8,-376.14 157,-348 147.46,-328.54 130.18,-311.22 115.56,-298.92"/>
<polygon fill="black" stroke="black" points="117.75,-296.2 107.78,-292.63 113.35,-301.64 117.75,-296.2"/>
<text text-anchor="middle" x="171.5" y="-362.3" font-family="Times,serif" font-size="14.00">e</text>
</g>
<!-- 6&#45;&gt;7 -->
<g id="edge10" class="edge">
<title>6&#45;&gt;7</title>
<path fill="none" stroke="black" d="M82.89,-261.21C77.78,-249.14 70.79,-232.64 64.97,-218.89"/>
<polygon fill="black" stroke="black" points="68.1,-217.31 60.98,-209.47 61.65,-220.04 68.1,-217.31"/>
<text text-anchor="middle" x="78.5" y="-231.8" font-family="Times,serif" font-size="14.00">e</text>
</g>
<!-- 6&#45;&gt;8 -->
<g id="edge9" class="edge">
<title>6&#45;&gt;8</title>
<path fill="none" stroke="black" d="M97.11,-261.21C102.22,-249.14 109.21,-232.64 115.03,-218.89"/>
<polygon fill="black" stroke="black" points="118.35,-220.04 119.02,-209.47 111.9,-217.31 118.35,-220.04"/>
<text text-anchor="middle" x="113.5" y="-231.8" font-family="Times,serif" font-size="14.00">e</text>
</g>
</g>
</svg>
