<?xml version="1.0" encoding="UTF-8" standalone="no"?>
<!DOCTYPE svg PUBLIC "-//W3C//DTD SVG 1.1//EN"
 "http://www.w3.org/Graphics/SVG/1.1/DTD/svg11.dtd">
<!-- Generated by graphviz version 2.49.3 (20211023.0002)
 -->
<!-- Title: di_graph Pages: 1 -->
<svg width="99pt" height="188pt"
 viewBox="0.00 0.00 98.99 188.00" xmlns="http://www.w3.org/2000/svg" xmlns:xlink="http://www.w3.org/1999/xlink">
<g id="graph0" class="graph" transform="scale(1 1) rotate(0) translate(4 184)">
<title>di_graph</title>
<polygon fill="white" stroke="transparent" points="-4,4 -4,-184 94.99,-184 94.99,4 -4,4"/>
<!-- employer -->
<g id="node1" class="node">
<title>employer</title>
<ellipse fill="none" stroke="black" cx="45.5" cy="-162" rx="44.39" ry="18"/>
<text text-anchor="middle" x="45.5" y="-158.3" font-family="Times New Roman,serif" font-size="14.00">employer</text>
</g>
<!-- company -->
<g id="node2" class="node">
<title>company</title>
<ellipse fill="none" stroke="black" cx="45.5" cy="-90" rx="44.39" ry="18"/>
<text text-anchor="middle" x="45.5" y="-86.3" font-family="Times New Roman,serif" font-size="14.00">company</text>
</g>
<!-- employer&#45;&gt;company -->
<g id="edge1" class="edge">
<title>employer&#45;&gt;company</title>
<path fill="none" stroke="black" d="M45.5,-143.7C45.5,-135.98 45.5,-126.71 45.5,-118.11"/>
<polygon fill="black" stroke="black" points="49,-118.1 45.5,-108.1 42,-118.1 49,-118.1"/>
</g>
<!-- employee -->
<g id="node3" class="node">
<title>employee</title>
<ellipse fill="none" stroke="black" cx="45.5" cy="-18" rx="45.49" ry="18"/>
<text text-anchor="middle" x="45.5" y="-14.3" font-family="Times New Roman,serif" font-size="14.00">employee</text>
</g>
<!-- company&#45;&gt;employee -->
<g id="edge2" class="edge">
<title>company&#45;&gt;employee</title>
<path fill="none" stroke="black" d="M45.5,-71.7C45.5,-63.98 45.5,-54.71 45.5,-46.11"/>
<polygon fill="black" stroke="black" points="49,-46.1 45.5,-36.1 42,-46.1 49,-46.1"/>
</g>
</g>
</svg>
