<?xml version="1.0" encoding="UTF-8" standalone="no"?>
<!DOCTYPE svg PUBLIC "-//W3C//DTD SVG 1.1//EN"
 "http://www.w3.org/Graphics/SVG/1.1/DTD/svg11.dtd">
<!-- Generated by graphviz version 5.0.0 (0)
 -->
<!-- Title: di_graph Pages: 1 -->
<svg width="416pt" height="392pt"
 viewBox="0.00 0.00 416.00 392.00" xmlns="http://www.w3.org/2000/svg" xmlns:xlink="http://www.w3.org/1999/xlink">
<g id="graph0" class="graph" transform="scale(1 1) rotate(0) translate(4 388)">
<title>di_graph</title>
<polygon fill="white" stroke="transparent" points="-4,4 -4,-388 412,-388 412,4 -4,4"/>
<!-- 7 -->
<g id="node1" class="node">
<title>7</title>
<ellipse fill="none" stroke="green" cx="163" cy="-192" rx="27" ry="18"/>
<text text-anchor="middle" x="163" y="-188.3" font-family="Times,serif" font-size="14.00">7 </text>
</g>
<!-- 8 -->
<g id="node3" class="node">
<title>8</title>
<ellipse fill="none" stroke="green" cx="55" cy="-105" rx="27" ry="18"/>
<text text-anchor="middle" x="55" y="-101.3" font-family="Times,serif" font-size="14.00">8 </text>
</g>
<!-- 7&#45;&gt;8 -->
<g id="edge14" class="edge">
<title>7&#45;&gt;8</title>
<path fill="none" stroke="black" d="M146.12,-177.72C128.29,-163.68 99.99,-141.41 79.66,-125.41"/>
<polygon fill="black" stroke="black" points="81.78,-122.62 71.76,-119.19 77.45,-128.12 81.78,-122.62"/>
<text text-anchor="middle" x="119.5" y="-144.8" font-family="Times,serif" font-size="14.00">1</text>
</g>
<!-- 9 -->
<g id="node4" class="node">
<title>9</title>
<ellipse fill="none" stroke="black" cx="127" cy="-105" rx="27" ry="18"/>
<text text-anchor="middle" x="127" y="-101.3" font-family="Times,serif" font-size="14.00">9 </text>
</g>
<!-- 7&#45;&gt;9 -->
<g id="edge13" class="edge">
<title>7&#45;&gt;9</title>
<path fill="none" stroke="black" stroke-dasharray="1,5" d="M155.89,-174.21C150.78,-162.14 143.79,-145.64 137.97,-131.89"/>
<polygon fill="black" stroke="black" points="141.1,-130.31 133.98,-122.47 134.65,-133.04 141.1,-130.31"/>
<text text-anchor="middle" x="151.5" y="-144.8" font-family="Times,serif" font-size="14.00">2</text>
</g>
<!-- 10 -->
<g id="node7" class="node">
<title>10</title>
<ellipse fill="none" stroke="black" cx="199" cy="-105" rx="27" ry="18"/>
<text text-anchor="middle" x="199" y="-101.3" font-family="Times,serif" font-size="14.00">10 </text>
</g>
<!-- 7&#45;&gt;10 -->
<g id="edge15" class="edge">
<title>7&#45;&gt;10</title>
<path fill="none" stroke="black" stroke-dasharray="1,5" d="M170.11,-174.21C175.22,-162.14 182.21,-145.64 188.03,-131.89"/>
<polygon fill="black" stroke="black" points="191.35,-133.04 192.02,-122.47 184.9,-130.31 191.35,-133.04"/>
<text text-anchor="middle" x="187.5" y="-144.8" font-family="Times,serif" font-size="14.00">3</text>
</g>
<!-- 3 -->
<g id="node2" class="node">
<title>3</title>
<ellipse fill="none" stroke="black" cx="381" cy="-105" rx="27" ry="18"/>
<text text-anchor="middle" x="381" y="-101.3" font-family="Times,serif" font-size="14.00">3 </text>
</g>
<!-- 5 -->
<g id="node10" class="node">
<title>5</title>
<ellipse fill="none" stroke="black" cx="254" cy="-366" rx="27" ry="18"/>
<text text-anchor="middle" x="254" y="-362.3" font-family="Times,serif" font-size="14.00">5 </text>
</g>
<!-- 3&#45;&gt;5 -->
<g id="edge1" class="edge">
<title>3&#45;&gt;5</title>
<path fill="none" stroke="black" stroke-dasharray="1,5" d="M376.25,-122.97C370.15,-143.89 358.68,-180.33 345,-210 322.74,-258.28 289.8,-310.95 270.26,-340.78"/>
<polygon fill="black" stroke="black" points="267.24,-339 264.65,-349.28 273.08,-342.86 267.24,-339"/>
<text text-anchor="middle" x="339.5" y="-231.8" font-family="Times,serif" font-size="14.00">3</text>
</g>
<!-- 11 -->
<g id="node6" class="node">
<title>11</title>
<ellipse fill="none" stroke="green" stroke-width="2" cx="91" cy="-18" rx="27" ry="18"/>
<text text-anchor="middle" x="91" y="-14.3" font-family="Times,serif" font-size="14.00">11 </text>
</g>
<!-- 8&#45;&gt;11 -->
<g id="edge3" class="edge">
<title>8&#45;&gt;11</title>
<path fill="none" stroke="black" d="M62.11,-87.21C67.22,-75.14 74.21,-58.64 80.03,-44.89"/>
<polygon fill="black" stroke="black" points="83.35,-46.04 84.02,-35.47 76.9,-43.31 83.35,-46.04"/>
<text text-anchor="middle" x="79.5" y="-57.8" font-family="Times,serif" font-size="14.00">1</text>
</g>
<!-- 9&#45;&gt;11 -->
<g id="edge7" class="edge">
<title>9&#45;&gt;11</title>
<path fill="none" stroke="black" stroke-dasharray="1,5" d="M119.89,-87.21C114.78,-75.14 107.79,-58.64 101.97,-44.89"/>
<polygon fill="black" stroke="black" points="105.1,-43.31 97.98,-35.47 98.65,-46.04 105.1,-43.31"/>
<text text-anchor="middle" x="115.5" y="-57.8" font-family="Times,serif" font-size="14.00">1</text>
</g>
<!-- 6 -->
<g id="node5" class="node">
<title>6</title>
<ellipse fill="none" stroke="green" cx="254" cy="-279" rx="27" ry="18"/>
<text text-anchor="middle" x="254" y="-275.3" font-family="Times,serif" font-size="14.00">6 </text>
</g>
<!-- 6&#45;&gt;7 -->
<g id="edge8" class="edge">
<title>6&#45;&gt;7</title>
<path fill="none" stroke="black" d="M238.97,-263.96C224.48,-250.43 202.36,-229.77 185.72,-214.22"/>
<polygon fill="black" stroke="black" points="187.75,-211.33 178.05,-207.06 182.97,-216.44 187.75,-211.33"/>
<text text-anchor="middle" x="217.5" y="-231.8" font-family="Times,serif" font-size="14.00">1</text>
</g>
<!-- 1 -->
<g id="node11" class="node">
<title>1</title>
<ellipse fill="none" stroke="green" stroke-width="2" cx="309" cy="-192" rx="27" ry="18"/>
<text text-anchor="middle" x="309" y="-188.3" font-family="Times,serif" font-size="14.00">1 </text>
</g>
<!-- 6&#45;&gt;1 -->
<g id="edge9" class="edge">
<title>6&#45;&gt;1</title>
<path fill="none" stroke="black" stroke-dasharray="1,5" d="M264.35,-262.01C272.49,-249.43 283.97,-231.68 293.26,-217.33"/>
<polygon fill="black" stroke="black" points="296.21,-219.21 298.7,-208.92 290.33,-215.41 296.21,-219.21"/>
<text text-anchor="middle" x="287.5" y="-231.8" font-family="Times,serif" font-size="14.00">1</text>
</g>
<!-- 10&#45;&gt;11 -->
<g id="edge10" class="edge">
<title>10&#45;&gt;11</title>
<path fill="none" stroke="black" stroke-dasharray="1,5" d="M182.12,-90.72C164.29,-76.68 135.99,-54.41 115.66,-38.41"/>
<polygon fill="black" stroke="black" points="117.78,-35.62 107.76,-32.19 113.45,-41.12 117.78,-35.62"/>
<text text-anchor="middle" x="155.5" y="-57.8" font-family="Times,serif" font-size="14.00">1</text>
</g>
<!-- 2 -->
<g id="node8" class="node">
<title>2</title>
<ellipse fill="none" stroke="green" cx="309" cy="-105" rx="27" ry="18"/>
<text text-anchor="middle" x="309" y="-101.3" font-family="Times,serif" font-size="14.00">2 </text>
</g>
<!-- 4 -->
<g id="node9" class="node">
<title>4</title>
<ellipse fill="none" stroke="green" cx="270" cy="-18" rx="27" ry="18"/>
<text text-anchor="middle" x="270" y="-14.3" font-family="Times,serif" font-size="14.00">4 </text>
</g>
<!-- 2&#45;&gt;4 -->
<g id="edge2" class="edge">
<title>2&#45;&gt;4</title>
<path fill="none" stroke="black" d="M301.48,-87.61C295.87,-75.38 288.1,-58.44 281.68,-44.46"/>
<polygon fill="black" stroke="black" points="284.85,-42.97 277.5,-35.34 278.49,-45.89 284.85,-42.97"/>
<text text-anchor="middle" x="294.5" y="-57.8" font-family="Times,serif" font-size="14.00">2</text>
</g>
<!-- 4&#45;&gt;6 -->
<g id="edge6" class="edge">
<title>4&#45;&gt;6</title>
<path fill="none" stroke="black" d="M268.95,-36.06C266.23,-80.03 258.97,-197.54 255.67,-250.93"/>
<polygon fill="black" stroke="black" points="252.17,-250.81 255.05,-261.01 259.16,-251.24 252.17,-250.81"/>
<text text-anchor="middle" x="265.5" y="-144.8" font-family="Times,serif" font-size="14.00">1</text>
</g>
<!-- 5&#45;&gt;6 -->
<g id="edge11" class="edge">
<title>5&#45;&gt;6</title>
<path fill="none" stroke="black" stroke-dasharray="1,5" d="M254,-347.8C254,-336.16 254,-320.55 254,-307.24"/>
<polygon fill="black" stroke="black" points="257.5,-307.18 254,-297.18 250.5,-307.18 257.5,-307.18"/>
<text text-anchor="middle" x="257.5" y="-318.8" font-family="Times,serif" font-size="14.00">1</text>
</g>
<!-- 5&#45;&gt;11 -->
<g id="edge12" class="edge">
<title>5&#45;&gt;11</title>
<path fill="none" stroke="black" stroke-dasharray="1,5" d="M227.3,-361.84C162.08,-353.37 0,-327.55 0,-280 0,-280 0,-280 0,-104 0,-70.69 32.96,-46.69 59.21,-32.85"/>
<polygon fill="black" stroke="black" points="61.12,-35.81 68.51,-28.22 57.99,-29.55 61.12,-35.81"/>
<text text-anchor="middle" x="3.5" y="-188.3" font-family="Times,serif" font-size="14.00">4</text>
</g>
<!-- 1&#45;&gt;3 -->
<g id="edge5" class="edge">
<title>1&#45;&gt;3</title>
<path fill="none" stroke="black" stroke-dasharray="1,5" d="M321.87,-175.8C332.93,-162.75 349.04,-143.74 361.65,-128.85"/>
<polygon fill="black" stroke="black" points="364.45,-130.96 368.24,-121.06 359.11,-126.43 364.45,-130.96"/>
<text text-anchor="middle" x="352.5" y="-144.8" font-family="Times,serif" font-size="14.00">1</text>
</g>
<!-- 1&#45;&gt;2 -->
<g id="edge4" class="edge">
<title>1&#45;&gt;2</title>
<path fill="none" stroke="black" d="M309,-173.8C309,-162.16 309,-146.55 309,-133.24"/>
<polygon fill="black" stroke="black" points="312.5,-133.18 309,-123.18 305.5,-133.18 312.5,-133.18"/>
<text text-anchor="middle" x="312.5" y="-144.8" font-family="Times,serif" font-size="14.00">1</text>
</g>
</g>
</svg>
