<?xml version="1.0" encoding="UTF-8" standalone="no"?>
<!DOCTYPE svg PUBLIC "-//W3C//DTD SVG 1.1//EN"
 "http://www.w3.org/Graphics/SVG/1.1/DTD/svg11.dtd">
<!-- Generated by graphviz version 2.49.3 (20211023.0002)
 -->
<!-- Title: di_graph Pages: 1 -->
<svg width="206pt" height="566pt"
 viewBox="0.00 0.00 206.00 566.00" xmlns="http://www.w3.org/2000/svg" xmlns:xlink="http://www.w3.org/1999/xlink">
<g id="graph0" class="graph" transform="scale(1 1) rotate(0) translate(4 562)">
<title>di_graph</title>
<polygon fill="white" stroke="transparent" points="-4,4 -4,-562 202,-562 202,4 -4,4"/>
<!-- 9 -->
<g id="node1" class="node">
<title>9</title>
<ellipse fill="none" stroke="black" cx="100" cy="-105" rx="27" ry="18"/>
<text text-anchor="middle" x="100" y="-101.3" font-family="Times New Roman,serif" font-size="14.00">9</text>
</g>
<!-- 10 -->
<g id="node8" class="node">
<title>10</title>
<ellipse fill="none" stroke="black" cx="100" cy="-18" rx="27" ry="18"/>
<text text-anchor="middle" x="100" y="-14.3" font-family="Times New Roman,serif" font-size="14.00">10</text>
</g>
<!-- 9&#45;&gt;10 -->
<g id="edge6" class="edge">
<title>9&#45;&gt;10</title>
<path fill="none" stroke="black" d="M100,-86.8C100,-75.16 100,-59.55 100,-46.24"/>
<polygon fill="black" stroke="black" points="103.5,-46.18 100,-36.18 96.5,-46.18 103.5,-46.18"/>
<text text-anchor="middle" x="103.5" y="-57.8" font-family="Times New Roman,serif" font-size="14.00">0</text>
</g>
<!-- 7 -->
<g id="node2" class="node">
<title>7</title>
<ellipse fill="none" stroke="black" cx="64" cy="-192" rx="27" ry="18"/>
<text text-anchor="middle" x="64" y="-188.3" font-family="Times New Roman,serif" font-size="14.00">7</text>
</g>
<!-- 7&#45;&gt;9 -->
<g id="edge12" class="edge">
<title>7&#45;&gt;9</title>
<path fill="none" stroke="black" d="M71.11,-174.21C76.22,-162.14 83.21,-145.64 89.03,-131.89"/>
<polygon fill="black" stroke="black" points="92.35,-133.04 93.02,-122.47 85.9,-130.31 92.35,-133.04"/>
<text text-anchor="middle" x="88.5" y="-144.8" font-family="Times New Roman,serif" font-size="14.00">0</text>
</g>
<!-- 3 -->
<g id="node3" class="node">
<title>3</title>
<ellipse fill="none" stroke="black" cx="27" cy="-453" rx="27" ry="18"/>
<text text-anchor="middle" x="27" y="-449.3" font-family="Times New Roman,serif" font-size="14.00">3</text>
</g>
<!-- 5 -->
<g id="node4" class="node">
<title>5</title>
<ellipse fill="none" stroke="black" cx="135" cy="-366" rx="27" ry="18"/>
<text text-anchor="middle" x="135" y="-362.3" font-family="Times New Roman,serif" font-size="14.00">5</text>
</g>
<!-- 3&#45;&gt;5 -->
<g id="edge2" class="edge">
<title>3&#45;&gt;5</title>
<path fill="none" stroke="black" d="M42.4,-437.98C53.88,-427.71 70.1,-413.59 85,-402 92.33,-396.3 100.51,-390.39 108.09,-385.1"/>
<polygon fill="black" stroke="black" points="110.39,-387.76 116.63,-379.21 106.41,-382 110.39,-387.76"/>
<text text-anchor="middle" x="95.5" y="-405.8" font-family="Times New Roman,serif" font-size="14.00">100</text>
</g>
<!-- 6 -->
<g id="node5" class="node">
<title>6</title>
<ellipse fill="none" stroke="black" cx="99" cy="-279" rx="27" ry="18"/>
<text text-anchor="middle" x="99" y="-275.3" font-family="Times New Roman,serif" font-size="14.00">6</text>
</g>
<!-- 3&#45;&gt;6 -->
<g id="edge1" class="edge">
<title>3&#45;&gt;6</title>
<path fill="none" stroke="black" d="M32.74,-435.24C39.97,-414.53 53,-378.3 66,-348 72.14,-333.68 79.69,-318.02 86.01,-305.34"/>
<polygon fill="black" stroke="black" points="89.19,-306.8 90.56,-296.29 82.94,-303.65 89.19,-306.8"/>
<text text-anchor="middle" x="73" y="-362.3" font-family="Times New Roman,serif" font-size="14.00">10</text>
</g>
<!-- 5&#45;&gt;6 -->
<g id="edge13" class="edge">
<title>5&#45;&gt;6</title>
<path fill="none" stroke="black" d="M127.89,-348.21C122.78,-336.14 115.79,-319.64 109.97,-305.89"/>
<polygon fill="black" stroke="black" points="113.1,-304.31 105.98,-296.47 106.65,-307.04 113.1,-304.31"/>
<text text-anchor="middle" x="122.5" y="-318.8" font-family="Times New Roman,serif" font-size="14.00">1</text>
</g>
<!-- 6&#45;&gt;7 -->
<g id="edge3" class="edge">
<title>6&#45;&gt;7</title>
<path fill="none" stroke="black" d="M92.09,-261.21C87.12,-249.14 80.32,-232.64 74.66,-218.89"/>
<polygon fill="black" stroke="black" points="77.83,-217.38 70.78,-209.47 71.35,-220.05 77.83,-217.38"/>
<text text-anchor="middle" x="91" y="-231.8" font-family="Times New Roman,serif" font-size="14.00">14</text>
</g>
<!-- 8 -->
<g id="node6" class="node">
<title>8</title>
<ellipse fill="none" stroke="black" cx="136" cy="-192" rx="27" ry="18"/>
<text text-anchor="middle" x="136" y="-188.3" font-family="Times New Roman,serif" font-size="14.00">8</text>
</g>
<!-- 6&#45;&gt;8 -->
<g id="edge4" class="edge">
<title>6&#45;&gt;8</title>
<path fill="none" stroke="black" d="M106.13,-261.61C111.37,-249.58 118.6,-232.98 124.63,-219.13"/>
<polygon fill="black" stroke="black" points="127.98,-220.19 128.76,-209.63 121.56,-217.4 127.98,-220.19"/>
<text text-anchor="middle" x="126" y="-231.8" font-family="Times New Roman,serif" font-size="14.00">14</text>
</g>
<!-- 8&#45;&gt;9 -->
<g id="edge5" class="edge">
<title>8&#45;&gt;9</title>
<path fill="none" stroke="black" d="M128.89,-174.21C123.78,-162.14 116.79,-145.64 110.97,-131.89"/>
<polygon fill="black" stroke="black" points="114.1,-130.31 106.98,-122.47 107.65,-133.04 114.1,-130.31"/>
<text text-anchor="middle" x="123.5" y="-144.8" font-family="Times New Roman,serif" font-size="14.00">0</text>
</g>
<!-- 4 -->
<g id="node7" class="node">
<title>4</title>
<ellipse fill="none" stroke="black" cx="99" cy="-453" rx="27" ry="18"/>
<text text-anchor="middle" x="99" y="-449.3" font-family="Times New Roman,serif" font-size="14.00">4</text>
</g>
<!-- 4&#45;&gt;5 -->
<g id="edge11" class="edge">
<title>4&#45;&gt;5</title>
<path fill="none" stroke="black" d="M104.47,-435.12C107.79,-425.33 112.29,-412.83 117,-402 118.41,-398.77 119.97,-395.42 121.59,-392.13"/>
<polygon fill="black" stroke="black" points="124.73,-393.67 126.13,-383.17 118.49,-390.51 124.73,-393.67"/>
<text text-anchor="middle" x="127.5" y="-405.8" font-family="Times New Roman,serif" font-size="14.00">100</text>
</g>
<!-- 4&#45;&gt;6 -->
<g id="edge10" class="edge">
<title>4&#45;&gt;6</title>
<path fill="none" stroke="black" d="M94.52,-435.1C91.15,-421.43 86.8,-401.63 85,-384 83.38,-368.08 83.38,-363.92 85,-348 86.4,-334.23 89.36,-319.13 92.2,-306.66"/>
<polygon fill="black" stroke="black" points="95.62,-307.44 94.52,-296.9 88.81,-305.82 95.62,-307.44"/>
<text text-anchor="middle" x="92" y="-362.3" font-family="Times New Roman,serif" font-size="14.00">10</text>
</g>
<!-- 1 -->
<g id="node9" class="node">
<title>1</title>
<ellipse fill="none" stroke="black" cx="99" cy="-540" rx="27" ry="18"/>
<text text-anchor="middle" x="99" y="-536.3" font-family="Times New Roman,serif" font-size="14.00">1</text>
</g>
<!-- 1&#45;&gt;3 -->
<g id="edge9" class="edge">
<title>1&#45;&gt;3</title>
<path fill="none" stroke="black" d="M86.13,-523.8C75.07,-510.75 58.96,-491.74 46.35,-476.85"/>
<polygon fill="black" stroke="black" points="48.89,-474.43 39.76,-469.06 43.55,-478.96 48.89,-474.43"/>
<text text-anchor="middle" x="71.5" y="-492.8" font-family="Times New Roman,serif" font-size="14.00">0</text>
</g>
<!-- 1&#45;&gt;4 -->
<g id="edge8" class="edge">
<title>1&#45;&gt;4</title>
<path fill="none" stroke="black" d="M99,-521.8C99,-510.16 99,-494.55 99,-481.24"/>
<polygon fill="black" stroke="black" points="102.5,-481.18 99,-471.18 95.5,-481.18 102.5,-481.18"/>
<text text-anchor="middle" x="102.5" y="-492.8" font-family="Times New Roman,serif" font-size="14.00">0</text>
</g>
<!-- 2 -->
<g id="node10" class="node">
<title>2</title>
<ellipse fill="none" stroke="black" cx="171" cy="-453" rx="27" ry="18"/>
<text text-anchor="middle" x="171" y="-449.3" font-family="Times New Roman,serif" font-size="14.00">2</text>
</g>
<!-- 1&#45;&gt;2 -->
<g id="edge7" class="edge">
<title>1&#45;&gt;2</title>
<path fill="none" stroke="black" d="M111.87,-523.8C122.93,-510.75 139.04,-491.74 151.65,-476.85"/>
<polygon fill="black" stroke="black" points="154.45,-478.96 158.24,-469.06 149.11,-474.43 154.45,-478.96"/>
<text text-anchor="middle" x="142.5" y="-492.8" font-family="Times New Roman,serif" font-size="14.00">0</text>
</g>
<!-- 2&#45;&gt;5 -->
<g id="edge15" class="edge">
<title>2&#45;&gt;5</title>
<path fill="none" stroke="black" d="M163.89,-435.21C158.78,-423.14 151.79,-406.64 145.97,-392.89"/>
<polygon fill="black" stroke="black" points="149.1,-391.31 141.98,-383.47 142.65,-394.04 149.1,-391.31"/>
<text text-anchor="middle" x="165.5" y="-405.8" font-family="Times New Roman,serif" font-size="14.00">100</text>
</g>
<!-- 2&#45;&gt;6 -->
<g id="edge14" class="edge">
<title>2&#45;&gt;6</title>
<path fill="none" stroke="black" d="M176.27,-435.08C177.79,-429.39 179.24,-422.98 180,-417 183.88,-386.32 185.54,-375.29 171,-348 160.36,-328.03 141.63,-310.62 125.94,-298.41"/>
<polygon fill="black" stroke="black" points="127.71,-295.37 117.6,-292.19 123.52,-300.98 127.71,-295.37"/>
<text text-anchor="middle" x="189" y="-362.3" font-family="Times New Roman,serif" font-size="14.00">10</text>
</g>
</g>
</svg>
