<?xml version="1.0" encoding="UTF-8" standalone="no"?>
<!DOCTYPE svg PUBLIC "-//W3C//DTD SVG 1.1//EN"
 "http://www.w3.org/Graphics/SVG/1.1/DTD/svg11.dtd">
<!-- Generated by graphviz version 5.0.0 (0)
 -->
<!-- Title: di_graph Pages: 1 -->
<svg width="259pt" height="566pt"
 viewBox="0.00 0.00 259.00 566.00" xmlns="http://www.w3.org/2000/svg" xmlns:xlink="http://www.w3.org/1999/xlink">
<g id="graph0" class="graph" transform="scale(1 1) rotate(0) translate(4 562)">
<title>di_graph</title>
<polygon fill="white" stroke="transparent" points="-4,4 -4,-562 255,-562 255,4 -4,4"/>
<!-- 1 -->
<g id="node1" class="node">
<title>1</title>
<ellipse fill="none" stroke="black" cx="152" cy="-540" rx="27" ry="18"/>
<text text-anchor="middle" x="152" y="-536.3" font-family="Times,serif" font-size="14.00">1 </text>
</g>
<!-- 2 -->
<g id="node3" class="node">
<title>2</title>
<ellipse fill="none" stroke="black" cx="152" cy="-453" rx="27" ry="18"/>
<text text-anchor="middle" x="152" y="-449.3" font-family="Times,serif" font-size="14.00">2 </text>
</g>
<!-- 1&#45;&gt;2 -->
<g id="edge8" class="edge">
<title>1&#45;&gt;2</title>
<path fill="none" stroke="black" d="M152,-521.8C152,-510.16 152,-494.55 152,-481.24"/>
<polygon fill="black" stroke="black" points="155.5,-481.18 152,-471.18 148.5,-481.18 155.5,-481.18"/>
<text text-anchor="middle" x="155.5" y="-492.8" font-family="Times,serif" font-size="14.00">1</text>
</g>
<!-- 3 -->
<g id="node7" class="node">
<title>3</title>
<ellipse fill="none" stroke="black" cx="224" cy="-453" rx="27" ry="18"/>
<text text-anchor="middle" x="224" y="-449.3" font-family="Times,serif" font-size="14.00">3 </text>
</g>
<!-- 1&#45;&gt;3 -->
<g id="edge9" class="edge">
<title>1&#45;&gt;3</title>
<path fill="none" stroke="black" d="M164.87,-523.8C175.93,-510.75 192.04,-491.74 204.65,-476.85"/>
<polygon fill="black" stroke="black" points="207.45,-478.96 211.24,-469.06 202.11,-474.43 207.45,-478.96"/>
<text text-anchor="middle" x="195.5" y="-492.8" font-family="Times,serif" font-size="14.00">1</text>
</g>
<!-- 10 -->
<g id="node2" class="node">
<title>10</title>
<ellipse fill="none" stroke="black" cx="99" cy="-105" rx="27" ry="18"/>
<text text-anchor="middle" x="99" y="-101.3" font-family="Times,serif" font-size="14.00">10 </text>
</g>
<!-- 11 -->
<g id="node8" class="node">
<title>11</title>
<ellipse fill="none" stroke="black" cx="125" cy="-18" rx="27" ry="18"/>
<text text-anchor="middle" x="125" y="-14.3" font-family="Times,serif" font-size="14.00">11 </text>
</g>
<!-- 10&#45;&gt;11 -->
<g id="edge7" class="edge">
<title>10&#45;&gt;11</title>
<path fill="none" stroke="black" d="M104.14,-87.21C107.77,-75.33 112.71,-59.17 116.88,-45.56"/>
<polygon fill="black" stroke="black" points="120.3,-46.34 119.87,-35.76 113.6,-44.3 120.3,-46.34"/>
<text text-anchor="middle" x="116.5" y="-57.8" font-family="Times,serif" font-size="14.00">1</text>
</g>
<!-- 4 -->
<g id="node9" class="node">
<title>4</title>
<ellipse fill="none" stroke="black" cx="152" cy="-366" rx="27" ry="18"/>
<text text-anchor="middle" x="152" y="-362.3" font-family="Times,serif" font-size="14.00">4 </text>
</g>
<!-- 2&#45;&gt;4 -->
<g id="edge15" class="edge">
<title>2&#45;&gt;4</title>
<path fill="none" stroke="black" d="M152,-434.8C152,-423.16 152,-407.55 152,-394.24"/>
<polygon fill="black" stroke="black" points="155.5,-394.18 152,-384.18 148.5,-394.18 155.5,-394.18"/>
<text text-anchor="middle" x="155.5" y="-405.8" font-family="Times,serif" font-size="14.00">2</text>
</g>
<!-- 8 -->
<g id="node4" class="node">
<title>8</title>
<ellipse fill="none" stroke="black" cx="27" cy="-105" rx="27" ry="18"/>
<text text-anchor="middle" x="27" y="-101.3" font-family="Times,serif" font-size="14.00">8 </text>
</g>
<!-- 8&#45;&gt;11 -->
<g id="edge6" class="edge">
<title>8&#45;&gt;11</title>
<path fill="none" stroke="black" d="M42.75,-90.34C58.51,-76.67 82.97,-55.45 101.13,-39.71"/>
<polygon fill="black" stroke="black" points="103.71,-42.1 108.97,-32.91 99.12,-36.81 103.71,-42.1"/>
<text text-anchor="middle" x="85.5" y="-57.8" font-family="Times,serif" font-size="14.00">1</text>
</g>
<!-- 7 -->
<g id="node5" class="node">
<title>7</title>
<ellipse fill="none" stroke="black" cx="120" cy="-192" rx="27" ry="18"/>
<text text-anchor="middle" x="120" y="-188.3" font-family="Times,serif" font-size="14.00">7 </text>
</g>
<!-- 7&#45;&gt;10 -->
<g id="edge12" class="edge">
<title>7&#45;&gt;10</title>
<path fill="none" stroke="black" d="M115.85,-174.21C112.94,-162.41 108.98,-146.38 105.63,-132.82"/>
<polygon fill="black" stroke="black" points="109.01,-131.92 103.21,-123.05 102.21,-133.6 109.01,-131.92"/>
<text text-anchor="middle" x="113.5" y="-144.8" font-family="Times,serif" font-size="14.00">3</text>
</g>
<!-- 7&#45;&gt;8 -->
<g id="edge11" class="edge">
<title>7&#45;&gt;8</title>
<path fill="none" stroke="black" d="M104.64,-176.96C89.83,-163.43 67.23,-142.77 50.22,-127.22"/>
<polygon fill="black" stroke="black" points="52.12,-124.22 42.38,-120.06 47.4,-129.39 52.12,-124.22"/>
<text text-anchor="middle" x="83.5" y="-144.8" font-family="Times,serif" font-size="14.00">1</text>
</g>
<!-- 9 -->
<g id="node11" class="node">
<title>9</title>
<ellipse fill="none" stroke="black" cx="171" cy="-105" rx="27" ry="18"/>
<text text-anchor="middle" x="171" y="-101.3" font-family="Times,serif" font-size="14.00">9 </text>
</g>
<!-- 7&#45;&gt;9 -->
<g id="edge13" class="edge">
<title>7&#45;&gt;9</title>
<path fill="none" stroke="black" d="M129.59,-175.01C137.07,-162.55 147.59,-145.01 156.16,-130.74"/>
<polygon fill="black" stroke="black" points="159.31,-132.29 161.45,-121.92 153.3,-128.69 159.31,-132.29"/>
<text text-anchor="middle" x="151.5" y="-144.8" font-family="Times,serif" font-size="14.00">2</text>
</g>
<!-- 6 -->
<g id="node6" class="node">
<title>6</title>
<ellipse fill="none" stroke="black" cx="148" cy="-279" rx="27" ry="18"/>
<text text-anchor="middle" x="148" y="-275.3" font-family="Times,serif" font-size="14.00">6 </text>
</g>
<!-- 6&#45;&gt;1 -->
<g id="edge2" class="edge">
<title>6&#45;&gt;1</title>
<path fill="none" stroke="black" d="M138.12,-295.76C130.39,-309.1 120.24,-329.03 116,-348 104.07,-401.35 102.82,-417.95 116,-471 119.86,-486.54 128,-502.44 135.57,-514.96"/>
<polygon fill="black" stroke="black" points="132.61,-516.83 140.9,-523.42 138.53,-513.09 132.61,-516.83"/>
<text text-anchor="middle" x="109.5" y="-405.8" font-family="Times,serif" font-size="14.00">1</text>
</g>
<!-- 6&#45;&gt;7 -->
<g id="edge3" class="edge">
<title>6&#45;&gt;7</title>
<path fill="none" stroke="black" d="M142.47,-261.21C138.56,-249.33 133.23,-233.17 128.75,-219.56"/>
<polygon fill="black" stroke="black" points="131.97,-218.16 125.52,-209.76 125.32,-220.35 131.97,-218.16"/>
<text text-anchor="middle" x="138.5" y="-231.8" font-family="Times,serif" font-size="14.00">1</text>
</g>
<!-- 5 -->
<g id="node10" class="node">
<title>5</title>
<ellipse fill="none" stroke="black" cx="224" cy="-366" rx="27" ry="18"/>
<text text-anchor="middle" x="224" y="-362.3" font-family="Times,serif" font-size="14.00">5 </text>
</g>
<!-- 3&#45;&gt;5 -->
<g id="edge14" class="edge">
<title>3&#45;&gt;5</title>
<path fill="none" stroke="black" d="M224,-434.8C224,-423.16 224,-407.55 224,-394.24"/>
<polygon fill="black" stroke="black" points="227.5,-394.18 224,-384.18 220.5,-394.18 227.5,-394.18"/>
<text text-anchor="middle" x="227.5" y="-405.8" font-family="Times,serif" font-size="14.00">3</text>
</g>
<!-- 4&#45;&gt;6 -->
<g id="edge10" class="edge">
<title>4&#45;&gt;6</title>
<path fill="none" stroke="black" d="M151.19,-347.8C150.64,-336.16 149.91,-320.55 149.28,-307.24"/>
<polygon fill="black" stroke="black" points="152.77,-307 148.81,-297.18 145.78,-307.33 152.77,-307"/>
<text text-anchor="middle" x="153.5" y="-318.8" font-family="Times,serif" font-size="14.00">1</text>
</g>
<!-- 5&#45;&gt;6 -->
<g id="edge4" class="edge">
<title>5&#45;&gt;6</title>
<path fill="none" stroke="black" d="M210.76,-350.19C199.06,-337.11 181.82,-317.83 168.37,-302.78"/>
<polygon fill="black" stroke="black" points="170.62,-300.04 161.34,-294.92 165.4,-304.71 170.62,-300.04"/>
<text text-anchor="middle" x="193.5" y="-318.8" font-family="Times,serif" font-size="14.00">1</text>
</g>
<!-- 5&#45;&gt;11 -->
<g id="edge5" class="edge">
<title>5&#45;&gt;11</title>
<path fill="none" stroke="black" d="M224.64,-347.75C225.23,-330.58 226,-303.47 226,-280 226,-280 226,-280 226,-104 226,-67.86 187.68,-44 158.25,-30.99"/>
<polygon fill="black" stroke="black" points="159.26,-27.62 148.68,-27 156.56,-34.08 159.26,-27.62"/>
<text text-anchor="middle" x="229.5" y="-188.3" font-family="Times,serif" font-size="14.00">4</text>
</g>
<!-- 9&#45;&gt;11 -->
<g id="edge1" class="edge">
<title>9&#45;&gt;11</title>
<path fill="none" stroke="black" d="M162.13,-87.61C155.47,-75.3 146.23,-58.23 138.63,-44.19"/>
<polygon fill="black" stroke="black" points="141.52,-42.18 133.69,-35.05 135.37,-45.51 141.52,-42.18"/>
<text text-anchor="middle" x="153.5" y="-57.8" font-family="Times,serif" font-size="14.00">1</text>
</g>
</g>
</svg>
