<?xml version="1.0" encoding="UTF-8" standalone="no"?>
<!DOCTYPE svg PUBLIC "-//W3C//DTD SVG 1.1//EN"
 "http://www.w3.org/Graphics/SVG/1.1/DTD/svg11.dtd">
<!-- Generated by graphviz version 2.49.3 (20211023.0002)
 -->
<!-- Title: di_graph Pages: 1 -->
<svg width="253pt" height="581pt"
 viewBox="0.00 0.00 253.00 581.00" xmlns="http://www.w3.org/2000/svg" xmlns:xlink="http://www.w3.org/1999/xlink">
<g id="graph0" class="graph" transform="scale(1 1) rotate(0) translate(4 577)">
<title>di_graph</title>
<polygon fill="white" stroke="transparent" points="-4,4 -4,-577 249,-577 249,4 -4,4"/>
<!-- 1 -->
<g id="node1" class="node">
<title>1</title>
<ellipse fill="none" stroke="red" cx="89" cy="-540" rx="27" ry="18"/>
<text text-anchor="middle" x="89" y="-536.3" font-family="Times New Roman,serif" font-size="14.00">1 a</text>
<text text-anchor="middle" x="49.5" y="-561.8" font-family="Times New Roman,serif" font-size="14.00">zero</text>
</g>
<!-- 2 -->
<g id="node8" class="node">
<title>2</title>
<ellipse fill="none" stroke="black" cx="144" cy="-453" rx="27" ry="18"/>
<text text-anchor="middle" x="144" y="-449.3" font-family="Times New Roman,serif" font-size="14.00">2 b</text>
<text text-anchor="middle" x="113.5" y="-474.8" font-family="Times New Roman,serif" font-size="14.00">1</text>
</g>
<!-- 1&#45;&gt;2 -->
<g id="edge9" class="edge">
<title>1&#45;&gt;2</title>
<path fill="none" stroke="black" d="M99.35,-523.01C107.49,-510.43 118.97,-492.68 128.26,-478.33"/>
<polygon fill="black" stroke="black" points="131.21,-480.21 133.7,-469.92 125.33,-476.41 131.21,-480.21"/>
<text text-anchor="middle" x="122.5" y="-492.8" font-family="Times New Roman,serif" font-size="14.00">1</text>
</g>
<!-- 3 -->
<g id="node11" class="node">
<title>3</title>
<ellipse fill="none" stroke="black" cx="34" cy="-453" rx="27" ry="18"/>
<text text-anchor="middle" x="34" y="-449.3" font-family="Times New Roman,serif" font-size="14.00">3 c</text>
<text text-anchor="middle" x="3.5" y="-474.8" font-family="Times New Roman,serif" font-size="14.00">1</text>
</g>
<!-- 1&#45;&gt;3 -->
<g id="edge10" class="edge">
<title>1&#45;&gt;3</title>
<path fill="none" stroke="black" d="M78.65,-523.01C70.51,-510.43 59.03,-492.68 49.74,-478.33"/>
<polygon fill="black" stroke="black" points="52.67,-476.41 44.3,-469.92 46.79,-480.21 52.67,-476.41"/>
<text text-anchor="middle" x="68.5" y="-492.8" font-family="Times New Roman,serif" font-size="14.00">1</text>
</g>
<!-- 5 -->
<g id="node2" class="node">
<title>5</title>
<ellipse fill="none" stroke="black" cx="34" cy="-366" rx="27" ry="18"/>
<text text-anchor="middle" x="34" y="-362.3" font-family="Times New Roman,serif" font-size="14.00">5 e</text>
<text text-anchor="middle" x="3.5" y="-387.8" font-family="Times New Roman,serif" font-size="14.00">4</text>
</g>
<!-- 6 -->
<g id="node3" class="node">
<title>6</title>
<ellipse fill="none" stroke="black" cx="94" cy="-279" rx="27" ry="18"/>
<text text-anchor="middle" x="94" y="-275.3" font-family="Times New Roman,serif" font-size="14.00">6 f</text>
<text text-anchor="middle" x="63.5" y="-300.8" font-family="Times New Roman,serif" font-size="14.00">4</text>
</g>
<!-- 5&#45;&gt;6 -->
<g id="edge3" class="edge">
<title>5&#45;&gt;6</title>
<path fill="none" stroke="black" d="M44.55,-349.12C51.18,-339.23 59.97,-326.29 68,-315 70.57,-311.39 73.32,-307.6 76.03,-303.91"/>
<polygon fill="black" stroke="black" points="79.07,-305.7 82.21,-295.58 73.44,-301.53 79.07,-305.7"/>
<text text-anchor="middle" x="71.5" y="-318.8" font-family="Times New Roman,serif" font-size="14.00">1</text>
</g>
<!-- 11 -->
<g id="node10" class="node">
<title>11</title>
<ellipse fill="none" stroke="black" cx="110" cy="-18" rx="27" ry="18"/>
<text text-anchor="middle" x="110" y="-14.3" font-family="Times New Roman,serif" font-size="14.00">11 i</text>
<text text-anchor="middle" x="79.5" y="-39.8" font-family="Times New Roman,serif" font-size="14.00">7</text>
</g>
<!-- 5&#45;&gt;11 -->
<g id="edge2" class="edge">
<title>5&#45;&gt;11</title>
<path fill="none" stroke="black" d="M29.25,-348.22C24.86,-331.19 19,-303.98 19,-280 19,-280 19,-280 19,-104 19,-70.69 51.96,-46.69 78.21,-32.85"/>
<polygon fill="black" stroke="black" points="80.12,-35.81 87.51,-28.22 76.99,-29.55 80.12,-35.81"/>
<text text-anchor="middle" x="22.5" y="-188.3" font-family="Times New Roman,serif" font-size="14.00">4</text>
</g>
<!-- 6&#45;&gt;1 -->
<g id="edge8" class="edge">
<title>6&#45;&gt;1</title>
<path fill="none" stroke="black" d="M93.67,-297.32C92.82,-341.38 90.56,-458.01 89.53,-511.49"/>
<polygon fill="black" stroke="black" points="86.03,-511.54 89.34,-521.6 93.03,-511.67 86.03,-511.54"/>
<text text-anchor="middle" x="94.5" y="-405.8" font-family="Times New Roman,serif" font-size="14.00">1</text>
</g>
<!-- 7 -->
<g id="node7" class="node">
<title>7</title>
<ellipse fill="none" stroke="black" cx="123" cy="-192" rx="27" ry="18"/>
<text text-anchor="middle" x="123" y="-188.3" font-family="Times New Roman,serif" font-size="14.00">7 g</text>
<text text-anchor="middle" x="92.5" y="-213.8" font-family="Times New Roman,serif" font-size="14.00">5</text>
</g>
<!-- 6&#45;&gt;7 -->
<g id="edge7" class="edge">
<title>6&#45;&gt;7</title>
<path fill="none" stroke="black" d="M99.73,-261.21C103.78,-249.33 109.3,-233.17 113.94,-219.56"/>
<polygon fill="black" stroke="black" points="117.37,-220.35 117.28,-209.76 110.74,-218.09 117.37,-220.35"/>
<text text-anchor="middle" x="113.5" y="-231.8" font-family="Times New Roman,serif" font-size="14.00">1</text>
</g>
<!-- 10 -->
<g id="node4" class="node">
<title>10</title>
<ellipse fill="none" stroke="black" cx="74" cy="-105" rx="27" ry="18"/>
<text text-anchor="middle" x="74" y="-101.3" font-family="Times New Roman,serif" font-size="14.00">10 u</text>
<text text-anchor="middle" x="43.5" y="-126.8" font-family="Times New Roman,serif" font-size="14.00">8</text>
</g>
<!-- 10&#45;&gt;11 -->
<g id="edge1" class="edge">
<title>10&#45;&gt;11</title>
<path fill="none" stroke="black" d="M81.11,-87.21C86.22,-75.14 93.21,-58.64 99.03,-44.89"/>
<polygon fill="black" stroke="black" points="102.35,-46.04 103.02,-35.47 95.9,-43.31 102.35,-46.04"/>
<text text-anchor="middle" x="97.5" y="-57.8" font-family="Times New Roman,serif" font-size="14.00">1</text>
</g>
<!-- 4 -->
<g id="node5" class="node">
<title>4</title>
<ellipse fill="none" stroke="black" cx="144" cy="-366" rx="27" ry="18"/>
<text text-anchor="middle" x="144" y="-362.3" font-family="Times New Roman,serif" font-size="14.00">4 d</text>
<text text-anchor="middle" x="113.5" y="-387.8" font-family="Times New Roman,serif" font-size="14.00">3</text>
</g>
<!-- 4&#45;&gt;6 -->
<g id="edge6" class="edge">
<title>4&#45;&gt;6</title>
<path fill="none" stroke="black" d="M134.6,-349.01C127.26,-336.55 116.95,-319.01 108.55,-304.74"/>
<polygon fill="black" stroke="black" points="111.45,-302.76 103.36,-295.92 105.42,-306.31 111.45,-302.76"/>
<text text-anchor="middle" x="124.5" y="-318.8" font-family="Times New Roman,serif" font-size="14.00">1</text>
</g>
<!-- 9 -->
<g id="node6" class="node">
<title>9</title>
<ellipse fill="none" stroke="black" cx="146" cy="-105" rx="27" ry="18"/>
<text text-anchor="middle" x="146" y="-101.3" font-family="Times New Roman,serif" font-size="14.00">9 y</text>
<text text-anchor="middle" x="115.5" y="-126.8" font-family="Times New Roman,serif" font-size="14.00">7</text>
</g>
<!-- 9&#45;&gt;11 -->
<g id="edge15" class="edge">
<title>9&#45;&gt;11</title>
<path fill="none" stroke="black" d="M138.89,-87.21C133.78,-75.14 126.79,-58.64 120.97,-44.89"/>
<polygon fill="black" stroke="black" points="124.1,-43.31 116.98,-35.47 117.65,-46.04 124.1,-43.31"/>
<text text-anchor="middle" x="133.5" y="-57.8" font-family="Times New Roman,serif" font-size="14.00">1</text>
</g>
<!-- 7&#45;&gt;10 -->
<g id="edge11" class="edge">
<title>7&#45;&gt;10</title>
<path fill="none" stroke="black" d="M113.78,-175.01C106.64,-162.63 96.62,-145.23 88.42,-131.01"/>
<polygon fill="black" stroke="black" points="91.37,-129.12 83.34,-122.21 85.3,-132.62 91.37,-129.12"/>
<text text-anchor="middle" x="104.5" y="-144.8" font-family="Times New Roman,serif" font-size="14.00">3</text>
</g>
<!-- 7&#45;&gt;9 -->
<g id="edge13" class="edge">
<title>7&#45;&gt;9</title>
<path fill="none" stroke="black" d="M127.54,-174.21C130.76,-162.33 135.13,-146.17 138.81,-132.56"/>
<polygon fill="black" stroke="black" points="142.23,-133.33 141.47,-122.76 135.47,-131.5 142.23,-133.33"/>
<text text-anchor="middle" x="138.5" y="-144.8" font-family="Times New Roman,serif" font-size="14.00">2</text>
</g>
<!-- 8 -->
<g id="node9" class="node">
<title>8</title>
<ellipse fill="none" stroke="black" cx="218" cy="-105" rx="27" ry="18"/>
<text text-anchor="middle" x="218" y="-101.3" font-family="Times New Roman,serif" font-size="14.00">8 h</text>
<text text-anchor="middle" x="187.5" y="-126.8" font-family="Times New Roman,serif" font-size="14.00">6</text>
</g>
<!-- 7&#45;&gt;8 -->
<g id="edge12" class="edge">
<title>7&#45;&gt;8</title>
<path fill="none" stroke="black" d="M138.69,-176.96C153.95,-163.31 177.33,-142.39 194.75,-126.8"/>
<polygon fill="black" stroke="black" points="197.17,-129.33 202.29,-120.06 192.5,-124.12 197.17,-129.33"/>
<text text-anchor="middle" x="179.5" y="-144.8" font-family="Times New Roman,serif" font-size="14.00">1</text>
</g>
<!-- 2&#45;&gt;4 -->
<g id="edge4" class="edge">
<title>2&#45;&gt;4</title>
<path fill="none" stroke="black" d="M144,-434.8C144,-423.16 144,-407.55 144,-394.24"/>
<polygon fill="black" stroke="black" points="147.5,-394.18 144,-384.18 140.5,-394.18 147.5,-394.18"/>
<text text-anchor="middle" x="147.5" y="-405.8" font-family="Times New Roman,serif" font-size="14.00">2</text>
</g>
<!-- 8&#45;&gt;11 -->
<g id="edge5" class="edge">
<title>8&#45;&gt;11</title>
<path fill="none" stroke="black" d="M201.12,-90.72C183.29,-76.68 154.99,-54.41 134.66,-38.41"/>
<polygon fill="black" stroke="black" points="136.78,-35.62 126.76,-32.19 132.45,-41.12 136.78,-35.62"/>
<text text-anchor="middle" x="173.5" y="-57.8" font-family="Times New Roman,serif" font-size="14.00">1</text>
</g>
<!-- 3&#45;&gt;5 -->
<g id="edge14" class="edge">
<title>3&#45;&gt;5</title>
<path fill="none" stroke="black" d="M34,-434.8C34,-423.16 34,-407.55 34,-394.24"/>
<polygon fill="black" stroke="black" points="37.5,-394.18 34,-384.18 30.5,-394.18 37.5,-394.18"/>
<text text-anchor="middle" x="37.5" y="-405.8" font-family="Times New Roman,serif" font-size="14.00">3</text>
</g>
</g>
</svg>
