<?xml version="1.0" encoding="UTF-8" standalone="no"?>
<!DOCTYPE svg PUBLIC "-//W3C//DTD SVG 1.1//EN"
 "http://www.w3.org/Graphics/SVG/1.1/DTD/svg11.dtd">
<!-- Generated by graphviz version 5.0.0 (0)
 -->
<!-- Title: di_graph Pages: 1 -->
<svg width="350pt" height="479pt"
 viewBox="0.00 0.00 350.00 479.00" xmlns="http://www.w3.org/2000/svg" xmlns:xlink="http://www.w3.org/1999/xlink">
<g id="graph0" class="graph" transform="scale(1 1) rotate(0) translate(4 475)">
<title>di_graph</title>
<polygon fill="white" stroke="transparent" points="-4,4 -4,-475 346,-475 346,4 -4,4"/>
<!-- 4 -->
<g id="node1" class="node">
<title>4</title>
<ellipse fill="none" stroke="green" cx="279" cy="-453" rx="27" ry="18"/>
<text text-anchor="middle" x="279" y="-449.3" font-family="Times,serif" font-size="14.00">4 d</text>
</g>
<!-- 6 -->
<g id="node3" class="node">
<title>6</title>
<ellipse fill="none" stroke="green" cx="224" cy="-366" rx="27" ry="18"/>
<text text-anchor="middle" x="224" y="-362.3" font-family="Times,serif" font-size="14.00">6 f</text>
</g>
<!-- 4&#45;&gt;6 -->
<g id="edge12" class="edge">
<title>4&#45;&gt;6</title>
<path fill="none" stroke="black" d="M268.65,-436.01C260.51,-423.43 249.03,-405.68 239.74,-391.33"/>
<polygon fill="black" stroke="black" points="242.67,-389.41 234.3,-382.92 236.79,-393.21 242.67,-389.41"/>
<text text-anchor="middle" x="257.5" y="-405.8" font-family="Times,serif" font-size="14.00">1</text>
</g>
<!-- 3 -->
<g id="node2" class="node">
<title>3</title>
<ellipse fill="none" stroke="black" cx="243" cy="-192" rx="27" ry="18"/>
<text text-anchor="middle" x="243" y="-188.3" font-family="Times,serif" font-size="14.00">3 c</text>
</g>
<!-- 5 -->
<g id="node5" class="node">
<title>5</title>
<ellipse fill="none" stroke="black" cx="243" cy="-105" rx="27" ry="18"/>
<text text-anchor="middle" x="243" y="-101.3" font-family="Times,serif" font-size="14.00">5 e</text>
</g>
<!-- 3&#45;&gt;5 -->
<g id="edge10" class="edge">
<title>3&#45;&gt;5</title>
<path fill="none" stroke="black" stroke-dasharray="1,5" d="M243,-173.8C243,-162.16 243,-146.55 243,-133.24"/>
<polygon fill="black" stroke="black" points="246.5,-133.18 243,-123.18 239.5,-133.18 246.5,-133.18"/>
<text text-anchor="middle" x="246.5" y="-144.8" font-family="Times,serif" font-size="14.00">3</text>
</g>
<!-- 7 -->
<g id="node4" class="node">
<title>7</title>
<ellipse fill="none" stroke="green" cx="125" cy="-192" rx="27" ry="18"/>
<text text-anchor="middle" x="125" y="-188.3" font-family="Times,serif" font-size="14.00">7 g</text>
</g>
<!-- 6&#45;&gt;7 -->
<g id="edge5" class="edge">
<title>6&#45;&gt;7</title>
<path fill="none" stroke="black" d="M203.19,-354.42C193.18,-348.43 181.71,-340.11 174,-330 148.75,-296.91 135.71,-249.66 129.61,-220.19"/>
<polygon fill="black" stroke="black" points="133.02,-219.35 127.68,-210.2 126.14,-220.68 133.02,-219.35"/>
<text text-anchor="middle" x="156.5" y="-275.3" font-family="Times,serif" font-size="14.00">1</text>
</g>
<!-- 1 -->
<g id="node11" class="node">
<title>1</title>
<ellipse fill="none" stroke="green" stroke-width="2" cx="243" cy="-279" rx="27" ry="18"/>
<text text-anchor="middle" x="243" y="-275.3" font-family="Times,serif" font-size="14.00">1 a</text>
</g>
<!-- 6&#45;&gt;1 -->
<g id="edge4" class="edge">
<title>6&#45;&gt;1</title>
<path fill="none" stroke="black" stroke-dasharray="1,5" d="M227.84,-347.8C230.46,-336.09 233.98,-320.34 236.97,-306.97"/>
<polygon fill="black" stroke="black" points="240.46,-307.41 239.23,-296.89 233.63,-305.88 240.46,-307.41"/>
<text text-anchor="middle" x="237.5" y="-318.8" font-family="Times,serif" font-size="14.00">1</text>
</g>
<!-- 8 -->
<g id="node7" class="node">
<title>8</title>
<ellipse fill="none" stroke="green" cx="171" cy="-105" rx="27" ry="18"/>
<text text-anchor="middle" x="171" y="-101.3" font-family="Times,serif" font-size="14.00">8 h</text>
</g>
<!-- 7&#45;&gt;8 -->
<g id="edge3" class="edge">
<title>7&#45;&gt;8</title>
<path fill="none" stroke="black" d="M133.87,-174.61C140.53,-162.3 149.77,-145.23 157.37,-131.19"/>
<polygon fill="black" stroke="black" points="160.63,-132.51 162.31,-122.05 154.48,-129.18 160.63,-132.51"/>
<text text-anchor="middle" x="153.5" y="-144.8" font-family="Times,serif" font-size="14.00">1</text>
</g>
<!-- 9 -->
<g id="node8" class="node">
<title>9</title>
<ellipse fill="none" stroke="black" cx="27" cy="-105" rx="27" ry="18"/>
<text text-anchor="middle" x="27" y="-101.3" font-family="Times,serif" font-size="14.00">9 y</text>
</g>
<!-- 7&#45;&gt;9 -->
<g id="edge2" class="edge">
<title>7&#45;&gt;9</title>
<path fill="none" stroke="black" stroke-dasharray="1,5" d="M109.25,-177.34C93.49,-163.67 69.03,-142.45 50.87,-126.71"/>
<polygon fill="black" stroke="black" points="52.88,-123.81 43.03,-119.91 48.29,-129.1 52.88,-123.81"/>
<text text-anchor="middle" x="84.5" y="-144.8" font-family="Times,serif" font-size="14.00">2</text>
</g>
<!-- 10 -->
<g id="node9" class="node">
<title>10</title>
<ellipse fill="none" stroke="black" cx="99" cy="-105" rx="27" ry="18"/>
<text text-anchor="middle" x="99" y="-101.3" font-family="Times,serif" font-size="14.00">10 u</text>
</g>
<!-- 7&#45;&gt;10 -->
<g id="edge1" class="edge">
<title>7&#45;&gt;10</title>
<path fill="none" stroke="black" stroke-dasharray="1,5" d="M119.86,-174.21C116.23,-162.33 111.29,-146.17 107.12,-132.56"/>
<polygon fill="black" stroke="black" points="110.4,-131.3 104.13,-122.76 103.7,-133.34 110.4,-131.3"/>
<text text-anchor="middle" x="116.5" y="-144.8" font-family="Times,serif" font-size="14.00">3</text>
</g>
<!-- 5&#45;&gt;6 -->
<g id="edge7" class="edge">
<title>5&#45;&gt;6</title>
<path fill="none" stroke="black" stroke-dasharray="1,5" d="M231.9,-121.58C223.21,-134.82 211.8,-154.68 207,-174 193.82,-227.05 200.32,-242.74 207,-297 208.71,-310.87 212.3,-325.98 215.75,-338.43"/>
<polygon fill="black" stroke="black" points="212.43,-339.54 218.57,-348.17 219.15,-337.59 212.43,-339.54"/>
<text text-anchor="middle" x="203.5" y="-231.8" font-family="Times,serif" font-size="14.00">1</text>
</g>
<!-- 11 -->
<g id="node10" class="node">
<title>11</title>
<ellipse fill="none" stroke="green" stroke-width="2" cx="135" cy="-18" rx="27" ry="18"/>
<text text-anchor="middle" x="135" y="-14.3" font-family="Times,serif" font-size="14.00">11 i</text>
</g>
<!-- 5&#45;&gt;11 -->
<g id="edge6" class="edge">
<title>5&#45;&gt;11</title>
<path fill="none" stroke="black" stroke-dasharray="1,5" d="M226.12,-90.72C208.29,-76.68 179.99,-54.41 159.66,-38.41"/>
<polygon fill="black" stroke="black" points="161.78,-35.62 151.76,-32.19 157.45,-41.12 161.78,-35.62"/>
<text text-anchor="middle" x="198.5" y="-57.8" font-family="Times,serif" font-size="14.00">4</text>
</g>
<!-- 2 -->
<g id="node6" class="node">
<title>2</title>
<ellipse fill="none" stroke="green" cx="315" cy="-192" rx="27" ry="18"/>
<text text-anchor="middle" x="315" y="-188.3" font-family="Times,serif" font-size="14.00">2 b</text>
</g>
<!-- 2&#45;&gt;4 -->
<g id="edge13" class="edge">
<title>2&#45;&gt;4</title>
<path fill="none" stroke="black" d="M312.63,-210.06C306.52,-254.03 290.18,-371.54 282.76,-424.93"/>
<polygon fill="black" stroke="black" points="279.27,-424.62 281.36,-435.01 286.21,-425.58 279.27,-424.62"/>
<text text-anchor="middle" x="300.5" y="-318.8" font-family="Times,serif" font-size="14.00">2</text>
</g>
<!-- 8&#45;&gt;11 -->
<g id="edge8" class="edge">
<title>8&#45;&gt;11</title>
<path fill="none" stroke="black" d="M163.89,-87.21C158.78,-75.14 151.79,-58.64 145.97,-44.89"/>
<polygon fill="black" stroke="black" points="149.1,-43.31 141.98,-35.47 142.65,-46.04 149.1,-43.31"/>
<text text-anchor="middle" x="158.5" y="-57.8" font-family="Times,serif" font-size="14.00">1</text>
</g>
<!-- 9&#45;&gt;11 -->
<g id="edge9" class="edge">
<title>9&#45;&gt;11</title>
<path fill="none" stroke="black" stroke-dasharray="1,5" d="M43.88,-90.72C61.71,-76.68 90.01,-54.41 110.34,-38.41"/>
<polygon fill="black" stroke="black" points="112.55,-41.12 118.24,-32.19 108.22,-35.62 112.55,-41.12"/>
<text text-anchor="middle" x="90.5" y="-57.8" font-family="Times,serif" font-size="14.00">1</text>
</g>
<!-- 10&#45;&gt;11 -->
<g id="edge11" class="edge">
<title>10&#45;&gt;11</title>
<path fill="none" stroke="black" stroke-dasharray="1,5" d="M106.11,-87.21C111.22,-75.14 118.21,-58.64 124.03,-44.89"/>
<polygon fill="black" stroke="black" points="127.35,-46.04 128.02,-35.47 120.9,-43.31 127.35,-46.04"/>
<text text-anchor="middle" x="122.5" y="-57.8" font-family="Times,serif" font-size="14.00">1</text>
</g>
<!-- 1&#45;&gt;3 -->
<g id="edge15" class="edge">
<title>1&#45;&gt;3</title>
<path fill="none" stroke="black" stroke-dasharray="1,5" d="M243,-260.8C243,-249.16 243,-233.55 243,-220.24"/>
<polygon fill="black" stroke="black" points="246.5,-220.18 243,-210.18 239.5,-220.18 246.5,-220.18"/>
<text text-anchor="middle" x="246.5" y="-231.8" font-family="Times,serif" font-size="14.00">1</text>
</g>
<!-- 1&#45;&gt;2 -->
<g id="edge14" class="edge">
<title>1&#45;&gt;2</title>
<path fill="none" stroke="black" d="M255.83,-262.65C264.12,-252.74 275.17,-239.58 285,-228 288.41,-223.98 292.05,-219.72 295.57,-215.6"/>
<polygon fill="black" stroke="black" points="298.27,-217.83 302.12,-207.96 292.95,-213.27 298.27,-217.83"/>
<text text-anchor="middle" x="288.5" y="-231.8" font-family="Times,serif" font-size="14.00">1</text>
</g>
</g>
</svg>
