<?xml version="1.0" encoding="UTF-8" standalone="no"?>
<!DOCTYPE svg PUBLIC "-//W3C//DTD SVG 1.1//EN"
 "http://www.w3.org/Graphics/SVG/1.1/DTD/svg11.dtd">
<!-- Generated by graphviz version 5.0.0 (0)
 -->
<!-- Title: di_graph Pages: 1 -->
<svg width="278pt" height="566pt"
 viewBox="0.00 0.00 278.00 566.00" xmlns="http://www.w3.org/2000/svg" xmlns:xlink="http://www.w3.org/1999/xlink">
<g id="graph0" class="graph" transform="scale(1 1) rotate(0) translate(4 562)">
<title>di_graph</title>
<polygon fill="white" stroke="transparent" points="-4,4 -4,-562 274,-562 274,4 -4,4"/>
<!-- 2 -->
<g id="node1" class="node">
<title>2</title>
<ellipse fill="none" stroke="green" cx="229" cy="-540" rx="27" ry="18"/>
<text text-anchor="middle" x="229" y="-536.3" font-family="Times,serif" font-size="14.00">2 b</text>
</g>
<!-- 4 -->
<g id="node2" class="node">
<title>4</title>
<ellipse fill="none" stroke="green" cx="188" cy="-453" rx="27" ry="18"/>
<text text-anchor="middle" x="188" y="-449.3" font-family="Times,serif" font-size="14.00">4 d</text>
</g>
<!-- 2&#45;&gt;4 -->
<g id="edge14" class="edge">
<title>2&#45;&gt;4</title>
<path fill="none" stroke="black" d="M221.09,-522.61C215.2,-510.38 207.03,-493.44 200.28,-479.46"/>
<polygon fill="black" stroke="black" points="203.38,-477.82 195.88,-470.34 197.07,-480.87 203.38,-477.82"/>
<text text-anchor="middle" x="214.5" y="-492.8" font-family="Times,serif" font-size="14.00">2</text>
</g>
<!-- 6 -->
<g id="node8" class="node">
<title>6</title>
<ellipse fill="none" stroke="green" cx="188" cy="-366" rx="27" ry="18"/>
<text text-anchor="middle" x="188" y="-362.3" font-family="Times,serif" font-size="14.00">6 f</text>
</g>
<!-- 4&#45;&gt;6 -->
<g id="edge7" class="edge">
<title>4&#45;&gt;6</title>
<path fill="none" stroke="black" d="M188,-434.8C188,-423.16 188,-407.55 188,-394.24"/>
<polygon fill="black" stroke="black" points="191.5,-394.18 188,-384.18 184.5,-394.18 191.5,-394.18"/>
<text text-anchor="middle" x="191.5" y="-405.8" font-family="Times,serif" font-size="14.00">1</text>
</g>
<!-- 9 -->
<g id="node3" class="node">
<title>9</title>
<ellipse fill="none" stroke="black" cx="27" cy="-105" rx="27" ry="18"/>
<text text-anchor="middle" x="27" y="-101.3" font-family="Times,serif" font-size="14.00">9 y</text>
</g>
<!-- 11 -->
<g id="node10" class="node">
<title>11</title>
<ellipse fill="none" stroke="green" stroke-width="2" cx="135" cy="-18" rx="27" ry="18"/>
<text text-anchor="middle" x="135" y="-14.3" font-family="Times,serif" font-size="14.00">11 i</text>
</g>
<!-- 9&#45;&gt;11 -->
<g id="edge1" class="edge">
<title>9&#45;&gt;11</title>
<path fill="none" stroke="black" stroke-dasharray="1,5" d="M43.88,-90.72C61.71,-76.68 90.01,-54.41 110.34,-38.41"/>
<polygon fill="black" stroke="black" points="112.55,-41.12 118.24,-32.19 108.22,-35.62 112.55,-41.12"/>
<text text-anchor="middle" x="91.5" y="-57.8" font-family="Times,serif" font-size="14.00">1</text>
</g>
<!-- 3 -->
<g id="node4" class="node">
<title>3</title>
<ellipse fill="none" stroke="black" cx="243" cy="-192" rx="27" ry="18"/>
<text text-anchor="middle" x="243" y="-188.3" font-family="Times,serif" font-size="14.00">3 c</text>
</g>
<!-- 5 -->
<g id="node7" class="node">
<title>5</title>
<ellipse fill="none" stroke="black" cx="243" cy="-105" rx="27" ry="18"/>
<text text-anchor="middle" x="243" y="-101.3" font-family="Times,serif" font-size="14.00">5 e</text>
</g>
<!-- 3&#45;&gt;5 -->
<g id="edge13" class="edge">
<title>3&#45;&gt;5</title>
<path fill="none" stroke="black" stroke-dasharray="1,5" d="M243,-173.8C243,-162.16 243,-146.55 243,-133.24"/>
<polygon fill="black" stroke="black" points="246.5,-133.18 243,-123.18 239.5,-133.18 246.5,-133.18"/>
<text text-anchor="middle" x="246.5" y="-144.8" font-family="Times,serif" font-size="14.00">3</text>
</g>
<!-- 8 -->
<g id="node5" class="node">
<title>8</title>
<ellipse fill="none" stroke="green" cx="99" cy="-105" rx="27" ry="18"/>
<text text-anchor="middle" x="99" y="-101.3" font-family="Times,serif" font-size="14.00">8 h</text>
</g>
<!-- 8&#45;&gt;11 -->
<g id="edge10" class="edge">
<title>8&#45;&gt;11</title>
<path fill="none" stroke="black" d="M106.11,-87.21C111.22,-75.14 118.21,-58.64 124.03,-44.89"/>
<polygon fill="black" stroke="black" points="127.35,-46.04 128.02,-35.47 120.9,-43.31 127.35,-46.04"/>
<text text-anchor="middle" x="123.5" y="-57.8" font-family="Times,serif" font-size="14.00">1</text>
</g>
<!-- 10 -->
<g id="node6" class="node">
<title>10</title>
<ellipse fill="none" stroke="black" cx="171" cy="-105" rx="27" ry="18"/>
<text text-anchor="middle" x="171" y="-101.3" font-family="Times,serif" font-size="14.00">10 u</text>
</g>
<!-- 10&#45;&gt;11 -->
<g id="edge15" class="edge">
<title>10&#45;&gt;11</title>
<path fill="none" stroke="black" stroke-dasharray="1,5" d="M163.89,-87.21C158.78,-75.14 151.79,-58.64 145.97,-44.89"/>
<polygon fill="black" stroke="black" points="149.1,-43.31 141.98,-35.47 142.65,-46.04 149.1,-43.31"/>
<text text-anchor="middle" x="159.5" y="-57.8" font-family="Times,serif" font-size="14.00">1</text>
</g>
<!-- 5&#45;&gt;6 -->
<g id="edge9" class="edge">
<title>5&#45;&gt;6</title>
<path fill="none" stroke="black" stroke-dasharray="1,5" d="M232.4,-121.72C224,-135.04 212.75,-154.95 207,-174 189.96,-230.48 187.4,-300.18 187.44,-337.81"/>
<polygon fill="black" stroke="black" points="183.95,-338 187.52,-347.97 190.95,-337.94 183.95,-338"/>
<text text-anchor="middle" x="198.5" y="-231.8" font-family="Times,serif" font-size="14.00">1</text>
</g>
<!-- 5&#45;&gt;11 -->
<g id="edge8" class="edge">
<title>5&#45;&gt;11</title>
<path fill="none" stroke="black" stroke-dasharray="1,5" d="M226.12,-90.72C208.29,-76.68 179.99,-54.41 159.66,-38.41"/>
<polygon fill="black" stroke="black" points="161.78,-35.62 151.76,-32.19 157.45,-41.12 161.78,-35.62"/>
<text text-anchor="middle" x="199.5" y="-57.8" font-family="Times,serif" font-size="14.00">4</text>
</g>
<!-- 1 -->
<g id="node9" class="node">
<title>1</title>
<ellipse fill="none" stroke="green" stroke-width="2" cx="243" cy="-279" rx="27" ry="18"/>
<text text-anchor="middle" x="243" y="-275.3" font-family="Times,serif" font-size="14.00">1 a</text>
</g>
<!-- 6&#45;&gt;1 -->
<g id="edge5" class="edge">
<title>6&#45;&gt;1</title>
<path fill="none" stroke="black" stroke-dasharray="1,5" d="M198.35,-349.01C206.49,-336.43 217.97,-318.68 227.26,-304.33"/>
<polygon fill="black" stroke="black" points="230.21,-306.21 232.7,-295.92 224.33,-302.41 230.21,-306.21"/>
<text text-anchor="middle" x="222.5" y="-318.8" font-family="Times,serif" font-size="14.00">1</text>
</g>
<!-- 7 -->
<g id="node11" class="node">
<title>7</title>
<ellipse fill="none" stroke="green" cx="125" cy="-192" rx="27" ry="18"/>
<text text-anchor="middle" x="125" y="-188.3" font-family="Times,serif" font-size="14.00">7 g</text>
</g>
<!-- 6&#45;&gt;7 -->
<g id="edge6" class="edge">
<title>6&#45;&gt;7</title>
<path fill="none" stroke="black" d="M181.18,-348.31C178.86,-342.53 176.27,-336 174,-330 159.56,-291.88 143.86,-247.37 134.22,-219.69"/>
<polygon fill="black" stroke="black" points="137.42,-218.25 130.83,-209.95 130.81,-220.54 137.42,-218.25"/>
<text text-anchor="middle" x="165.5" y="-275.3" font-family="Times,serif" font-size="14.00">1</text>
</g>
<!-- 1&#45;&gt;2 -->
<g id="edge11" class="edge">
<title>1&#45;&gt;2</title>
<path fill="none" stroke="black" d="M242.08,-297.06C239.7,-341.03 233.35,-458.54 230.46,-511.93"/>
<polygon fill="black" stroke="black" points="226.96,-511.83 229.92,-522.01 233.95,-512.21 226.96,-511.83"/>
<text text-anchor="middle" x="239.5" y="-405.8" font-family="Times,serif" font-size="14.00">1</text>
</g>
<!-- 1&#45;&gt;3 -->
<g id="edge12" class="edge">
<title>1&#45;&gt;3</title>
<path fill="none" stroke="black" stroke-dasharray="1,5" d="M243,-260.8C243,-249.16 243,-233.55 243,-220.24"/>
<polygon fill="black" stroke="black" points="246.5,-220.18 243,-210.18 239.5,-220.18 246.5,-220.18"/>
<text text-anchor="middle" x="246.5" y="-231.8" font-family="Times,serif" font-size="14.00">1</text>
</g>
<!-- 7&#45;&gt;9 -->
<g id="edge4" class="edge">
<title>7&#45;&gt;9</title>
<path fill="none" stroke="black" stroke-dasharray="1,5" d="M109.25,-177.34C93.49,-163.67 69.03,-142.45 50.87,-126.71"/>
<polygon fill="black" stroke="black" points="52.88,-123.81 43.03,-119.91 48.29,-129.1 52.88,-123.81"/>
<text text-anchor="middle" x="85.5" y="-144.8" font-family="Times,serif" font-size="14.00">2</text>
</g>
<!-- 7&#45;&gt;8 -->
<g id="edge3" class="edge">
<title>7&#45;&gt;8</title>
<path fill="none" stroke="black" d="M119.86,-174.21C116.23,-162.33 111.29,-146.17 107.12,-132.56"/>
<polygon fill="black" stroke="black" points="110.4,-131.3 104.13,-122.76 103.7,-133.34 110.4,-131.3"/>
<text text-anchor="middle" x="117.5" y="-144.8" font-family="Times,serif" font-size="14.00">1</text>
</g>
<!-- 7&#45;&gt;10 -->
<g id="edge2" class="edge">
<title>7&#45;&gt;10</title>
<path fill="none" stroke="black" stroke-dasharray="1,5" d="M133.87,-174.61C140.53,-162.3 149.77,-145.23 157.37,-131.19"/>
<polygon fill="black" stroke="black" points="160.63,-132.51 162.31,-122.05 154.48,-129.18 160.63,-132.51"/>
<text text-anchor="middle" x="154.5" y="-144.8" font-family="Times,serif" font-size="14.00">3</text>
</g>
</g>
</svg>
