<?xml version="1.0" encoding="UTF-8" standalone="no"?>
<!DOCTYPE svg PUBLIC "-//W3C//DTD SVG 1.1//EN"
 "http://www.w3.org/Graphics/SVG/1.1/DTD/svg11.dtd">
<!-- Generated by graphviz version 2.49.3 (20211023.0002)
 -->
<!-- Title: di_graph Pages: 1 -->
<svg width="363pt" height="392pt"
 viewBox="0.00 0.00 362.65 392.00" xmlns="http://www.w3.org/2000/svg" xmlns:xlink="http://www.w3.org/1999/xlink">
<g id="graph0" class="graph" transform="scale(1 1) rotate(0) translate(4 388)">
<title>di_graph</title>
<polygon fill="white" stroke="transparent" points="-4,4 -4,-388 358.65,-388 358.65,4 -4,4"/>
<!-- 6 -->
<g id="node1" class="node">
<title>6</title>
<ellipse fill="none" stroke="black" cx="215" cy="-366" rx="27" ry="18"/>
<text text-anchor="middle" x="215" y="-362.3" font-family="Times New Roman,serif" font-size="14.00">6</text>
</g>
<!-- 7 -->
<g id="node2" class="node">
<title>7</title>
<ellipse fill="none" stroke="black" cx="125" cy="-192" rx="27" ry="18"/>
<text text-anchor="middle" x="125" y="-188.3" font-family="Times New Roman,serif" font-size="14.00">7</text>
</g>
<!-- 6&#45;&gt;7 -->
<g id="edge9" class="edge">
<title>6&#45;&gt;7</title>
<path fill="none" stroke="black" d="M196.33,-352.43C188.54,-346.41 179.95,-338.63 174,-330 150.37,-295.74 136.86,-248.83 130.23,-219.74"/>
<polygon fill="black" stroke="black" points="133.63,-218.92 128.09,-209.89 126.79,-220.41 133.63,-218.92"/>
<text text-anchor="middle" x="157.5" y="-275.3" font-family="Times New Roman,serif" font-size="14.00">1</text>
</g>
<!-- 1 -->
<g id="node9" class="node">
<title>1</title>
<ellipse fill="none" stroke="black" cx="243" cy="-279" rx="27" ry="18"/>
<text text-anchor="middle" x="243" y="-275.3" font-family="Times New Roman,serif" font-size="14.00">1</text>
</g>
<!-- 6&#45;&gt;1 -->
<g id="edge8" class="edge">
<title>6&#45;&gt;1</title>
<path fill="none" stroke="black" d="M220.53,-348.21C224.44,-336.33 229.77,-320.17 234.25,-306.56"/>
<polygon fill="black" stroke="black" points="237.68,-307.35 237.48,-296.76 231.03,-305.16 237.68,-307.35"/>
<text text-anchor="middle" x="233.5" y="-318.8" font-family="Times New Roman,serif" font-size="14.00">1</text>
</g>
<!-- 9 -->
<g id="node5" class="node">
<title>9</title>
<ellipse fill="none" stroke="black" cx="171" cy="-105" rx="27" ry="18"/>
<text text-anchor="middle" x="171" y="-101.3" font-family="Times New Roman,serif" font-size="14.00">9</text>
</g>
<!-- 7&#45;&gt;9 -->
<g id="edge15" class="edge">
<title>7&#45;&gt;9</title>
<path fill="none" stroke="black" d="M133.87,-174.61C140.53,-162.3 149.77,-145.23 157.37,-131.19"/>
<polygon fill="black" stroke="black" points="160.63,-132.51 162.31,-122.05 154.48,-129.18 160.63,-132.51"/>
<text text-anchor="middle" x="153.5" y="-144.8" font-family="Times New Roman,serif" font-size="14.00">2</text>
</g>
<!-- 10 -->
<g id="node6" class="node">
<title>10</title>
<ellipse fill="none" stroke="black" cx="27" cy="-105" rx="27" ry="18"/>
<text text-anchor="middle" x="27" y="-101.3" font-family="Times New Roman,serif" font-size="14.00">10</text>
</g>
<!-- 7&#45;&gt;10 -->
<g id="edge14" class="edge">
<title>7&#45;&gt;10</title>
<path fill="none" stroke="black" d="M109.25,-177.34C93.49,-163.67 69.03,-142.45 50.87,-126.71"/>
<polygon fill="black" stroke="black" points="52.88,-123.81 43.03,-119.91 48.29,-129.1 52.88,-123.81"/>
<text text-anchor="middle" x="84.5" y="-144.8" font-family="Times New Roman,serif" font-size="14.00">3</text>
</g>
<!-- 8 -->
<g id="node11" class="node">
<title>8</title>
<ellipse fill="none" stroke="black" cx="99" cy="-105" rx="27" ry="18"/>
<text text-anchor="middle" x="99" y="-101.3" font-family="Times New Roman,serif" font-size="14.00">8</text>
</g>
<!-- 7&#45;&gt;8 -->
<g id="edge13" class="edge">
<title>7&#45;&gt;8</title>
<path fill="none" stroke="black" d="M119.86,-174.21C116.23,-162.33 111.29,-146.17 107.12,-132.56"/>
<polygon fill="black" stroke="black" points="110.4,-131.3 104.13,-122.76 103.7,-133.34 110.4,-131.3"/>
<text text-anchor="middle" x="116.5" y="-144.8" font-family="Times New Roman,serif" font-size="14.00">1</text>
</g>
<!-- 3 -->
<g id="node3" class="node">
<title>3</title>
<ellipse fill="none" stroke="black" cx="315" cy="-192" rx="27" ry="18"/>
<text text-anchor="middle" x="315" y="-188.3" font-family="Times New Roman,serif" font-size="14.00">3</text>
</g>
<!-- 5 -->
<g id="node4" class="node">
<title>5</title>
<ellipse fill="none" stroke="black" cx="315" cy="-105" rx="27" ry="18"/>
<text text-anchor="middle" x="315" y="-101.3" font-family="Times New Roman,serif" font-size="14.00">5</text>
</g>
<!-- 3&#45;&gt;5 -->
<g id="edge1" class="edge">
<title>3&#45;&gt;5</title>
<path fill="none" stroke="black" d="M315,-173.8C315,-162.16 315,-146.55 315,-133.24"/>
<polygon fill="black" stroke="black" points="318.5,-133.18 315,-123.18 311.5,-133.18 318.5,-133.18"/>
<text text-anchor="middle" x="318.5" y="-144.8" font-family="Times New Roman,serif" font-size="14.00">3</text>
</g>
<!-- 5&#45;&gt;6 -->
<g id="edge3" class="edge">
<title>5&#45;&gt;6</title>
<path fill="none" stroke="black" d="M326.93,-121.2C341.35,-141.49 362.33,-178.54 351,-210 329.84,-268.75 274.39,-319.39 241.19,-345.71"/>
<polygon fill="black" stroke="black" points="238.62,-343.27 232.86,-352.17 242.91,-348.8 238.62,-343.27"/>
<text text-anchor="middle" x="345.5" y="-231.8" font-family="Times New Roman,serif" font-size="14.00">1</text>
</g>
<!-- 11 -->
<g id="node10" class="node">
<title>11</title>
<ellipse fill="none" stroke="black" cx="135" cy="-18" rx="27" ry="18"/>
<text text-anchor="middle" x="135" y="-14.3" font-family="Times New Roman,serif" font-size="14.00">11</text>
</g>
<!-- 5&#45;&gt;11 -->
<g id="edge4" class="edge">
<title>5&#45;&gt;11</title>
<path fill="none" stroke="black" d="M293.64,-93.92C261.84,-78.9 201.89,-50.59 165.49,-33.4"/>
<polygon fill="black" stroke="black" points="166.86,-30.18 156.33,-29.07 163.88,-36.51 166.86,-30.18"/>
<text text-anchor="middle" x="238.5" y="-57.8" font-family="Times New Roman,serif" font-size="14.00">4</text>
</g>
<!-- 9&#45;&gt;11 -->
<g id="edge12" class="edge">
<title>9&#45;&gt;11</title>
<path fill="none" stroke="black" d="M163.89,-87.21C158.78,-75.14 151.79,-58.64 145.97,-44.89"/>
<polygon fill="black" stroke="black" points="149.1,-43.31 141.98,-35.47 142.65,-46.04 149.1,-43.31"/>
<text text-anchor="middle" x="158.5" y="-57.8" font-family="Times New Roman,serif" font-size="14.00">1</text>
</g>
<!-- 10&#45;&gt;11 -->
<g id="edge7" class="edge">
<title>10&#45;&gt;11</title>
<path fill="none" stroke="black" d="M43.88,-90.72C61.71,-76.68 90.01,-54.41 110.34,-38.41"/>
<polygon fill="black" stroke="black" points="112.55,-41.12 118.24,-32.19 108.22,-35.62 112.55,-41.12"/>
<text text-anchor="middle" x="90.5" y="-57.8" font-family="Times New Roman,serif" font-size="14.00">1</text>
</g>
<!-- 4 -->
<g id="node7" class="node">
<title>4</title>
<ellipse fill="none" stroke="black" cx="243" cy="-105" rx="27" ry="18"/>
<text text-anchor="middle" x="243" y="-101.3" font-family="Times New Roman,serif" font-size="14.00">4</text>
</g>
<!-- 4&#45;&gt;6 -->
<g id="edge2" class="edge">
<title>4&#45;&gt;6</title>
<path fill="none" stroke="black" d="M231.9,-121.58C223.21,-134.82 211.8,-154.68 207,-174 192.84,-231.02 202.09,-300.51 209.14,-337.96"/>
<polygon fill="black" stroke="black" points="205.77,-338.94 211.14,-348.07 212.64,-337.58 205.77,-338.94"/>
<text text-anchor="middle" x="202.5" y="-231.8" font-family="Times New Roman,serif" font-size="14.00">1</text>
</g>
<!-- 2 -->
<g id="node8" class="node">
<title>2</title>
<ellipse fill="none" stroke="black" cx="243" cy="-192" rx="27" ry="18"/>
<text text-anchor="middle" x="243" y="-188.3" font-family="Times New Roman,serif" font-size="14.00">2</text>
</g>
<!-- 2&#45;&gt;4 -->
<g id="edge11" class="edge">
<title>2&#45;&gt;4</title>
<path fill="none" stroke="black" d="M243,-173.8C243,-162.16 243,-146.55 243,-133.24"/>
<polygon fill="black" stroke="black" points="246.5,-133.18 243,-123.18 239.5,-133.18 246.5,-133.18"/>
<text text-anchor="middle" x="246.5" y="-144.8" font-family="Times New Roman,serif" font-size="14.00">2</text>
</g>
<!-- 1&#45;&gt;3 -->
<g id="edge6" class="edge">
<title>1&#45;&gt;3</title>
<path fill="none" stroke="black" d="M255.87,-262.8C266.93,-249.75 283.04,-230.74 295.65,-215.85"/>
<polygon fill="black" stroke="black" points="298.45,-217.96 302.24,-208.06 293.11,-213.43 298.45,-217.96"/>
<text text-anchor="middle" x="286.5" y="-231.8" font-family="Times New Roman,serif" font-size="14.00">1</text>
</g>
<!-- 1&#45;&gt;2 -->
<g id="edge5" class="edge">
<title>1&#45;&gt;2</title>
<path fill="none" stroke="black" d="M243,-260.8C243,-249.16 243,-233.55 243,-220.24"/>
<polygon fill="black" stroke="black" points="246.5,-220.18 243,-210.18 239.5,-220.18 246.5,-220.18"/>
<text text-anchor="middle" x="246.5" y="-231.8" font-family="Times New Roman,serif" font-size="14.00">1</text>
</g>
<!-- 8&#45;&gt;11 -->
<g id="edge10" class="edge">
<title>8&#45;&gt;11</title>
<path fill="none" stroke="black" d="M106.11,-87.21C111.22,-75.14 118.21,-58.64 124.03,-44.89"/>
<polygon fill="black" stroke="black" points="127.35,-46.04 128.02,-35.47 120.9,-43.31 127.35,-46.04"/>
<text text-anchor="middle" x="122.5" y="-57.8" font-family="Times New Roman,serif" font-size="14.00">1</text>
</g>
</g>
</svg>
