<?xml version="1.0" encoding="UTF-8" standalone="no"?>
<!DOCTYPE svg PUBLIC "-//W3C//DTD SVG 1.1//EN"
 "http://www.w3.org/Graphics/SVG/1.1/DTD/svg11.dtd">
<!-- Generated by graphviz version 2.49.3 (20211023.0002)
 -->
<!-- Title: di_graph Pages: 1 -->
<svg width="246pt" height="566pt"
 viewBox="0.00 0.00 246.00 566.00" xmlns="http://www.w3.org/2000/svg" xmlns:xlink="http://www.w3.org/1999/xlink">
<g id="graph0" class="graph" transform="scale(1 1) rotate(0) translate(4 562)">
<title>di_graph</title>
<polygon fill="white" stroke="transparent" points="-4,4 -4,-562 242,-562 242,4 -4,4"/>
<!-- 1 -->
<g id="node1" class="node">
<title>1</title>
<ellipse fill="none" stroke="green" stroke-width="2" cx="82" cy="-540" rx="27" ry="18"/>
<text text-anchor="middle" x="82" y="-536.3" font-family="Times New Roman,serif" font-size="14.00">1 a</text>
</g>
<!-- 2 -->
<g id="node8" class="node">
<title>2</title>
<ellipse fill="none" stroke="green" cx="137" cy="-453" rx="27" ry="18"/>
<text text-anchor="middle" x="137" y="-449.3" font-family="Times New Roman,serif" font-size="14.00">2 b</text>
</g>
<!-- 1&#45;&gt;2 -->
<g id="edge9" class="edge">
<title>1&#45;&gt;2</title>
<path fill="none" stroke="black" d="M92.35,-523.01C100.49,-510.43 111.97,-492.68 121.26,-478.33"/>
<polygon fill="black" stroke="black" points="124.21,-480.21 126.7,-469.92 118.33,-476.41 124.21,-480.21"/>
<text text-anchor="middle" x="115.5" y="-492.8" font-family="Times New Roman,serif" font-size="14.00">1</text>
</g>
<!-- 3 -->
<g id="node11" class="node">
<title>3</title>
<ellipse fill="none" stroke="black" cx="27" cy="-453" rx="27" ry="18"/>
<text text-anchor="middle" x="27" y="-449.3" font-family="Times New Roman,serif" font-size="14.00">3 c</text>
</g>
<!-- 1&#45;&gt;3 -->
<g id="edge10" class="edge">
<title>1&#45;&gt;3</title>
<path fill="none" stroke="black" stroke-dasharray="1,5" d="M71.65,-523.01C63.51,-510.43 52.03,-492.68 42.74,-478.33"/>
<polygon fill="black" stroke="black" points="45.67,-476.41 37.3,-469.92 39.79,-480.21 45.67,-476.41"/>
<text text-anchor="middle" x="61.5" y="-492.8" font-family="Times New Roman,serif" font-size="14.00">1</text>
</g>
<!-- 5 -->
<g id="node2" class="node">
<title>5</title>
<ellipse fill="none" stroke="black" cx="27" cy="-366" rx="27" ry="18"/>
<text text-anchor="middle" x="27" y="-362.3" font-family="Times New Roman,serif" font-size="14.00">5 e</text>
</g>
<!-- 6 -->
<g id="node3" class="node">
<title>6</title>
<ellipse fill="none" stroke="green" cx="87" cy="-279" rx="27" ry="18"/>
<text text-anchor="middle" x="87" y="-275.3" font-family="Times New Roman,serif" font-size="14.00">6 f</text>
</g>
<!-- 5&#45;&gt;6 -->
<g id="edge3" class="edge">
<title>5&#45;&gt;6</title>
<path fill="none" stroke="black" stroke-dasharray="1,5" d="M37.55,-349.12C44.18,-339.23 52.97,-326.29 61,-315 63.57,-311.39 66.32,-307.6 69.03,-303.91"/>
<polygon fill="black" stroke="black" points="72.07,-305.7 75.21,-295.58 66.44,-301.53 72.07,-305.7"/>
<text text-anchor="middle" x="64.5" y="-318.8" font-family="Times New Roman,serif" font-size="14.00">1</text>
</g>
<!-- 11 -->
<g id="node10" class="node">
<title>11</title>
<ellipse fill="none" stroke="green" stroke-width="2" cx="103" cy="-18" rx="27" ry="18"/>
<text text-anchor="middle" x="103" y="-14.3" font-family="Times New Roman,serif" font-size="14.00">11 i</text>
</g>
<!-- 5&#45;&gt;11 -->
<g id="edge2" class="edge">
<title>5&#45;&gt;11</title>
<path fill="none" stroke="black" stroke-dasharray="1,5" d="M22.25,-348.22C17.86,-331.19 12,-303.98 12,-280 12,-280 12,-280 12,-104 12,-70.69 44.96,-46.69 71.21,-32.85"/>
<polygon fill="black" stroke="black" points="73.12,-35.81 80.51,-28.22 69.99,-29.55 73.12,-35.81"/>
<text text-anchor="middle" x="15.5" y="-188.3" font-family="Times New Roman,serif" font-size="14.00">4</text>
</g>
<!-- 6&#45;&gt;1 -->
<g id="edge8" class="edge">
<title>6&#45;&gt;1</title>
<path fill="none" stroke="black" stroke-dasharray="1,5" d="M86.67,-297.32C85.82,-341.38 83.56,-458.01 82.53,-511.49"/>
<polygon fill="black" stroke="black" points="79.03,-511.54 82.34,-521.6 86.03,-511.67 79.03,-511.54"/>
<text text-anchor="middle" x="87.5" y="-405.8" font-family="Times New Roman,serif" font-size="14.00">1</text>
</g>
<!-- 7 -->
<g id="node7" class="node">
<title>7</title>
<ellipse fill="none" stroke="green" cx="116" cy="-192" rx="27" ry="18"/>
<text text-anchor="middle" x="116" y="-188.3" font-family="Times New Roman,serif" font-size="14.00">7 g</text>
</g>
<!-- 6&#45;&gt;7 -->
<g id="edge7" class="edge">
<title>6&#45;&gt;7</title>
<path fill="none" stroke="black" d="M92.73,-261.21C96.78,-249.33 102.3,-233.17 106.94,-219.56"/>
<polygon fill="black" stroke="black" points="110.37,-220.35 110.28,-209.76 103.74,-218.09 110.37,-220.35"/>
<text text-anchor="middle" x="106.5" y="-231.8" font-family="Times New Roman,serif" font-size="14.00">1</text>
</g>
<!-- 10 -->
<g id="node4" class="node">
<title>10</title>
<ellipse fill="none" stroke="black" cx="67" cy="-105" rx="27" ry="18"/>
<text text-anchor="middle" x="67" y="-101.3" font-family="Times New Roman,serif" font-size="14.00">10 u</text>
</g>
<!-- 10&#45;&gt;11 -->
<g id="edge1" class="edge">
<title>10&#45;&gt;11</title>
<path fill="none" stroke="black" stroke-dasharray="1,5" d="M74.11,-87.21C79.22,-75.14 86.21,-58.64 92.03,-44.89"/>
<polygon fill="black" stroke="black" points="95.35,-46.04 96.02,-35.47 88.9,-43.31 95.35,-46.04"/>
<text text-anchor="middle" x="90.5" y="-57.8" font-family="Times New Roman,serif" font-size="14.00">1</text>
</g>
<!-- 4 -->
<g id="node5" class="node">
<title>4</title>
<ellipse fill="none" stroke="green" cx="137" cy="-366" rx="27" ry="18"/>
<text text-anchor="middle" x="137" y="-362.3" font-family="Times New Roman,serif" font-size="14.00">4 d</text>
</g>
<!-- 4&#45;&gt;6 -->
<g id="edge6" class="edge">
<title>4&#45;&gt;6</title>
<path fill="none" stroke="black" d="M127.6,-349.01C120.26,-336.55 109.95,-319.01 101.55,-304.74"/>
<polygon fill="black" stroke="black" points="104.45,-302.76 96.36,-295.92 98.42,-306.31 104.45,-302.76"/>
<text text-anchor="middle" x="117.5" y="-318.8" font-family="Times New Roman,serif" font-size="14.00">1</text>
</g>
<!-- 9 -->
<g id="node6" class="node">
<title>9</title>
<ellipse fill="none" stroke="black" cx="139" cy="-105" rx="27" ry="18"/>
<text text-anchor="middle" x="139" y="-101.3" font-family="Times New Roman,serif" font-size="14.00">9 y</text>
</g>
<!-- 9&#45;&gt;11 -->
<g id="edge15" class="edge">
<title>9&#45;&gt;11</title>
<path fill="none" stroke="black" stroke-dasharray="1,5" d="M131.89,-87.21C126.78,-75.14 119.79,-58.64 113.97,-44.89"/>
<polygon fill="black" stroke="black" points="117.1,-43.31 109.98,-35.47 110.65,-46.04 117.1,-43.31"/>
<text text-anchor="middle" x="126.5" y="-57.8" font-family="Times New Roman,serif" font-size="14.00">1</text>
</g>
<!-- 7&#45;&gt;10 -->
<g id="edge11" class="edge">
<title>7&#45;&gt;10</title>
<path fill="none" stroke="black" stroke-dasharray="1,5" d="M106.78,-175.01C99.64,-162.63 89.62,-145.23 81.42,-131.01"/>
<polygon fill="black" stroke="black" points="84.37,-129.12 76.34,-122.21 78.3,-132.62 84.37,-129.12"/>
<text text-anchor="middle" x="97.5" y="-144.8" font-family="Times New Roman,serif" font-size="14.00">3</text>
</g>
<!-- 7&#45;&gt;9 -->
<g id="edge13" class="edge">
<title>7&#45;&gt;9</title>
<path fill="none" stroke="black" stroke-dasharray="1,5" d="M120.54,-174.21C123.76,-162.33 128.13,-146.17 131.81,-132.56"/>
<polygon fill="black" stroke="black" points="135.23,-133.33 134.47,-122.76 128.47,-131.5 135.23,-133.33"/>
<text text-anchor="middle" x="131.5" y="-144.8" font-family="Times New Roman,serif" font-size="14.00">2</text>
</g>
<!-- 8 -->
<g id="node9" class="node">
<title>8</title>
<ellipse fill="none" stroke="green" cx="211" cy="-105" rx="27" ry="18"/>
<text text-anchor="middle" x="211" y="-101.3" font-family="Times New Roman,serif" font-size="14.00">8 h</text>
</g>
<!-- 7&#45;&gt;8 -->
<g id="edge12" class="edge">
<title>7&#45;&gt;8</title>
<path fill="none" stroke="black" d="M131.69,-176.96C146.95,-163.31 170.33,-142.39 187.75,-126.8"/>
<polygon fill="black" stroke="black" points="190.17,-129.33 195.29,-120.06 185.5,-124.12 190.17,-129.33"/>
<text text-anchor="middle" x="172.5" y="-144.8" font-family="Times New Roman,serif" font-size="14.00">1</text>
</g>
<!-- 2&#45;&gt;4 -->
<g id="edge4" class="edge">
<title>2&#45;&gt;4</title>
<path fill="none" stroke="black" d="M137,-434.8C137,-423.16 137,-407.55 137,-394.24"/>
<polygon fill="black" stroke="black" points="140.5,-394.18 137,-384.18 133.5,-394.18 140.5,-394.18"/>
<text text-anchor="middle" x="140.5" y="-405.8" font-family="Times New Roman,serif" font-size="14.00">2</text>
</g>
<!-- 8&#45;&gt;11 -->
<g id="edge5" class="edge">
<title>8&#45;&gt;11</title>
<path fill="none" stroke="black" d="M194.12,-90.72C176.29,-76.68 147.99,-54.41 127.66,-38.41"/>
<polygon fill="black" stroke="black" points="129.78,-35.62 119.76,-32.19 125.45,-41.12 129.78,-35.62"/>
<text text-anchor="middle" x="166.5" y="-57.8" font-family="Times New Roman,serif" font-size="14.00">1</text>
</g>
<!-- 3&#45;&gt;5 -->
<g id="edge14" class="edge">
<title>3&#45;&gt;5</title>
<path fill="none" stroke="black" stroke-dasharray="1,5" d="M27,-434.8C27,-423.16 27,-407.55 27,-394.24"/>
<polygon fill="black" stroke="black" points="30.5,-394.18 27,-384.18 23.5,-394.18 30.5,-394.18"/>
<text text-anchor="middle" x="30.5" y="-405.8" font-family="Times New Roman,serif" font-size="14.00">3</text>
</g>
</g>
</svg>
