<?xml version="1.0" encoding="UTF-8" standalone="no"?>
<!DOCTYPE svg PUBLIC "-//W3C//DTD SVG 1.1//EN"
 "http://www.w3.org/Graphics/SVG/1.1/DTD/svg11.dtd">
<!-- Generated by graphviz version 2.49.3 (20211023.0002)
 -->
<!-- Title: di_graph Pages: 1 -->
<svg width="344pt" height="479pt"
 viewBox="0.00 0.00 344.00 479.00" xmlns="http://www.w3.org/2000/svg" xmlns:xlink="http://www.w3.org/1999/xlink">
<g id="graph0" class="graph" transform="scale(1 1) rotate(0) translate(4 475)">
<title>di_graph</title>
<polygon fill="white" stroke="transparent" points="-4,4 -4,-475 340,-475 340,4 -4,4"/>
<!-- 3 -->
<g id="node1" class="node">
<title>3</title>
<ellipse fill="none" stroke="black" cx="282" cy="-453" rx="27" ry="18"/>
<text text-anchor="middle" x="282" y="-449.3" font-family="Times New Roman,serif" font-size="14.00">3 c</text>
</g>
<!-- 5 -->
<g id="node8" class="node">
<title>5</title>
<ellipse fill="none" stroke="black" cx="254" cy="-366" rx="27" ry="18"/>
<text text-anchor="middle" x="254" y="-362.3" font-family="Times New Roman,serif" font-size="14.00">5 e</text>
</g>
<!-- 3&#45;&gt;5 -->
<g id="edge3" class="edge">
<title>3&#45;&gt;5</title>
<path fill="none" stroke="black" stroke-dasharray="1,5" d="M276.47,-435.21C272.56,-423.33 267.23,-407.17 262.75,-393.56"/>
<polygon fill="black" stroke="black" points="265.97,-392.16 259.52,-383.76 259.32,-394.35 265.97,-392.16"/>
<text text-anchor="middle" x="272.5" y="-405.8" font-family="Times New Roman,serif" font-size="14.00">3</text>
</g>
<!-- 11 -->
<g id="node2" class="node">
<title>11</title>
<ellipse fill="none" stroke="green" stroke-width="2" cx="91" cy="-18" rx="27" ry="18"/>
<text text-anchor="middle" x="91" y="-14.3" font-family="Times New Roman,serif" font-size="14.00">11 i</text>
</g>
<!-- 7 -->
<g id="node3" class="node">
<title>7</title>
<ellipse fill="none" stroke="green" cx="158" cy="-192" rx="27" ry="18"/>
<text text-anchor="middle" x="158" y="-188.3" font-family="Times New Roman,serif" font-size="14.00">7 g</text>
</g>
<!-- 10 -->
<g id="node5" class="node">
<title>10</title>
<ellipse fill="none" stroke="black" cx="55" cy="-105" rx="27" ry="18"/>
<text text-anchor="middle" x="55" y="-101.3" font-family="Times New Roman,serif" font-size="14.00">10 u</text>
</g>
<!-- 7&#45;&gt;10 -->
<g id="edge8" class="edge">
<title>7&#45;&gt;10</title>
<path fill="none" stroke="black" stroke-dasharray="1,5" d="M141.45,-177.34C124.63,-163.46 98.4,-141.81 79.24,-126"/>
<polygon fill="black" stroke="black" points="81.45,-123.29 71.51,-119.62 76.99,-128.69 81.45,-123.29"/>
<text text-anchor="middle" x="116.5" y="-144.8" font-family="Times New Roman,serif" font-size="14.00">3</text>
</g>
<!-- 8 -->
<g id="node7" class="node">
<title>8</title>
<ellipse fill="none" stroke="green" cx="127" cy="-105" rx="27" ry="18"/>
<text text-anchor="middle" x="127" y="-101.3" font-family="Times New Roman,serif" font-size="14.00">8 h</text>
</g>
<!-- 7&#45;&gt;8 -->
<g id="edge9" class="edge">
<title>7&#45;&gt;8</title>
<path fill="none" stroke="black" d="M151.88,-174.21C147.5,-162.22 141.53,-145.85 136.54,-132.16"/>
<polygon fill="black" stroke="black" points="139.83,-130.95 133.11,-122.76 133.25,-133.35 139.83,-130.95"/>
<text text-anchor="middle" x="148.5" y="-144.8" font-family="Times New Roman,serif" font-size="14.00">1</text>
</g>
<!-- 9 -->
<g id="node9" class="node">
<title>9</title>
<ellipse fill="none" stroke="black" cx="199" cy="-105" rx="27" ry="18"/>
<text text-anchor="middle" x="199" y="-101.3" font-family="Times New Roman,serif" font-size="14.00">9 y</text>
</g>
<!-- 7&#45;&gt;9 -->
<g id="edge7" class="edge">
<title>7&#45;&gt;9</title>
<path fill="none" stroke="black" stroke-dasharray="1,5" d="M165.91,-174.61C171.8,-162.38 179.97,-145.44 186.72,-131.46"/>
<polygon fill="black" stroke="black" points="189.93,-132.87 191.12,-122.34 183.62,-129.82 189.93,-132.87"/>
<text text-anchor="middle" x="184.5" y="-144.8" font-family="Times New Roman,serif" font-size="14.00">2</text>
</g>
<!-- 1 -->
<g id="node4" class="node">
<title>1</title>
<ellipse fill="none" stroke="green" stroke-width="2" cx="309" cy="-192" rx="27" ry="18"/>
<text text-anchor="middle" x="309" y="-188.3" font-family="Times New Roman,serif" font-size="14.00">1 a</text>
</g>
<!-- 1&#45;&gt;3 -->
<g id="edge2" class="edge">
<title>1&#45;&gt;3</title>
<path fill="none" stroke="black" stroke-dasharray="1,5" d="M307.4,-210.13C304.25,-243.58 296.96,-319.9 290,-384 288.54,-397.44 286.8,-412.35 285.32,-424.78"/>
<polygon fill="black" stroke="black" points="281.81,-424.62 284.09,-434.96 288.76,-425.45 281.81,-424.62"/>
<text text-anchor="middle" x="300.5" y="-318.8" font-family="Times New Roman,serif" font-size="14.00">1</text>
</g>
<!-- 2 -->
<g id="node10" class="node">
<title>2</title>
<ellipse fill="none" stroke="green" cx="309" cy="-105" rx="27" ry="18"/>
<text text-anchor="middle" x="309" y="-101.3" font-family="Times New Roman,serif" font-size="14.00">2 b</text>
</g>
<!-- 1&#45;&gt;2 -->
<g id="edge1" class="edge">
<title>1&#45;&gt;2</title>
<path fill="none" stroke="black" d="M309,-173.8C309,-162.16 309,-146.55 309,-133.24"/>
<polygon fill="black" stroke="black" points="312.5,-133.18 309,-123.18 305.5,-133.18 312.5,-133.18"/>
<text text-anchor="middle" x="312.5" y="-144.8" font-family="Times New Roman,serif" font-size="14.00">1</text>
</g>
<!-- 10&#45;&gt;11 -->
<g id="edge13" class="edge">
<title>10&#45;&gt;11</title>
<path fill="none" stroke="black" stroke-dasharray="1,5" d="M62.11,-87.21C67.22,-75.14 74.21,-58.64 80.03,-44.89"/>
<polygon fill="black" stroke="black" points="83.35,-46.04 84.02,-35.47 76.9,-43.31 83.35,-46.04"/>
<text text-anchor="middle" x="79.5" y="-57.8" font-family="Times New Roman,serif" font-size="14.00">1</text>
</g>
<!-- 6 -->
<g id="node6" class="node">
<title>6</title>
<ellipse fill="none" stroke="green" cx="254" cy="-279" rx="27" ry="18"/>
<text text-anchor="middle" x="254" y="-275.3" font-family="Times New Roman,serif" font-size="14.00">6 f</text>
</g>
<!-- 6&#45;&gt;7 -->
<g id="edge6" class="edge">
<title>6&#45;&gt;7</title>
<path fill="none" stroke="black" d="M238.15,-263.96C222.63,-250.22 198.82,-229.14 181.18,-213.52"/>
<polygon fill="black" stroke="black" points="183.36,-210.78 173.56,-206.77 178.72,-216.02 183.36,-210.78"/>
<text text-anchor="middle" x="215.5" y="-231.8" font-family="Times New Roman,serif" font-size="14.00">1</text>
</g>
<!-- 6&#45;&gt;1 -->
<g id="edge5" class="edge">
<title>6&#45;&gt;1</title>
<path fill="none" stroke="black" stroke-dasharray="1,5" d="M264.35,-262.01C272.49,-249.43 283.97,-231.68 293.26,-217.33"/>
<polygon fill="black" stroke="black" points="296.21,-219.21 298.7,-208.92 290.33,-215.41 296.21,-219.21"/>
<text text-anchor="middle" x="287.5" y="-231.8" font-family="Times New Roman,serif" font-size="14.00">1</text>
</g>
<!-- 8&#45;&gt;11 -->
<g id="edge10" class="edge">
<title>8&#45;&gt;11</title>
<path fill="none" stroke="black" d="M119.89,-87.21C114.78,-75.14 107.79,-58.64 101.97,-44.89"/>
<polygon fill="black" stroke="black" points="105.1,-43.31 97.98,-35.47 98.65,-46.04 105.1,-43.31"/>
<text text-anchor="middle" x="115.5" y="-57.8" font-family="Times New Roman,serif" font-size="14.00">1</text>
</g>
<!-- 5&#45;&gt;11 -->
<g id="edge12" class="edge">
<title>5&#45;&gt;11</title>
<path fill="none" stroke="black" stroke-dasharray="1,5" d="M227.3,-361.84C162.08,-353.37 0,-327.55 0,-280 0,-280 0,-280 0,-104 0,-70.69 32.96,-46.69 59.21,-32.85"/>
<polygon fill="black" stroke="black" points="61.12,-35.81 68.51,-28.22 57.99,-29.55 61.12,-35.81"/>
<text text-anchor="middle" x="3.5" y="-188.3" font-family="Times New Roman,serif" font-size="14.00">4</text>
</g>
<!-- 5&#45;&gt;6 -->
<g id="edge11" class="edge">
<title>5&#45;&gt;6</title>
<path fill="none" stroke="black" stroke-dasharray="1,5" d="M254,-347.8C254,-336.16 254,-320.55 254,-307.24"/>
<polygon fill="black" stroke="black" points="257.5,-307.18 254,-297.18 250.5,-307.18 257.5,-307.18"/>
<text text-anchor="middle" x="257.5" y="-318.8" font-family="Times New Roman,serif" font-size="14.00">1</text>
</g>
<!-- 9&#45;&gt;11 -->
<g id="edge15" class="edge">
<title>9&#45;&gt;11</title>
<path fill="none" stroke="black" stroke-dasharray="1,5" d="M182.12,-90.72C164.29,-76.68 135.99,-54.41 115.66,-38.41"/>
<polygon fill="black" stroke="black" points="117.78,-35.62 107.76,-32.19 113.45,-41.12 117.78,-35.62"/>
<text text-anchor="middle" x="155.5" y="-57.8" font-family="Times New Roman,serif" font-size="14.00">1</text>
</g>
<!-- 4 -->
<g id="node11" class="node">
<title>4</title>
<ellipse fill="none" stroke="green" cx="270" cy="-18" rx="27" ry="18"/>
<text text-anchor="middle" x="270" y="-14.3" font-family="Times New Roman,serif" font-size="14.00">4 d</text>
</g>
<!-- 2&#45;&gt;4 -->
<g id="edge4" class="edge">
<title>2&#45;&gt;4</title>
<path fill="none" stroke="black" d="M301.48,-87.61C295.87,-75.38 288.1,-58.44 281.68,-44.46"/>
<polygon fill="black" stroke="black" points="284.85,-42.97 277.5,-35.34 278.49,-45.89 284.85,-42.97"/>
<text text-anchor="middle" x="294.5" y="-57.8" font-family="Times New Roman,serif" font-size="14.00">2</text>
</g>
<!-- 4&#45;&gt;6 -->
<g id="edge14" class="edge">
<title>4&#45;&gt;6</title>
<path fill="none" stroke="black" d="M268.95,-36.06C266.23,-80.03 258.97,-197.54 255.67,-250.93"/>
<polygon fill="black" stroke="black" points="252.17,-250.81 255.05,-261.01 259.16,-251.24 252.17,-250.81"/>
<text text-anchor="middle" x="265.5" y="-144.8" font-family="Times New Roman,serif" font-size="14.00">1</text>
</g>
</g>
</svg>
