<?xml version="1.0" encoding="UTF-8" standalone="no"?>
<!DOCTYPE svg PUBLIC "-//W3C//DTD SVG 1.1//EN"
 "http://www.w3.org/Graphics/SVG/1.1/DTD/svg11.dtd">
<!-- Generated by graphviz version 5.0.0 (0)
 -->
<!-- Title: di_graph Pages: 1 -->
<svg width="423pt" height="392pt"
 viewBox="0.00 0.00 423.00 392.00" xmlns="http://www.w3.org/2000/svg" xmlns:xlink="http://www.w3.org/1999/xlink">
<g id="graph0" class="graph" transform="scale(1 1) rotate(0) translate(4 388)">
<title>di_graph</title>
<polygon fill="white" stroke="transparent" points="-4,4 -4,-388 419,-388 419,4 -4,4"/>
<!-- 10 -->
<g id="node1" class="node">
<title>10</title>
<ellipse fill="none" stroke="black" cx="281" cy="-105" rx="27" ry="18"/>
<text text-anchor="middle" x="281" y="-101.3" font-family="Times,serif" font-size="14.00">10 </text>
</g>
<!-- 11 -->
<g id="node11" class="node">
<title>11</title>
<ellipse fill="none" stroke="black" cx="307" cy="-18" rx="27" ry="18"/>
<text text-anchor="middle" x="307" y="-14.3" font-family="Times,serif" font-size="14.00">11 </text>
</g>
<!-- 10&#45;&gt;11 -->
<g id="edge10" class="edge">
<title>10&#45;&gt;11</title>
<path fill="none" stroke="black" d="M286.14,-87.21C289.77,-75.33 294.71,-59.17 298.88,-45.56"/>
<polygon fill="black" stroke="black" points="302.3,-46.34 301.87,-35.76 295.6,-44.3 302.3,-46.34"/>
<text text-anchor="middle" x="298.5" y="-57.8" font-family="Times,serif" font-size="14.00">1</text>
</g>
<!-- 3 -->
<g id="node2" class="node">
<title>3</title>
<ellipse fill="none" stroke="black" cx="27" cy="-105" rx="27" ry="18"/>
<text text-anchor="middle" x="27" y="-101.3" font-family="Times,serif" font-size="14.00">3 </text>
</g>
<!-- 5 -->
<g id="node6" class="node">
<title>5</title>
<ellipse fill="none" stroke="black" cx="154" cy="-366" rx="27" ry="18"/>
<text text-anchor="middle" x="154" y="-362.3" font-family="Times,serif" font-size="14.00">5 </text>
</g>
<!-- 3&#45;&gt;5 -->
<g id="edge11" class="edge">
<title>3&#45;&gt;5</title>
<path fill="none" stroke="black" d="M31.75,-122.97C37.85,-143.89 49.32,-180.33 63,-210 85.26,-258.28 118.2,-310.95 137.74,-340.78"/>
<polygon fill="black" stroke="black" points="134.92,-342.86 143.35,-349.28 140.76,-339 134.92,-342.86"/>
<text text-anchor="middle" x="82.5" y="-231.8" font-family="Times,serif" font-size="14.00">3</text>
</g>
<!-- 2 -->
<g id="node3" class="node">
<title>2</title>
<ellipse fill="none" stroke="black" cx="99" cy="-105" rx="27" ry="18"/>
<text text-anchor="middle" x="99" y="-101.3" font-family="Times,serif" font-size="14.00">2 </text>
</g>
<!-- 4 -->
<g id="node4" class="node">
<title>4</title>
<ellipse fill="none" stroke="black" cx="135" cy="-18" rx="27" ry="18"/>
<text text-anchor="middle" x="135" y="-14.3" font-family="Times,serif" font-size="14.00">4 </text>
</g>
<!-- 2&#45;&gt;4 -->
<g id="edge7" class="edge">
<title>2&#45;&gt;4</title>
<path fill="none" stroke="black" d="M106.11,-87.21C111.22,-75.14 118.21,-58.64 124.03,-44.89"/>
<polygon fill="black" stroke="black" points="127.35,-46.04 128.02,-35.47 120.9,-43.31 127.35,-46.04"/>
<text text-anchor="middle" x="123.5" y="-57.8" font-family="Times,serif" font-size="14.00">2</text>
</g>
<!-- 6 -->
<g id="node7" class="node">
<title>6</title>
<ellipse fill="none" stroke="black" cx="154" cy="-279" rx="27" ry="18"/>
<text text-anchor="middle" x="154" y="-275.3" font-family="Times,serif" font-size="14.00">6 </text>
</g>
<!-- 4&#45;&gt;6 -->
<g id="edge8" class="edge">
<title>4&#45;&gt;6</title>
<path fill="none" stroke="black" d="M136.25,-36.06C139.48,-80.03 148.1,-197.54 152.01,-250.93"/>
<polygon fill="black" stroke="black" points="148.53,-251.29 152.75,-261.01 155.51,-250.78 148.53,-251.29"/>
<text text-anchor="middle" x="148.5" y="-144.8" font-family="Times,serif" font-size="14.00">1</text>
</g>
<!-- 7 -->
<g id="node5" class="node">
<title>7</title>
<ellipse fill="none" stroke="black" cx="240" cy="-192" rx="27" ry="18"/>
<text text-anchor="middle" x="240" y="-188.3" font-family="Times,serif" font-size="14.00">7 </text>
</g>
<!-- 7&#45;&gt;10 -->
<g id="edge2" class="edge">
<title>7&#45;&gt;10</title>
<path fill="none" stroke="black" d="M247.91,-174.61C253.8,-162.38 261.97,-145.44 268.72,-131.46"/>
<polygon fill="black" stroke="black" points="271.93,-132.87 273.12,-122.34 265.62,-129.82 271.93,-132.87"/>
<text text-anchor="middle" x="265.5" y="-144.8" font-family="Times,serif" font-size="14.00">3</text>
</g>
<!-- 8 -->
<g id="node9" class="node">
<title>8</title>
<ellipse fill="none" stroke="black" cx="353" cy="-105" rx="27" ry="18"/>
<text text-anchor="middle" x="353" y="-101.3" font-family="Times,serif" font-size="14.00">8 </text>
</g>
<!-- 7&#45;&gt;8 -->
<g id="edge4" class="edge">
<title>7&#45;&gt;8</title>
<path fill="none" stroke="black" d="M257.16,-178.09C275.91,-163.99 306.14,-141.25 327.63,-125.09"/>
<polygon fill="black" stroke="black" points="329.79,-127.84 335.68,-119.03 325.58,-122.25 329.79,-127.84"/>
<text text-anchor="middle" x="306.5" y="-144.8" font-family="Times,serif" font-size="14.00">1</text>
</g>
<!-- 9 -->
<g id="node10" class="node">
<title>9</title>
<ellipse fill="none" stroke="black" cx="209" cy="-105" rx="27" ry="18"/>
<text text-anchor="middle" x="209" y="-101.3" font-family="Times,serif" font-size="14.00">9 </text>
</g>
<!-- 7&#45;&gt;9 -->
<g id="edge3" class="edge">
<title>7&#45;&gt;9</title>
<path fill="none" stroke="black" d="M233.88,-174.21C229.5,-162.22 223.53,-145.85 218.54,-132.16"/>
<polygon fill="black" stroke="black" points="221.83,-130.95 215.11,-122.76 215.25,-133.35 221.83,-130.95"/>
<text text-anchor="middle" x="229.5" y="-144.8" font-family="Times,serif" font-size="14.00">2</text>
</g>
<!-- 5&#45;&gt;6 -->
<g id="edge13" class="edge">
<title>5&#45;&gt;6</title>
<path fill="none" stroke="black" d="M154,-347.8C154,-336.16 154,-320.55 154,-307.24"/>
<polygon fill="black" stroke="black" points="157.5,-307.18 154,-297.18 150.5,-307.18 157.5,-307.18"/>
<text text-anchor="middle" x="157.5" y="-318.8" font-family="Times,serif" font-size="14.00">1</text>
</g>
<!-- 5&#45;&gt;11 -->
<g id="edge12" class="edge">
<title>5&#45;&gt;11</title>
<path fill="none" stroke="black" d="M180.7,-361.84C245.92,-353.37 408,-327.55 408,-280 408,-280 408,-280 408,-104 408,-67.86 369.68,-44 340.25,-30.99"/>
<polygon fill="black" stroke="black" points="341.26,-27.62 330.68,-27 338.56,-34.08 341.26,-27.62"/>
<text text-anchor="middle" x="411.5" y="-188.3" font-family="Times,serif" font-size="14.00">4</text>
</g>
<!-- 6&#45;&gt;7 -->
<g id="edge14" class="edge">
<title>6&#45;&gt;7</title>
<path fill="none" stroke="black" d="M168.59,-263.58C182.18,-250.15 202.62,-229.94 218.16,-214.59"/>
<polygon fill="black" stroke="black" points="220.69,-217.01 225.34,-207.49 215.77,-212.03 220.69,-217.01"/>
<text text-anchor="middle" x="205.5" y="-231.8" font-family="Times,serif" font-size="14.00">1</text>
</g>
<!-- 1 -->
<g id="node8" class="node">
<title>1</title>
<ellipse fill="none" stroke="black" cx="99" cy="-192" rx="27" ry="18"/>
<text text-anchor="middle" x="99" y="-188.3" font-family="Times,serif" font-size="14.00">1 </text>
</g>
<!-- 6&#45;&gt;1 -->
<g id="edge15" class="edge">
<title>6&#45;&gt;1</title>
<path fill="none" stroke="black" d="M143.65,-262.01C135.51,-249.43 124.03,-231.68 114.74,-217.33"/>
<polygon fill="black" stroke="black" points="117.67,-215.41 109.3,-208.92 111.79,-219.21 117.67,-215.41"/>
<text text-anchor="middle" x="133.5" y="-231.8" font-family="Times,serif" font-size="14.00">1</text>
</g>
<!-- 1&#45;&gt;3 -->
<g id="edge5" class="edge">
<title>1&#45;&gt;3</title>
<path fill="none" stroke="black" d="M86.13,-175.8C75.07,-162.75 58.96,-143.74 46.35,-128.85"/>
<polygon fill="black" stroke="black" points="48.89,-126.43 39.76,-121.06 43.55,-130.96 48.89,-126.43"/>
<text text-anchor="middle" x="71.5" y="-144.8" font-family="Times,serif" font-size="14.00">1</text>
</g>
<!-- 1&#45;&gt;2 -->
<g id="edge6" class="edge">
<title>1&#45;&gt;2</title>
<path fill="none" stroke="black" d="M99,-173.8C99,-162.16 99,-146.55 99,-133.24"/>
<polygon fill="black" stroke="black" points="102.5,-133.18 99,-123.18 95.5,-133.18 102.5,-133.18"/>
<text text-anchor="middle" x="102.5" y="-144.8" font-family="Times,serif" font-size="14.00">1</text>
</g>
<!-- 8&#45;&gt;11 -->
<g id="edge9" class="edge">
<title>8&#45;&gt;11</title>
<path fill="none" stroke="black" d="M344.13,-87.61C337.47,-75.3 328.23,-58.23 320.63,-44.19"/>
<polygon fill="black" stroke="black" points="323.52,-42.18 315.69,-35.05 317.37,-45.51 323.52,-42.18"/>
<text text-anchor="middle" x="335.5" y="-57.8" font-family="Times,serif" font-size="14.00">1</text>
</g>
<!-- 9&#45;&gt;11 -->
<g id="edge1" class="edge">
<title>9&#45;&gt;11</title>
<path fill="none" stroke="black" d="M224.75,-90.34C240.51,-76.67 264.97,-55.45 283.13,-39.71"/>
<polygon fill="black" stroke="black" points="285.71,-42.1 290.97,-32.91 281.12,-36.81 285.71,-42.1"/>
<text text-anchor="middle" x="266.5" y="-57.8" font-family="Times,serif" font-size="14.00">1</text>
</g>
</g>
</svg>
